<svg width="178" height="400" viewBox="0 0 178 400" fill="none" xmlns="http://www.w3.org/2000/svg">
<path d="M148.356 2.52251V15.4655C144.632 15.9453 137.223 16.276 128.691 16.276C119.562 16.276 111.718 15.8999 108.299 15.3682V2.52251C108.299 1.89352 108.533 1.30992 108.922 0.875461C112.691 1.82219 119.809 2.46415 127.977 2.46415C136.561 2.46415 143.996 1.75735 147.584 0.726318C148.058 1.17375 148.35 1.82219 148.35 2.529H148.356V2.52251Z" fill="#FFC501"/>
<path d="M151.042 30.2566C151.042 30.516 149.984 30.9699 148.349 31.1774C144.625 31.6572 137.216 31.9879 128.684 31.9879C119.555 31.9879 111.711 31.6119 108.292 31.0801C107.111 30.8986 106.112 30.7948 106.067 30.3668C106.047 30.1528 106.157 29.8027 107.079 29.673V15.1608C110.498 15.699 119.555 16.2761 128.678 16.2761C137.209 16.2761 145.709 15.5758 149.433 15.0959V29.4071C151.178 29.5887 151.029 30.0037 151.029 30.2566H151.042Z" fill="#ED5E3B"/>
<path d="M148.356 31.1771V83.5455H108.305V31.0798C111.724 31.618 119.568 31.9877 128.697 31.9877C137.229 31.9877 144.632 31.6634 148.362 31.1771H148.356Z" fill="#FF884D"/>
<path d="M177.994 154.356V381.818C177.994 386.234 171.804 400 129.424 400C83.8586 400 80.407 386.227 80.407 381.805V154.356C80.407 143.384 84.9162 133.463 92.1828 126.35C96.3676 121.596 107.611 108.174 108.325 100.081H148.324C148.953 107.694 160.054 120.04 165.206 125.39C173.069 132.562 178 142.885 178 154.362H177.994V154.356Z" fill="#FF884D"/>
<path d="M147.59 0.719774C144.002 1.7508 136.567 2.45761 127.983 2.45761C119.399 2.45761 112.691 1.81565 108.928 0.868917C109.388 0.330707 110.07 0 110.829 0H145.832C146.52 0 147.142 0.265863 147.59 0.719774Z" fill="#ED5E3B"/>
<path d="M98.1773 178.575V270.901H97.8399C93.72 269.993 89.6779 268.832 85.7786 267.373V176.812C88.7825 177.337 92.9738 177.985 98.1773 178.575Z" fill="#FFC501"/>
<path d="M85.7784 176.812V267.373C83.9423 266.693 82.1451 265.94 80.3804 265.123V175.755C80.3804 175.755 82.2684 176.202 85.7784 176.812Z" fill="#FEDC67"/>
<path d="M177.994 176.248V266.907C177.994 266.907 134.939 279.11 97.8403 270.901H98.1777V178.575C115.572 180.566 144.308 181.967 177.994 176.248Z" fill="#FEDC67"/>
<path d="M148.356 79.2205V100.074C148.356 100.074 142.102 102.798 129.573 102.798C114.43 102.798 108.299 100.074 108.299 100.074V79.2205C108.299 79.2205 117.097 81.4511 128.516 81.4511C138.553 81.4511 148.356 79.2205 148.356 79.2205Z" fill="#ED5E3B"/>
<path d="M86.6091 392.206L89.5028 388.186C92.7987 385.358 94.6738 381.221 94.6283 376.883L93.2723 259.443C93.2075 253.588 91.0923 247.933 87.2903 243.472L80.0562 234.964L81.211 386.817L86.6091 392.212V392.206Z" fill="#FFC501"/>
<path d="M87.7251 380.229C87.7251 380.229 86.3821 384.139 77.8697 387.485C71.4855 390.001 61.0721 392.206 44.1642 392.206C27.2564 392.206 16.9857 390.053 10.4782 387.576C1.64148 384.204 0.110297 380.235 0.110297 380.235L0 259.949C0 248.666 6.81895 245.858 9.17412 240.56C13.2876 242.46 26.1728 244.84 44.041 244.84C60.605 244.84 74.6192 243.128 79.2582 240.768C80.6855 245.566 87.6213 250.293 87.6213 259.929L87.7316 380.235H87.7251V380.229Z" fill="#FFC501"/>
<path d="M77.87 387.485C77.5197 393.483 62.5712 398.308 44.1775 398.308C25.7838 398.308 10.9651 393.522 10.4785 387.57C16.986 390.047 27.4448 392.199 44.1645 392.199C60.8843 392.199 71.4858 390.001 77.87 387.479V387.485Z" fill="#E5AA03"/>
<path d="M80.88 239.062C80.88 239.659 80.309 240.229 79.2515 240.768C74.619 243.122 60.6048 244.84 44.0343 244.84C26.1597 244.84 11.2631 242.843 7.90227 240.191C7.43513 239.834 7.19507 239.451 7.19507 239.069C7.19507 238.381 7.96066 237.72 9.36857 237.117C14.7407 239.257 28.0737 240.781 43.6645 240.781C59.2553 240.781 73.2241 239.192 78.3367 236.955C79.9717 237.616 80.8735 238.323 80.8735 239.069H80.88V239.062Z" fill="#FFDC67"/>
<path d="M87.1867 255.902C87.1867 255.902 87.1413 255.928 87.1153 255.941C81.4448 258.82 64.3033 260.915 44.0411 260.915C23.7789 260.915 5.37872 258.658 0.389404 255.604C0.681367 254.048 1.12904 252.693 1.66755 251.48C3.84105 246.656 7.55871 244.191 9.16775 240.554C13.2812 242.454 26.1665 244.833 44.0411 244.833C60.6051 244.833 74.6193 243.122 79.2583 240.761C80.1861 243.887 83.4561 246.986 85.6166 251.428C86.2784 252.783 86.8363 254.262 87.1867 255.909V255.902Z" fill="#FFD134"/>
<path d="M78.3438 236.942C76.6894 237.668 74.1396 238.323 70.902 238.874C64.1544 237.681 54.2861 236.923 43.2953 236.923C32.3045 236.923 22.793 237.649 16.0584 238.81C13.2426 238.31 10.9588 237.733 9.37573 237.104C14.4883 234.873 28.0873 233.278 44.0415 233.278C59.9956 233.278 72.9717 234.802 78.3438 236.942Z" fill="#FFD134"/>
<path d="M70.9014 238.874C64.1668 240.035 54.4607 240.768 43.671 240.768C32.8814 240.768 22.8054 240.016 16.0579 238.816C22.7925 237.662 32.5051 236.929 43.2947 236.929C54.0844 236.929 64.1539 237.681 70.9014 238.881V238.874Z" fill="#FFC501"/>
<path d="M44.0283 319.632C44.0283 347.028 30.3125 369.231 13.3917 369.231C8.62943 369.231 4.12023 367.474 0.0976321 364.335L0.0197754 274.993C4.06184 271.809 8.59699 270.019 13.3982 270.019C30.319 270.019 44.0348 292.228 44.0348 319.625H44.0283V319.632Z" fill="#ED5E3B"/>
<path opacity="0.8" d="M69.1039 288.52C63.9199 288.831 67.8452 278.475 69.1039 278.209C70.1809 277.982 73.9699 288.228 69.1039 288.52Z" fill="#CEC095"/>
<path opacity="0.8" d="M69.5258 287.605C64.3029 287.923 68.2606 277.483 69.5258 277.211C70.6093 276.977 74.4308 287.307 69.5258 287.605Z" fill="#FEF9E5"/>
<path opacity="0.8" d="M42.9447 371.929C37.7608 372.24 41.686 361.884 42.9447 361.618C44.0217 361.392 47.8108 371.637 42.9447 371.929Z" fill="#CEC095"/>
<path opacity="0.8" d="M43.3666 371.021C38.1437 371.339 42.1014 360.899 43.3666 360.626C44.4501 360.393 48.2716 370.723 43.3666 371.021Z" fill="#FEF9E5"/>
<path opacity="0.8" d="M69.13 275.7C68.9678 275.829 68.7342 275.751 68.6888 275.55C68.4617 274.539 67.2549 272.418 69.2597 268.333C69.2597 268.333 68.8964 270.194 69.7334 272.289C70.5444 274.312 69.5971 275.336 69.13 275.706V275.7Z" fill="#CEC095"/>
<path opacity="0.8" d="M69.13 275.025C68.9678 275.155 68.7342 275.077 68.6888 274.876C68.4617 273.865 67.2549 271.744 69.2597 267.659C69.2597 267.659 68.8964 269.52 69.7334 271.614C70.5444 273.638 69.5971 274.662 69.13 275.032V275.025Z" fill="#FEF9E5"/>
<path opacity="0.8" d="M42.7945 358.039C42.6323 358.169 42.3987 358.091 42.3533 357.89C42.1262 356.879 40.9195 354.758 42.9243 350.673C42.9243 350.673 42.5609 352.534 43.3979 354.629C44.2089 356.652 43.2617 357.676 42.7945 358.046V358.039Z" fill="#CEC095"/>
<path opacity="0.8" d="M42.7945 357.365C42.6323 357.495 42.3987 357.417 42.3533 357.216C42.1262 356.204 40.9195 354.084 42.9243 349.999C42.9243 349.999 42.5609 351.86 43.3979 353.954C44.2089 355.977 43.2617 357.002 42.7945 357.371V357.365Z" fill="#FEF9E5"/>
</svg>
