<svg width="507" height="378" viewBox="0 0 507 378" fill="none" xmlns="http://www.w3.org/2000/svg">
<path d="M17.5558 63.4619L45.1812 62.0491L72.8066 232.519L49.6551 234.647L17.5558 63.4619Z" fill="#E5A900"/>
<path d="M140.316 48.637L167.586 53.0305L154.864 225.077L131.795 222.312L140.316 48.637Z" fill="#E5A900"/>
<path d="M222.136 45.0701L196.748 43.6572L166.876 221.208L194.501 221.915L222.136 45.0701Z" fill="#E5A900"/>
<path d="M34.7226 37.2909L63.8393 199.981L86.2452 198.663L57.1194 33.7502L34.7226 37.2909Z" fill="#FFC501"/>
<path d="M63.84 11.1175L86.9913 10.4111L113.126 221.913L92.2204 223.326L63.84 11.1175Z" fill="#E5A900"/>
<path d="M118.344 42.2457L93.7115 40.1265L91.4646 215.55L118.344 216.256V42.2457Z" fill="#E5A900"/>
<path d="M118.345 0.505859L109.389 208.476H131.04L138.506 2.63371L118.345 0.505859Z" fill="#FFC501"/>
<path d="M131.786 28.0984L154.938 33.0433L125.066 216.961L101.923 214.126L131.786 28.0984Z" fill="#FFC501"/>
<path d="M155.683 14.6609H178.825L166.877 221.21H145.971L155.683 14.6609Z" fill="#E5A900"/>
<path d="M183.309 9.70459L145.971 221.207L172.105 222.62L206.45 11.1174L183.309 9.70459Z" fill="#FFC501"/>
<path d="M225.119 5.4585L175.097 216.254L198.24 218.374L247.516 9.70558L225.119 5.4585Z" fill="#FFC501"/>
<path d="M57.2477 21.1286L79.5445 19.1472L103.223 205.322L80.854 206.597L57.2477 21.1286Z" fill="#FFC501"/>
<path d="M0.379456 54.9777L19.7936 48.4563L66.8332 186.06L47.419 190.635L0.379456 54.9777Z" fill="#FFC501"/>
<path d="M15.1727 104.591L36.7147 325.888C37.5364 334.232 41.7435 341.947 48.45 347.411C55.1565 352.873 63.8391 355.659 72.6696 355.178L180.525 349.32C188.821 348.87 196.658 345.57 202.57 340.039C208.482 334.508 212.063 327.125 212.642 319.272L228.702 100.972L198.439 104.591C198.439 104.591 198.648 140.67 132.303 145.769C62.3851 151.137 41.5979 102.808 41.5979 102.808L15.1727 104.591Z" fill="#C6361A"/>
<path d="M144.216 339.317C144.216 360.414 225.309 377.523 325.335 377.523C425.362 377.523 506.456 360.448 506.456 339.317V317.495H144.216V339.317Z" fill="#053829"/>
<path d="M325.335 355.692C425.365 355.692 506.456 338.591 506.456 317.494C506.456 296.398 425.365 279.297 325.335 279.297C225.305 279.297 144.216 296.398 144.216 317.494C144.216 338.591 225.305 355.692 325.335 355.692Z" fill="#0C513F"/>
<path d="M249.252 307.321L250.479 312.369C251.283 315.725 252.89 318.859 255.178 321.531C257.467 324.201 260.374 326.338 263.674 327.773C278.823 334.303 309.741 343.882 355.325 340.23C395.881 336.974 423.916 329.28 439.757 323.707C444.309 322.111 448.238 319.233 451.014 315.46C453.79 311.687 455.282 307.2 455.288 302.6C455.29 301.576 455.038 300.566 454.551 299.652C454.064 298.737 453.356 297.944 452.486 297.336C451.616 296.729 450.606 296.324 449.54 296.155C448.474 295.987 447.381 296.058 446.349 296.363C417.55 304.883 325.208 328.238 258.745 299.878C257.576 299.386 256.284 299.214 255.015 299.38C253.748 299.545 252.553 300.043 251.567 300.816C250.581 301.589 249.842 302.608 249.433 303.757C249.023 304.906 248.961 306.141 249.252 307.321Z" fill="#FF884D"/>
<g style="mix-blend-mode:multiply">
<path d="M249.261 307.512C249.261 307.512 310.905 356.478 455.542 307.959L422.807 288.197L264.429 289.059L249.261 307.512Z" fill="#E0CA8C"/>
</g>
<path d="M347.706 330.798C347.706 330.798 367.174 316.273 384.569 324.905L383.742 312.741L351.434 315.49L347.706 330.798Z" fill="#0C513F"/>
<path d="M405.275 312.353L405.693 322.553C405.693 322.553 421.015 306.857 442.138 312.353L433.464 298.62L405.275 312.353Z" fill="#0C513F"/>
<path d="M300.492 327.654C300.492 327.654 324.517 318.634 332.383 327.265L327.408 312.741L302.975 315.102L300.492 327.654Z" fill="#0C513F"/>
<path d="M257.828 311.958C257.828 311.958 278.951 310.002 288.063 319.418L293.036 310.002L277.296 301.757L257.828 311.958Z" fill="#0C513F"/>
<path d="M255.835 296.528C248.889 301.93 245.351 306.297 253.108 311.647C257.845 314.921 272.268 304.505 280.06 307.279C286.426 309.537 288.608 326.344 295.874 328.058C302.885 329.704 313.241 315.852 320.217 316.807C327.882 317.858 334.075 333.874 340.567 333.874C349.769 333.874 358.326 317.996 367.392 317.264C376.804 316.506 388.107 330.746 396.8 329.325C406.512 327.739 411.877 310.69 419.924 308.434C430.427 305.488 445.95 315.988 452.005 312.25C462.28 305.927 459.28 299.931 449.704 292.867C430.272 290.351 431.045 277.799 411.431 278.17C391.817 278.54 392.144 294.03 372.539 294.4C352.934 294.771 352.607 279.264 333.002 279.634C313.397 280.004 314.342 293.607 294.901 295.839C275.459 298.07 275.241 293.952 255.835 296.528Z" fill="#02C27F"/>
<path d="M457.106 277.797C457.106 288.032 443.193 310.051 348.714 310.051C251.661 310.051 243.004 287.989 243.004 277.737C243.009 274.799 243.669 271.894 244.943 269.214C246.215 266.535 248.071 264.14 250.391 262.188C252.709 260.235 255.436 258.77 258.395 257.886C261.353 257.003 264.476 256.721 267.556 257.062C293.017 259.887 406.292 259.801 432.618 256.966C435.694 256.636 438.808 256.924 441.759 257.811C444.709 258.699 447.427 260.166 449.738 262.118C452.049 264.069 453.898 266.461 455.166 269.136C456.434 271.812 457.092 274.71 457.096 277.643L457.106 277.797Z" fill="#D15924"/>
<path d="M253.589 247.39L242.096 268.754C241.605 269.479 242.496 270.288 243.56 270.09L247.706 269.331C250.898 268.746 254.208 269.883 255.635 272.054L272.913 298.286C273.142 298.561 273.469 298.747 273.833 298.807C274.197 298.868 274.572 298.799 274.886 298.613C280.988 294.909 301.484 279.075 345.577 280.083C374.885 280.755 391.808 289.559 391.808 289.559C392.039 289.621 392.284 289.63 392.521 289.587C392.757 289.543 392.981 289.449 393.171 289.309L407.575 277.929C409.292 276.681 411.276 275.803 413.389 275.356C415.502 274.91 417.692 274.906 419.806 275.345L430.272 277.37C431.09 277.534 431.891 277.077 431.891 276.457V266.98C431.891 265.843 433.091 264.886 434.618 264.8L459.553 263.396C460.571 263.336 461.099 262.483 460.462 261.88L444.94 246.882C444.94 246.882 343.723 259.993 253.589 247.39Z" fill="#FFC501"/>
<path d="M348.942 271.122C405.194 271.122 450.795 260.667 450.795 247.768C450.795 234.869 405.194 224.414 348.942 224.414C292.689 224.414 247.088 234.869 247.088 247.768C247.088 260.667 292.689 271.122 348.942 271.122Z" fill="#ED5E3B"/>
<path d="M356.825 272.329C356.825 272.329 374.221 260.948 389.961 268.401L380.868 255.84L361.4 257.416L356.825 272.329Z" fill="#0C513F"/>
<path d="M250.371 238.575L249.543 242.107C249.543 242.107 266.111 248.388 276.05 261.732L280.596 246.424L250.371 238.575Z" fill="#0C513F"/>
<path d="M413.158 264.866C413.158 264.866 425.58 243.674 448.359 243.329L440.902 235.868L406.53 253.099L413.158 264.866Z" fill="#0C513F"/>
<path d="M295.1 271.535C295.1 271.535 319.952 262.92 332.383 273.896L331.137 257.415L295.518 259.371L295.1 271.535Z" fill="#0C513F"/>
<path d="M247.252 215.549C249.98 224.646 241.104 227.532 243.078 235.285C245.243 243.78 261.637 243.418 269.639 249.517C275.232 253.781 276.005 270.908 287.38 273.639C294.8 275.431 306.567 261.63 317.307 262.672C325.372 263.456 333.356 279.48 343.622 279.798C353.198 280.1 362.518 264.153 372.612 262.887C382.541 261.646 395.908 274.767 405.275 272.088C415.277 269.21 418.197 251.413 426.189 246.967C435.738 241.686 454.542 246.002 459.126 238.688C464.117 230.728 456.589 225.206 452.842 215.05C432.446 210.561 433.746 199.801 412.831 199.853C391.917 199.905 391.917 215.411 371.002 215.463C350.088 215.515 350.015 200.008 329.073 200.059C308.132 200.111 308.541 214.662 287.626 215.661C267.239 216.643 267.575 210.768 247.252 215.549Z" fill="#02C27F"/>
<g style="mix-blend-mode:multiply">
<path d="M258.137 235.449C250.862 232.718 247.661 227.489 247.652 220.045C247.652 201.541 259.164 167.995 351.534 167.659C446.504 167.314 452.778 201.945 455.061 219.615C456.061 227.445 448.523 236.844 440.439 238.774C410.513 245.778 327.173 261.199 258.137 235.449Z" fill="#FF884D"/>
</g>
<path d="M258.136 229.417C254.554 228.087 251.475 225.769 249.299 222.764C247.121 219.758 245.947 216.203 245.924 212.558C245.924 194.053 259.164 161.963 351.534 161.627C446.504 161.283 456.861 196.466 455.106 216.434C454.771 220.265 453.176 223.9 450.544 226.826C447.912 229.752 444.378 231.822 440.438 232.742C410.513 239.746 327.173 255.167 258.136 229.417Z" fill="#FF884D"/>
<path d="M360.118 181.822C360.027 183.045 359.909 184.156 358.536 183.941C357.163 183.725 357.182 182.864 357.273 181.632C357.363 180.4 358.245 178.763 359.036 178.815C359.827 178.867 360.21 180.599 360.118 181.822Z" fill="white"/>
<path d="M355.645 201.807C354.799 202.427 354.017 202.961 353.289 201.91C352.562 200.859 353.153 200.402 353.99 199.783C354.826 199.162 356.444 198.852 356.899 199.412C357.354 199.971 356.481 201.195 355.645 201.807Z" fill="white"/>
<path d="M355.08 225.196C354.243 225.808 353.452 226.342 352.734 225.3C352.016 224.257 352.588 223.784 353.434 223.171C354.28 222.56 355.89 222.241 356.344 222.801C356.799 223.361 355.926 224.567 355.08 225.196Z" fill="white"/>
<path d="M372.739 221.295C371.902 221.906 371.111 222.441 370.393 221.399C369.675 220.356 370.247 219.891 371.093 219.271C371.938 218.65 373.549 218.34 374.003 218.901C374.458 219.461 373.585 220.675 372.739 221.295Z" fill="white"/>
<path d="M417.16 208.104C416.314 208.724 415.532 209.258 414.813 208.216C414.095 207.173 414.668 206.7 415.514 206.088C416.36 205.476 417.96 205.157 418.415 205.717C418.87 206.277 418.005 207.491 417.16 208.104Z" fill="white"/>
<path d="M342.922 241.814C342.076 242.434 341.295 242.969 340.568 241.918C339.84 240.867 340.431 240.41 341.268 239.79C342.104 239.169 343.723 238.859 344.177 239.419C344.632 239.98 343.759 241.203 342.922 241.814Z" fill="white"/>
<path d="M294.799 197.276C294.645 198.276 294.472 199.18 293.19 198.905C291.908 198.629 291.972 197.914 292.127 196.915C292.281 195.915 293.209 194.632 293.945 194.726C294.681 194.821 294.955 196.276 294.799 197.276Z" fill="white"/>
<path d="M283.425 201.834C282.371 201.704 281.416 201.54 281.697 200.326C281.979 199.111 282.734 199.163 283.789 199.301C284.843 199.438 286.207 200.3 286.108 201.024C286.007 201.748 284.461 201.937 283.425 201.834Z" fill="white"/>
<path d="M282.253 207.898C283.298 208.087 284.244 208.285 283.898 209.492C283.552 210.698 282.807 210.603 281.761 210.414C280.716 210.224 279.397 209.302 279.533 208.604C279.67 207.907 281.207 207.717 282.253 207.898Z" fill="white"/>
<path d="M283.616 206.038C283.388 207.029 283.152 207.916 281.888 207.554C280.624 207.193 280.752 206.477 280.978 205.496C281.206 204.513 282.233 203.29 282.96 203.445C283.688 203.6 283.843 205.056 283.616 206.038Z" fill="white"/>
<path d="M342.04 232.95C340.986 233.019 340.013 233.037 340.04 231.787C340.068 230.538 340.813 230.46 341.859 230.4C342.904 230.34 344.441 230.934 344.486 231.641C344.532 232.347 343.105 232.864 342.04 232.95Z" fill="white"/>
<path d="M363.446 194.458C362.6 195.069 361.818 195.604 361.1 194.561C360.382 193.519 360.955 193.045 361.801 192.434C362.646 191.822 364.247 191.503 364.701 192.063C365.156 192.623 364.247 193.838 363.446 194.458Z" fill="white"/>
<path d="M350.907 209.12C350.715 210.11 350.498 211.006 349.224 210.678C347.951 210.352 348.06 209.645 348.251 208.646C348.442 207.647 349.433 206.415 350.161 206.544C350.888 206.673 351.107 208.129 350.907 209.12Z" fill="white"/>
<path d="M404.366 208.623C404.166 209.614 403.957 210.509 402.683 210.182C401.41 209.854 401.519 209.148 401.711 208.158C401.901 207.167 402.892 205.918 403.62 206.047C404.347 206.176 404.52 207.632 404.366 208.623Z" fill="white"/>
<path d="M389.436 225.247C389.245 226.238 389.027 227.134 387.754 226.807C386.48 226.479 386.59 225.773 386.78 224.783C386.971 223.792 387.963 222.542 388.69 222.672C389.418 222.801 389.636 224.256 389.436 225.247Z" fill="white"/>
<path d="M387.198 200.076C386.998 201.067 386.789 201.963 385.516 201.644C384.242 201.326 384.352 200.601 384.542 199.611C384.733 198.621 385.725 197.371 386.452 197.5C387.18 197.63 387.389 199.086 387.198 200.076Z" fill="white"/>
<path d="M355.261 211.8C355.616 212.756 355.907 213.626 354.634 213.953C353.361 214.281 353.079 213.608 352.715 212.653C352.352 211.696 352.551 210.154 353.261 209.922C353.97 209.689 354.862 210.852 355.261 211.8Z" fill="white"/>
<path d="M384.277 209.508C384.633 210.457 384.924 211.335 383.65 211.654C382.377 211.973 382.086 211.309 381.732 210.361C381.377 209.414 381.568 207.863 382.268 207.63C382.968 207.398 383.923 208.561 384.277 209.508Z" fill="white"/>
<path d="M405.784 222.12C406.139 223.069 406.43 223.947 405.157 224.266C403.883 224.584 403.601 223.921 403.247 222.973C402.892 222.026 403.074 220.476 403.784 220.242C404.493 220.01 405.429 221.173 405.784 222.12Z" fill="white"/>
<path d="M345.704 225.456C344.64 225.499 343.667 225.508 343.722 224.258C343.776 223.009 344.521 222.941 345.586 222.906C346.649 222.871 348.159 223.483 348.186 224.19C348.214 224.896 346.767 225.413 345.704 225.456Z" fill="white"/>
<path d="M399.609 212.188C398.546 212.232 397.582 212.232 397.627 210.982C397.673 209.733 398.437 209.673 399.501 209.629C400.564 209.587 402.065 210.216 402.101 210.922C402.137 211.629 400.674 212.146 399.609 212.188Z" fill="white"/>
<path d="M434.718 227.455C434.891 228.454 435.009 229.368 433.7 229.463C432.39 229.557 432.226 228.868 432.063 227.869C431.899 226.87 432.363 225.388 433.099 225.285C433.836 225.181 434.554 226.464 434.718 227.455Z" fill="white"/>
<path d="M391.099 227.085C390.317 226.405 389.617 225.767 390.581 224.906C391.544 224.045 392.118 224.51 392.909 225.182C393.7 225.853 394.309 227.309 393.818 227.826C393.327 228.344 391.89 227.783 391.099 227.085Z" fill="white"/>
<path d="M341.177 216.513C340.723 215.6 340.331 214.79 341.559 214.308C342.787 213.825 343.15 214.497 343.614 215.402C344.078 216.306 344.06 217.866 343.387 218.176C342.714 218.486 341.623 217.444 341.177 216.513Z" fill="white"/>
<path d="M417.141 225.43C418.187 225.611 419.123 225.818 418.778 227.023C418.432 228.23 417.687 228.126 416.641 227.936C415.595 227.748 414.277 226.817 414.413 226.128C414.55 225.439 416.095 225.241 417.141 225.43Z" fill="white"/>
<path d="M363.956 213.757C363.047 213.292 362.237 212.844 362.892 211.897C363.546 210.949 364.21 211.259 365.12 211.724C366.03 212.189 366.939 213.378 366.648 213.947C366.357 214.515 364.856 214.223 363.956 213.757Z" fill="white"/>
<path d="M386.553 183.131C385.643 183.639 384.852 184.07 384.325 183.062C383.798 182.054 384.416 181.658 385.298 181.158C386.18 180.659 387.744 180.477 388.09 181.029C388.435 181.58 387.444 182.631 386.553 183.131Z" fill="white"/>
<path d="M359.944 175.542C359.035 175.077 358.226 174.629 358.88 173.681C359.535 172.734 360.199 173.044 361.108 173.509C362.017 173.975 362.926 175.172 362.635 175.732C362.344 176.292 360.844 176.007 359.944 175.542Z" fill="white"/>
<path d="M399.819 184.501C398.91 184.035 398.109 183.579 398.765 182.64C399.419 181.701 400.074 182.003 400.983 182.468C401.892 182.932 402.801 184.121 402.52 184.682C402.238 185.242 400.728 184.966 399.819 184.501Z" fill="white"/>
<path d="M392.334 193.924C391.425 193.45 390.616 193.001 391.27 192.062C391.925 191.124 392.589 191.425 393.49 191.89C394.389 192.356 395.308 193.545 395.026 194.104C394.744 194.665 393.235 194.389 392.334 193.924Z" fill="white"/>
<path d="M348.314 180.624C347.842 179.668 347.405 178.781 348.578 178.401C349.752 178.022 350.079 178.686 350.543 179.65C351.006 180.615 351.07 182.235 350.452 182.468C349.834 182.7 348.778 181.589 348.314 180.624Z" fill="white"/>
<path d="M369.384 164.471C368.91 163.515 368.474 162.627 369.648 162.248C370.82 161.87 371.148 162.533 371.611 163.498C372.075 164.463 372.139 166.082 371.521 166.315C370.902 166.547 369.811 165.436 369.384 164.471Z" fill="white"/>
<path d="M320.798 188.152C320.389 187.291 320.034 186.524 321.034 186.188C322.035 185.852 322.353 186.438 322.771 187.291C323.189 188.144 323.226 189.539 322.68 189.772C322.134 190.004 321.217 188.961 320.798 188.152Z" fill="white"/>
<path d="M330.71 205.269C330.237 204.314 329.801 203.427 330.974 203.047C332.146 202.668 332.475 203.331 332.947 204.288C333.42 205.244 333.466 206.873 332.847 207.113C332.228 207.355 331.174 206.243 330.71 205.269Z" fill="white"/>
<path d="M340.076 193.562C340.322 192.528 340.568 191.589 341.713 191.934C342.858 192.278 342.723 193.027 342.486 194.062C342.25 195.095 341.268 196.387 340.604 196.249C339.94 196.112 339.804 194.595 340.076 193.562Z" fill="white"/>
<path d="M387.525 201.704C387.761 200.671 388.008 199.74 389.163 200.085C390.317 200.429 390.163 201.17 389.926 202.203C389.69 203.238 388.708 204.538 388.044 204.401C387.38 204.263 387.28 202.738 387.525 201.704Z" fill="white"/>
<path d="M350.324 220.165C350.588 219.14 350.851 218.21 351.998 218.581C353.143 218.951 352.979 219.683 352.725 220.708C352.47 221.734 351.46 223.018 350.797 222.87C350.133 222.724 350.07 221.2 350.324 220.165Z" fill="white"/>
<path d="M402.965 194.391C403.22 193.366 403.493 192.435 404.629 192.805C405.767 193.176 405.622 193.908 405.358 194.934C405.093 195.959 404.093 197.242 403.429 197.096C402.765 196.95 402.702 195.424 402.965 194.391Z" fill="white"/>
<path d="M344.021 183.361C344.021 182.302 344.067 181.345 345.267 181.457C346.468 181.569 346.495 182.318 346.486 183.378C346.477 184.438 345.804 185.902 345.122 185.894C344.44 185.885 344.013 184.42 344.021 183.361Z" fill="white"/>
<path d="M389.26 185.319C389.26 184.26 389.306 183.303 390.506 183.415C391.706 183.527 391.725 184.277 391.716 185.337C391.706 186.396 391.034 187.861 390.361 187.852C389.688 187.844 389.252 186.379 389.26 185.319Z" fill="white"/>
<path d="M421.525 187.291C421.525 186.231 421.525 185.275 422.771 185.387C424.017 185.499 423.998 186.248 423.989 187.308C423.981 188.368 423.308 189.824 422.625 189.824C421.944 189.824 421.516 188.316 421.525 187.291Z" fill="white"/>
<path d="M414.414 218.504C415.032 217.643 415.624 216.842 416.56 217.565C417.497 218.289 417.079 218.926 416.46 219.805C415.841 220.684 414.432 221.527 413.868 221.192C413.305 220.856 413.796 219.383 414.414 218.504Z" fill="white"/>
<path d="M260.409 222.405C260.31 223.266 260.183 224.129 259.046 223.887C257.91 223.646 257.946 223.026 258.045 222.164C258.146 221.302 258.954 220.114 259.574 220.183C260.192 220.252 260.51 221.518 260.409 222.405Z" fill="white"/>
<path d="M266.556 213.998C267.175 213.137 267.766 212.344 268.703 213.059C269.639 213.774 269.221 214.42 268.603 215.299C267.984 216.177 266.566 217.021 266.002 216.694C265.438 216.367 265.929 214.859 266.556 213.998Z" fill="white"/>
<path d="M428.09 203.265C427.763 204.273 427.435 205.186 426.271 204.755C425.107 204.325 425.361 203.592 425.689 202.585C426.017 201.576 427.107 200.353 427.753 200.543C428.399 200.732 428.417 202.257 428.09 203.265Z" fill="white"/>
<path d="M265.575 212.749C265.248 213.766 264.921 214.67 263.757 214.239C262.593 213.809 262.848 213.076 263.175 212.069C263.502 211.061 264.594 209.838 265.239 210.027C265.885 210.216 265.902 211.741 265.575 212.749Z" fill="white"/>
<path d="M420.297 219.873C421.407 219.744 422.416 219.649 422.461 220.795C422.507 221.941 421.716 222.053 420.643 222.191C419.57 222.328 417.915 221.881 417.834 221.242C417.752 220.605 419.188 220.028 420.297 219.873Z" fill="white"/>
<path d="M274.005 224.076C274.578 224.937 275.078 225.798 274.005 226.315C272.932 226.833 272.487 226.195 271.905 225.29C271.323 224.386 271.086 222.801 271.668 222.474C272.25 222.146 273.423 223.171 274.005 224.076Z" fill="white"/>
<path d="M251.335 211.567C251.917 212.472 252.417 213.291 251.335 213.816C250.253 214.342 249.808 213.687 249.234 212.782C248.661 211.878 248.416 210.301 248.998 209.965C249.58 209.629 250.763 210.664 251.335 211.567Z" fill="white"/>
<path d="M440.804 211.153C441.386 212.014 441.876 212.876 440.804 213.402C439.73 213.927 439.275 213.272 438.702 212.368C438.13 211.463 437.884 209.878 438.466 209.551C439.048 209.223 440.222 210.248 440.804 211.153Z" fill="white"/>
<path d="M262.511 218.098C261.601 217.469 260.81 216.874 261.601 216.021C262.393 215.169 263.065 215.591 263.956 216.22C264.848 216.848 265.712 218.218 265.311 218.735C264.911 219.252 263.42 218.726 262.511 218.098Z" fill="white"/>
<path d="M365.31 237.904C366.164 237.223 366.965 236.628 367.647 237.559C368.329 238.489 367.747 239.006 366.892 239.686C366.038 240.367 364.428 240.832 363.992 240.341C363.555 239.85 364.456 238.584 365.31 237.904Z" fill="white"/>
<path d="M334.72 229.71C335.739 230.132 336.657 230.571 336.075 231.545C335.494 232.519 334.757 232.269 333.729 231.847C332.702 231.424 331.556 230.261 331.829 229.676C332.102 229.09 333.693 229.288 334.72 229.71Z" fill="white"/>
<path d="M327.801 232.951C327.51 233.976 327.219 234.898 326.091 234.501C324.963 234.105 325.182 233.372 325.427 232.347C325.673 231.322 326.745 230.073 327.401 230.237C328.055 230.401 328.092 231.917 327.801 232.951Z" fill="white"/>
<path d="M289.79 181.958C290.699 182.561 291.517 183.138 290.699 184.008C289.881 184.878 289.253 184.473 288.335 183.87C287.416 183.267 286.516 181.914 286.916 181.38C287.317 180.846 288.88 181.354 289.79 181.958Z" fill="white"/>
<path d="M315.105 207.106C316.205 206.96 317.214 206.864 317.269 207.967C317.323 209.07 316.541 209.243 315.45 209.381C314.359 209.518 312.722 209.105 312.631 208.467C312.54 207.829 313.995 207.261 315.105 207.106Z" fill="white"/>
<path d="M330.383 237.656C331.292 238.233 332.147 238.784 331.401 239.68C330.655 240.576 329.965 240.179 329.028 239.602C328.091 239.025 327.209 237.698 327.536 237.156C327.864 236.613 329.446 237.069 330.383 237.656Z" fill="white"/>
<path d="M356.779 234.361C357.88 234.172 358.889 234.034 358.989 235.171C359.089 236.308 358.307 236.471 357.17 236.653C356.033 236.833 354.443 236.481 354.315 235.842C354.188 235.205 355.679 234.542 356.779 234.361Z" fill="white"/>
<path d="M303.975 235.182C304.457 236.13 304.885 237.008 303.748 237.413C302.611 237.818 302.238 237.146 301.756 236.199C301.275 235.251 301.193 233.614 301.802 233.373C302.411 233.132 303.484 234.226 303.975 235.182Z" fill="white"/>
<path d="M272.167 197.216C272.658 198.173 273.076 199.051 271.94 199.456C270.803 199.861 270.44 199.189 269.958 198.233C269.476 197.276 269.384 195.648 269.958 195.407C270.531 195.166 271.685 196.269 272.167 197.216Z" fill="white"/>
<path d="M269.421 200.825C270.331 200.223 271.195 199.697 271.786 200.687C272.376 201.678 271.74 202.135 270.822 202.738C269.903 203.341 268.257 203.66 267.876 203.134C267.494 202.609 268.503 201.42 269.421 200.825Z" fill="white"/>
<path d="M345.596 167.924C346.196 167.226 346.76 166.615 347.542 167.339C348.324 168.062 347.932 168.57 347.333 169.259C346.732 169.949 345.441 170.56 344.959 170.19C344.477 169.819 344.995 168.614 345.596 167.924Z" fill="white"/>
<path d="M335.984 168.899C336.557 169.614 337.057 170.277 336.13 170.837C335.203 171.397 334.775 170.898 334.202 170.191C333.63 169.484 333.293 168.141 333.802 167.788C334.311 167.434 335.412 168.193 335.984 168.899Z" fill="white"/>
<path d="M322.835 174.569C323.744 174.689 324.654 174.827 324.38 175.835C324.108 176.843 323.471 176.791 322.562 176.696C321.652 176.601 320.407 175.834 320.489 175.266C320.57 174.697 321.898 174.448 322.835 174.569Z" fill="white"/>
<path d="M324.191 171.223C324.782 170.526 325.346 169.914 326.137 170.638C326.928 171.361 326.519 171.87 325.918 172.559C325.319 173.249 324.027 173.86 323.554 173.489C323.082 173.119 323.59 171.913 324.191 171.223Z" fill="white"/>
<path d="M332.891 183.328C333.801 183.466 334.711 183.612 334.42 184.621C334.129 185.629 333.51 185.56 332.556 185.43C331.601 185.302 330.418 184.569 330.509 183.966C330.601 183.363 331.955 183.2 332.891 183.328Z" fill="white"/>
<path d="M328.682 176.437C328.682 175.576 328.728 174.715 329.81 174.827C330.892 174.939 330.928 175.559 330.928 176.455C330.928 177.35 330.31 178.583 329.691 178.583C329.073 178.583 328.682 177.334 328.682 176.437Z" fill="white"/>
<path d="M340.958 180.944C339.721 180.538 338.612 180.142 339.185 178.944C339.757 177.747 340.64 177.997 341.912 178.402C343.186 178.807 344.641 180.039 344.35 180.746C344.059 181.451 342.186 181.349 340.958 180.944Z" fill="white"/>
<path d="M383.714 175.514C382.486 175.109 381.377 174.713 381.941 173.515C382.505 172.318 383.405 172.568 384.669 172.973C385.933 173.377 387.397 174.609 387.106 175.315C386.815 176.022 384.951 175.918 383.714 175.514Z" fill="white"/>
<path d="M391.962 176.73C390.726 176.324 389.617 175.928 390.144 174.731C390.671 173.533 391.599 173.783 392.871 174.188C394.145 174.594 395.6 175.825 395.309 176.523C395.018 177.221 393.19 177.127 391.962 176.73Z" fill="white"/>
<path d="M380.824 207.52C380.733 208.743 380.615 209.855 379.232 209.64C377.85 209.424 377.886 208.555 377.977 207.331C378.068 206.108 378.95 204.462 379.732 204.514C380.514 204.565 380.914 206.297 380.824 207.52Z" fill="white"/>
<path d="M392.163 180.708C392.072 181.931 391.954 183.043 390.581 182.828C389.207 182.612 389.225 181.742 389.316 180.519C389.407 179.296 390.29 177.65 391.081 177.702C391.872 177.754 392.253 179.485 392.163 180.708Z" fill="white"/>
<path d="M279.024 187.429C279.515 188.376 279.933 189.255 278.815 189.668C277.696 190.082 277.314 189.419 276.815 188.471C276.315 187.523 276.224 185.886 276.815 185.645C277.405 185.404 278.523 186.481 279.024 187.429Z" fill="white"/>
<path d="M316.879 195.044C316.388 196.001 315.915 196.845 314.888 196.259C313.86 195.673 314.178 194.976 314.66 194.028C315.142 193.08 316.424 192.029 317.033 192.305C317.643 192.581 317.36 194.097 316.879 195.044Z" fill="white"/>
<path d="M329.281 197.63C329.281 198.681 329.281 199.646 328.035 199.534C326.789 199.422 326.817 198.672 326.817 197.612C326.817 196.553 327.49 195.097 328.172 195.097C328.854 195.097 329.281 196.545 329.281 197.63Z" fill="white"/>
<path d="M321.044 199.171C321.826 198.413 322.553 197.741 323.336 198.611C324.118 199.481 323.59 200.032 322.808 200.791C322.026 201.549 320.48 202.169 319.998 201.722C319.516 201.273 320.271 199.93 321.044 199.171Z" fill="white"/>
<path d="M324.572 211.929C323.835 211.136 323.19 210.395 324.163 209.724C325.135 209.051 325.681 209.594 326.417 210.387C327.155 211.18 327.691 212.695 327.182 213.118C326.672 213.54 325.318 212.721 324.572 211.929Z" fill="white"/>
<path d="M305.386 201.85C305.24 200.799 305.14 199.844 306.34 199.8C307.541 199.758 307.676 200.489 307.822 201.524C307.967 202.557 307.522 204.107 306.849 204.193C306.177 204.279 305.531 202.893 305.386 201.85Z" fill="white"/>
<path d="M307.868 215.383C307.04 214.677 306.312 214.004 307.204 213.237C308.095 212.471 308.695 212.953 309.523 213.66C310.35 214.366 311.05 215.822 310.595 216.296C310.141 216.77 308.695 216.098 307.868 215.383Z" fill="white"/>
<path d="M312.331 223.922C312.104 222.88 311.931 221.932 313.132 221.812C314.332 221.691 314.514 222.414 314.741 223.449C314.969 224.482 314.632 226.033 313.959 226.179C313.286 226.326 312.523 224.957 312.331 223.922Z" fill="white"/>
<path d="M336.167 218.667C336.975 217.943 337.74 217.306 338.476 218.201C339.212 219.097 338.666 219.64 337.848 220.363C337.03 221.088 335.457 221.639 334.993 221.174C334.529 220.708 335.347 219.39 336.167 218.667Z" fill="white"/>
<path d="M321.261 229.572C320.816 230.545 320.352 231.407 319.325 230.864C318.297 230.321 318.561 229.606 319.007 228.641C319.452 227.676 320.679 226.583 321.307 226.833C321.934 227.083 321.707 228.641 321.261 229.572Z" fill="white"/>
<path d="M291.537 216.229C290.628 216.781 289.719 217.263 289.173 216.229C288.628 215.196 289.301 214.791 290.246 214.239C291.192 213.688 292.865 213.446 293.22 213.998C293.574 214.549 292.519 215.721 291.537 216.229Z" fill="white"/>
<path d="M302.358 222.346C301.53 221.631 300.803 220.958 301.693 220.192C302.585 219.425 303.186 219.907 304.013 220.623C304.84 221.338 305.54 222.785 305.077 223.259C304.613 223.733 303.186 223.052 302.358 222.346Z" fill="white"/>
<path d="M307.977 232.736C306.949 233.158 306.013 233.511 305.631 232.425C305.249 231.34 305.976 231.012 306.995 230.599C308.013 230.185 309.723 230.168 309.977 230.754C310.232 231.34 308.95 232.313 307.977 232.736Z" fill="white"/>
<path d="M274.421 234.829C273.339 234.562 272.367 234.296 272.767 233.219C273.166 232.142 273.958 232.306 275.03 232.572C276.104 232.839 277.449 233.804 277.277 234.433C277.104 235.062 275.504 235.097 274.421 234.829Z" fill="white"/>
<path d="M293.492 232.32C294.501 231.88 295.437 231.501 295.838 232.578C296.238 233.655 295.529 234 294.51 234.439C293.492 234.878 291.782 234.921 291.536 234.335C291.291 233.75 292.518 232.759 293.492 232.32Z" fill="white"/>
<path d="M269.485 229.806C268.639 229.109 267.902 228.454 268.766 227.669C269.63 226.886 270.257 227.351 271.103 228.048C271.949 228.747 272.676 230.176 272.222 230.633C271.767 231.089 270.322 230.504 269.485 229.806Z" fill="white"/>
<path d="M265.821 228.78C265.003 228.065 264.275 227.402 265.157 226.626C266.039 225.851 266.658 226.342 267.485 227.058C268.312 227.772 269.003 229.219 268.549 229.693C268.094 230.167 266.648 229.504 265.821 228.78Z" fill="white"/>
<path d="M293.955 220.665C293.472 219.708 293.046 218.83 294.191 218.434C295.337 218.038 295.692 218.701 296.173 219.648C296.656 220.596 296.738 222.233 296.119 222.474C295.501 222.715 294.446 221.612 293.955 220.665Z" fill="white"/>
<path d="M290.827 227.515C290.345 226.559 289.918 225.68 291.063 225.283C292.209 224.887 292.563 225.551 293.046 226.498C293.528 227.446 293.609 229.083 292.991 229.324C292.373 229.566 291.318 228.463 290.827 227.515Z" fill="white"/>
<path d="M294.246 204.753C294.091 203.702 293.991 202.755 295.155 202.703C296.319 202.651 296.501 203.401 296.646 204.426C296.791 205.451 296.346 207.011 295.665 207.097C294.982 207.183 294.391 205.804 294.246 204.753Z" fill="white"/>
<path d="M304.385 170.062C305.14 169.286 305.857 168.606 306.658 169.459C307.458 170.312 306.94 170.88 306.185 171.655C305.431 172.431 303.885 173.068 303.384 172.629C302.884 172.19 303.621 170.803 304.385 170.062Z" fill="white"/>
<path d="M300.52 212.127C301.275 211.352 301.993 210.671 302.793 211.524C303.594 212.377 303.075 212.946 302.32 213.721C301.566 214.496 300.02 215.134 299.52 214.704C299.02 214.272 299.792 212.902 300.52 212.127Z" fill="white"/>
<path d="M368.129 232.596C368.066 233.458 367.984 234.276 366.984 234.121C365.983 233.966 366.01 233.346 366.075 232.458C366.138 231.571 366.784 230.391 367.347 230.425C367.911 230.46 368.193 231.709 368.129 232.596Z" fill="white"/>
<path d="M342.086 185.284C341.731 186.215 341.367 187.05 340.349 186.594C339.33 186.137 339.558 185.466 339.921 184.535C340.285 183.604 341.359 182.519 341.958 182.725C342.559 182.933 342.449 184.354 342.086 185.284Z" fill="white"/>
<path d="M434.245 192.005C433.691 191.143 433.2 190.394 434.201 189.902C435.2 189.412 435.628 189.998 436.192 190.833C436.755 191.668 437.02 193.142 436.483 193.418C435.946 193.693 434.81 192.84 434.245 192.005Z" fill="white"/>
<path d="M309.25 185.033C308.213 184.896 307.276 184.74 307.54 183.698C307.803 182.656 308.54 182.733 309.577 182.836C310.614 182.94 311.959 183.698 311.869 184.335C311.778 184.972 310.286 185.171 309.25 185.033Z" fill="white"/>
<path d="M301.812 192.21C301.011 192.839 300.257 193.391 299.62 192.512C298.984 191.633 299.538 191.159 300.338 190.522C301.139 189.885 302.657 189.463 303.066 189.928C303.476 190.393 302.621 191.599 301.812 192.21Z" fill="white"/>
<path d="M369.119 204.238C368.128 204.746 367.2 205.169 366.646 203.962C366.091 202.756 366.783 202.368 367.782 201.869C368.782 201.369 370.511 201.3 370.893 201.955C371.274 202.61 370.119 203.738 369.119 204.238Z" fill="white"/>
<path d="M370.783 186.93C370.192 186.025 369.683 185.206 370.92 184.577C372.156 183.949 372.611 184.577 373.202 185.516C373.793 186.455 373.975 188.101 373.302 188.455C372.629 188.808 371.384 187.843 370.783 186.93Z" fill="white"/>
<path d="M377.85 189.428C378.886 189.867 379.805 190.29 379.141 191.453C378.477 192.616 377.722 192.314 376.686 191.883C375.649 191.453 374.54 190.16 374.867 189.506C375.195 188.851 376.822 189.014 377.85 189.428Z" fill="white"/>
<path d="M397.727 294.933C397.923 294.933 398.081 294.782 398.081 294.597C398.081 294.411 397.923 294.261 397.727 294.261C397.531 294.261 397.372 294.411 397.372 294.597C397.372 294.782 397.531 294.933 397.727 294.933Z" fill="black"/>
<path d="M346.932 284.476C347.089 284.476 347.215 284.387 347.215 284.278C347.215 284.168 347.089 284.08 346.932 284.08C346.777 284.08 346.651 284.168 346.651 284.278C346.651 284.387 346.777 284.476 346.932 284.476Z" fill="black"/>
<path d="M304.12 289.04C304.352 289.04 304.539 288.863 304.539 288.644C304.539 288.425 304.352 288.248 304.12 288.248C303.89 288.248 303.702 288.425 303.702 288.644C303.702 288.863 303.89 289.04 304.12 289.04Z" fill="black"/>
<path d="M379.513 291.384C379.745 291.384 379.932 291.207 379.932 290.987C379.932 290.769 379.745 290.591 379.513 290.591C379.283 290.591 379.095 290.769 379.095 290.987C379.095 291.207 379.283 291.384 379.513 291.384Z" fill="black"/>
<path d="M313.669 290.927C314.016 290.927 314.297 290.776 314.297 290.591C314.297 290.405 314.016 290.256 313.669 290.256C313.322 290.256 313.042 290.405 313.042 290.591C313.042 290.776 313.322 290.927 313.669 290.927Z" fill="black"/>
<path d="M414.278 283.726C414.51 283.726 414.696 283.549 414.696 283.33C414.696 283.111 414.51 282.933 414.278 282.933C414.047 282.933 413.86 283.111 413.86 283.33C413.86 283.549 414.047 283.726 414.278 283.726Z" fill="black"/>
<path d="M447.294 273.654C447.606 273.654 447.859 273.415 447.859 273.12C447.859 272.825 447.606 272.586 447.294 272.586C446.983 272.586 446.731 272.825 446.731 273.12C446.731 273.415 446.983 273.654 447.294 273.654Z" fill="black"/>
<path d="M338.949 285.329C339.26 285.329 339.512 285.089 339.512 284.794C339.512 284.5 339.26 284.26 338.949 284.26C338.637 284.26 338.385 284.5 338.385 284.794C338.385 285.089 338.637 285.329 338.949 285.329Z" fill="black"/>
<path d="M422.106 293.486C422.377 293.486 422.597 293.277 422.597 293.021C422.597 292.764 422.377 292.555 422.106 292.555C421.834 292.555 421.615 292.764 421.615 293.021C421.615 293.277 421.834 293.486 422.106 293.486Z" fill="black"/>
<path d="M321.045 298.129C321.275 298.129 321.463 297.952 321.463 297.732C321.463 297.514 321.275 297.336 321.045 297.336C320.813 297.336 320.626 297.514 320.626 297.732C320.626 297.952 320.813 298.129 321.045 298.129Z" fill="black"/>
<path d="M452.851 280.279C453.082 280.279 453.268 280.102 453.268 279.882C453.268 279.664 453.082 279.486 452.851 279.486C452.619 279.486 452.433 279.664 452.433 279.882C452.433 280.102 452.619 280.279 452.851 280.279Z" fill="black"/>
<path d="M290.672 294.788C290.903 294.788 291.09 294.61 291.09 294.392C291.09 294.172 290.903 293.995 290.672 293.995C290.44 293.995 290.254 294.172 290.254 294.392C290.254 294.61 290.44 294.788 290.672 294.788Z" fill="black"/>
<path d="M447.896 287.586C448.126 287.586 448.314 287.408 448.314 287.19C448.314 286.971 448.126 286.793 447.896 286.793C447.664 286.793 447.477 286.971 447.477 287.19C447.477 287.408 447.664 287.586 447.896 287.586Z" fill="black"/>
<path d="M248.571 286.611C248.802 286.611 248.989 286.435 248.989 286.216C248.989 285.996 248.802 285.82 248.571 285.82C248.34 285.82 248.152 285.996 248.152 286.216C248.152 286.435 248.34 286.611 248.571 286.611Z" fill="black"/>
<path d="M253.69 281.21C253.886 281.21 254.045 281.059 254.045 280.874C254.045 280.688 253.886 280.538 253.69 280.538C253.495 280.538 253.336 280.688 253.336 280.874C253.336 281.059 253.495 281.21 253.69 281.21Z" fill="black"/>
<path d="M337.358 299.868C337.664 299.868 337.913 299.633 337.913 299.343C337.913 299.053 337.664 298.817 337.358 298.817C337.051 298.817 336.803 299.053 336.803 299.343C336.803 299.633 337.051 299.868 337.358 299.868Z" fill="black"/>
<path d="M369.238 300.136C369.7 300.136 370.074 299.78 370.074 299.343C370.074 298.905 369.7 298.55 369.238 298.55C368.777 298.55 368.402 298.905 368.402 299.343C368.402 299.78 368.777 300.136 369.238 300.136Z" fill="black"/>
<path d="M248.051 272.94C248.438 272.94 248.751 272.643 248.751 272.277C248.751 271.911 248.438 271.614 248.051 271.614C247.664 271.614 247.351 271.911 247.351 272.277C247.351 272.643 247.664 272.94 248.051 272.94Z" fill="black"/>
<path d="M303.775 298.413C304.312 298.413 304.748 298.001 304.748 297.492C304.748 296.983 304.312 296.57 303.775 296.57C303.237 296.57 302.802 296.983 302.802 297.492C302.802 298.001 303.237 298.413 303.775 298.413Z" fill="black"/>
<path d="M437.538 269.184C437.925 269.184 438.238 268.887 438.238 268.521C438.238 268.155 437.925 267.858 437.538 267.858C437.151 267.858 436.838 268.155 436.838 268.521C436.838 268.887 437.151 269.184 437.538 269.184Z" fill="black"/>
<path d="M256.072 294.951C256.378 294.951 256.627 294.716 256.627 294.425C256.627 294.135 256.378 293.9 256.072 293.9C255.766 293.9 255.517 294.135 255.517 294.425C255.517 294.716 255.766 294.951 256.072 294.951Z" fill="black"/>
<path d="M261.847 289.551C262.374 289.551 262.802 289.146 262.802 288.647C262.802 288.147 262.374 287.742 261.847 287.742C261.319 287.742 260.892 288.147 260.892 288.647C260.892 289.146 261.319 289.551 261.847 289.551Z" fill="black"/>
<path d="M358.9 289.551C359.428 289.551 359.854 289.146 359.854 288.647C359.854 288.147 359.428 287.742 358.9 287.742C358.373 287.742 357.945 288.147 357.945 288.647C357.945 289.146 358.373 289.551 358.9 289.551Z" fill="black"/>
<path d="M432.844 287.12C433.371 287.12 433.799 286.716 433.799 286.217C433.799 285.717 433.371 285.312 432.844 285.312C432.317 285.312 431.89 285.717 431.89 286.217C431.89 286.716 432.317 287.12 432.844 287.12Z" fill="black"/>
<path d="M437.537 297.018C438.275 297.018 438.874 296.451 438.874 295.752C438.874 295.052 438.275 294.485 437.537 294.485C436.799 294.485 436.201 295.052 436.201 295.752C436.201 296.451 436.799 297.018 437.537 297.018Z" fill="black"/>
<path d="M173.333 320.002C173.506 320.924 173.871 321.804 174.408 322.589C174.946 323.375 175.643 324.051 176.46 324.576C180.034 326.869 187.008 330.461 195.629 330.461C202.818 330.323 209.833 328.341 215.925 324.723C216.874 324.174 217.68 323.43 218.287 322.548C218.895 321.666 219.287 320.667 219.436 319.623L223.773 276.937H167.485L173.333 320.002Z" fill="#FFEDB3"/>
<path d="M195.629 285.242C211.173 285.242 223.773 281.523 223.773 276.937C223.773 272.351 211.173 268.632 195.629 268.632C180.086 268.632 167.485 272.351 167.485 276.937C167.485 281.523 180.086 285.242 195.629 285.242Z" fill="#ED5E3B" stroke="#FFC501" stroke-width="3.72488" stroke-miterlimit="10"/>
<path d="M170.395 278.323L167.403 275.781C166.751 275.226 166.247 274.531 165.935 273.755C165.622 272.979 165.51 272.144 165.608 271.319C165.704 270.492 166.008 269.701 166.492 269.009C166.978 268.317 167.63 267.744 168.395 267.339C171.905 265.461 176.979 264.185 183.444 266.426C195.402 270.578 204.15 268.372 209.142 266.029C210.78 265.262 212.614 264.953 214.43 265.138C216.247 265.322 217.97 265.993 219.4 267.071L222.837 269.656C223.458 270.123 223.948 270.729 224.261 271.42C224.574 272.111 224.702 272.865 224.632 273.615C224.561 274.363 224.295 275.085 223.858 275.712C223.421 276.34 222.826 276.855 222.127 277.211C219.962 278.329 217.663 279.197 215.28 279.795C207.45 281.785 170.395 278.323 170.395 278.323Z" fill="#ED5E3B"/>
</svg>
