<svg width="480" height="380" viewBox="0 0 480 380" fill="none" xmlns="http://www.w3.org/2000/svg">
<path d="M18.3759 82.298C18.3759 82.298 24.0231 18.4151 89.7903 0L165.185 1.0359C165.185 1.0359 226.527 17.7138 230.742 80.0907L18.3678 82.29H18.3759V82.298Z" fill="#93D0AC"/>
<path d="M234.456 102.904L229.779 134.642L220.265 199.186L216.349 225.697L207.935 282.799L202.32 320.833L195.727 365.567C195.484 367.225 194.408 368.739 192.733 369.687C186.754 373.082 168.866 379.879 121.432 379.998C79.548 380.102 57.7604 373.687 50.3981 370.954C48.5939 370.285 47.3723 368.858 47.1943 367.233L44.3303 343.614L37.5747 288.019L30.1962 227.203L26.2643 194.828L17.6075 123.534L15.4231 105.573L234.456 102.904Z" fill="#93D0AC"/>
<path d="M7.4865 85.3018L5.59333 96.0353C5.3668 97.5413 4.75193 98.9677 3.81344 100.179L0.0999211 104.976C-0.142792 105.287 0.0837402 105.741 0.488262 105.733L249.245 102.904C249.52 102.904 249.69 102.601 249.545 102.37L247.74 99.5653C246.883 98.2266 246.373 96.6967 246.26 95.111L244.407 83.0547C244.261 80.8953 242.441 79.206 240.24 79.198L11.7744 81.6762C9.62237 81.6602 7.79393 83.2061 7.47841 85.3018H7.4865Z" fill="#05AA70"/>
<path d="M50.6736 154.117L47.6882 167.879C47.6478 168.078 47.8905 168.197 48.028 168.054L52.049 163.759C52.146 163.655 52.324 163.687 52.3807 163.823L57.51 176.341C57.5909 176.532 57.866 176.492 57.8903 176.293C58.3352 172.978 59.9938 159.328 57.8336 153.161" fill="#0C513F"/>
<path d="M60.827 152.834C60.827 152.834 71.1181 157.089 76.2232 163.663C76.5063 164.03 76.296 164.556 75.8348 164.627C72.5906 165.113 62.0892 165.783 58.4565 154.914" fill="#0C513F"/>
<path d="M60.2118 151.638L69.7019 171.344C69.9123 171.775 69.5806 172.269 69.1032 172.253C65.7862 172.141 55.4789 170.38 53.0437 152.953" fill="#0C513F"/>
<path d="M34.7597 148.683C34.7597 148.683 24.2421 115.797 44.5086 109.398C44.5086 109.398 57.0246 104.848 65.8512 118.897C74.6779 132.945 82.7603 145.886 65.3254 153.958C40.6171 165.408 34.7597 148.675 34.7597 148.675V148.683Z" fill="#ED5E3B"/>
<path d="M39.9752 149.888C40.775 149.88 41.413 148.899 41.4002 147.698C41.3874 146.496 40.7287 145.529 39.9289 145.537C39.1292 145.546 38.4912 146.526 38.504 147.728C38.5167 148.929 39.1754 149.896 39.9752 149.888Z" fill="#0C513F"/>
<path d="M56.843 146.869C58.0628 146.857 59.0444 146.172 59.0356 145.341C59.0267 144.509 58.0307 143.845 56.811 143.857C55.5912 143.87 54.6096 144.554 54.6184 145.386C54.6273 146.218 55.6232 146.882 56.843 146.869Z" fill="#0C513F"/>
<path d="M43.6315 126.209C44.4447 126.2 45.093 125.17 45.0795 123.907C45.0661 122.644 44.396 121.627 43.5829 121.635C42.7697 121.644 42.1214 122.674 42.1348 123.937C42.1482 125.2 42.8183 126.217 43.6315 126.209Z" fill="#FFEDB3"/>
<path d="M60.993 130.102C62.168 130.09 63.1134 129.406 63.1046 128.574C63.0958 127.742 62.136 127.078 60.9609 127.09C59.7858 127.102 58.8404 127.786 58.8493 128.618C58.8581 129.449 59.8179 130.114 60.993 130.102Z" fill="#FFEDB3"/>
<path d="M35.1191 133.707C35.6821 133.701 36.1277 132.683 36.1144 131.434C36.1011 130.184 35.6339 129.175 35.071 129.181C34.508 129.187 34.0624 130.205 34.0757 131.455C34.089 132.704 34.5561 133.713 35.1191 133.707Z" fill="#0C513F"/>
<path d="M54.2825 113.756C55.6899 113.742 56.8253 113.206 56.8184 112.559C56.8115 111.912 55.665 111.399 54.2576 111.414C52.8502 111.428 51.7148 111.965 51.7217 112.611C51.7286 113.258 52.8751 113.771 54.2825 113.756Z" fill="#FFEDB3"/>
<path d="M72.8994 145.867C73.6054 145.86 74.1673 144.88 74.1545 143.679C74.1417 142.477 73.5591 141.509 72.8532 141.517C72.1472 141.524 71.5853 142.504 71.5981 143.705C71.6109 144.906 72.1935 145.874 72.8994 145.867Z" fill="#FFEDB3"/>
<path d="M229.78 134.643L220.265 199.187L216.35 225.698L207.935 282.8L202.321 320.833L195.727 365.568C195.484 367.226 194.408 368.74 192.734 369.688C186.755 373.082 168.867 379.879 121.432 379.999C79.5482 380.103 57.7607 373.688 50.3984 370.955C48.5942 370.285 47.3725 368.859 47.1945 367.234L44.3305 343.615L37.575 288.019L30.1965 227.204L26.2646 194.828L17.6078 123.535C23.4491 122.563 34.7353 122.005 42.761 129.806C71.838 158.062 79.5078 135.4 107.97 135.105C137.265 134.802 141.06 154.676 186.269 136.627C203.478 129.758 217.951 131.75 229.78 134.643Z" fill="#FEF9E5"/>
<path d="M116.295 118.938L118.285 107.28C118.318 107.112 118.544 107.088 118.609 107.248L120.397 111.83C120.437 111.941 120.591 111.973 120.672 111.885L128.609 103.67C128.73 103.551 128.932 103.662 128.892 103.821C128.204 106.547 125.211 117.71 121.586 121.87" fill="#0C513F"/>
<path d="M123.827 123.033C123.827 123.033 133.204 122.842 139.256 119.264C139.596 119.065 139.596 118.587 139.256 118.396C136.877 117.025 128.884 113.304 122.63 120.682" fill="#0C513F"/>
<path d="M122.978 123.782L136.578 111.28C136.877 111.009 136.78 110.523 136.392 110.387C133.771 109.463 125.163 107.702 117.792 120.571" fill="#0C513F"/>
<path d="M102.169 118.34C102.169 118.34 83.626 140.819 97.4526 151.991C97.4526 151.991 105.802 159.354 117.104 151.067C128.407 142.78 138.779 135.138 127.703 123.52C111.999 107.049 102.169 118.332 102.169 118.332V118.34Z" fill="#ED5E3B"/>
<path d="M107.05 121.137C107.436 120.204 107.247 119.245 106.626 118.995C106.005 118.746 105.189 119.3 104.802 120.233C104.416 121.166 104.605 122.125 105.226 122.374C105.846 122.624 106.663 122.07 107.05 121.137Z" fill="#FFEDB3"/>
<path d="M120.086 128.352C120.355 127.705 119.804 126.871 118.857 126.49C117.909 126.109 116.924 126.326 116.655 126.973C116.387 127.621 116.937 128.455 117.885 128.836C118.832 129.217 119.818 129 120.086 128.352Z" fill="#FFEDB3"/>
<path d="M102.463 140.85C102.87 139.868 102.687 138.866 102.054 138.611C101.421 138.357 100.578 138.947 100.171 139.929C99.7644 140.911 99.9477 141.913 100.581 142.167C101.214 142.422 102.057 141.832 102.463 140.85Z" fill="#FFEDB3"/>
<path d="M118.01 142.704C118.279 142.056 117.755 141.233 116.841 140.865C115.926 140.498 114.968 140.725 114.699 141.373C114.431 142.021 114.954 142.844 115.869 143.211C116.783 143.579 117.742 143.351 118.01 142.704Z" fill="#FFEDB3"/>
<path d="M97.8306 132.239C98.2324 131.27 98.2026 130.341 97.7641 130.164C97.3256 129.988 96.6444 130.631 96.2426 131.601C95.8407 132.571 95.8705 133.5 96.309 133.676C96.7475 133.852 97.4288 133.209 97.8306 132.239Z" fill="#FFEDB3"/>
<path d="M108.068 153.285C108.275 152.784 107.555 152.02 106.459 151.579C105.362 151.139 104.305 151.188 104.098 151.689C103.89 152.19 104.61 152.954 105.707 153.394C106.803 153.835 107.86 153.786 108.068 153.285Z" fill="#FFEDB3"/>
<path d="M131.374 134.26C131.761 133.327 131.632 132.392 131.086 132.173C130.54 131.953 129.783 132.532 129.397 133.465C129.01 134.398 129.139 135.332 129.686 135.552C130.232 135.771 130.988 135.193 131.374 134.26Z" fill="#FFEDB3"/>
<path d="M170.8 138.452C170.88 145.727 163.364 150.978 157.717 151.034C150.533 151.106 146.196 146.89 146.124 139.607C146.043 132.332 152.588 125.87 159.78 125.79C166.973 125.71 170.727 131.169 170.808 138.452H170.8Z" fill="#993832"/>
<path d="M155.695 145.201C155.695 145.456 155.574 145.695 155.485 145.919C155.396 146.142 155.315 146.405 155.145 146.588C154.975 146.771 154.716 146.851 154.481 146.954C154.247 147.058 154.02 147.186 153.761 147.186C153.502 147.186 153.26 147.066 153.033 146.97C152.807 146.875 152.54 146.795 152.362 146.62C152.184 146.444 152.103 146.189 152.006 145.958C151.909 145.727 151.779 145.504 151.779 145.241C151.779 144.978 151.901 144.747 151.99 144.524C152.079 144.301 152.159 144.038 152.329 143.855C152.499 143.671 152.758 143.592 152.993 143.488C153.227 143.385 153.454 143.257 153.713 143.257C153.972 143.257 154.214 143.377 154.441 143.472C154.667 143.568 154.934 143.648 155.112 143.823C155.29 143.998 155.371 144.253 155.468 144.484C155.566 144.715 155.695 144.938 155.695 145.201Z" fill="#312423"/>
<path d="M66.4092 315.869C66.4739 322.268 64.3866 328.188 60.8106 332.954C56.8463 338.245 51.0454 342.117 44.3304 343.615L37.5748 288.02C37.6315 288.012 37.6881 288.012 37.7447 288.012C46.7575 287.916 54.8317 292.012 60.0905 298.458C63.982 303.215 66.3364 309.263 66.4092 315.869Z" fill="#FFC501"/>
<path d="M80.6348 341.541C95.2361 341.39 106.948 329.521 106.794 315.03C106.64 300.538 94.6782 288.913 80.0768 289.064C65.4754 289.214 53.7636 301.084 53.9177 315.575C54.0717 330.066 66.0334 341.692 80.6348 341.541Z" fill="#FFC501"/>
<path d="M207.935 282.8L202.32 320.833C199.044 320.188 196.082 318.459 193.744 315.973C190.443 312.49 188.356 307.526 188.299 301.996C188.275 299.829 188.566 297.741 189.125 295.797C191.301 288.155 197.539 282.609 204.958 282.529C205.969 282.521 206.964 282.609 207.935 282.8Z" fill="#FFC501"/>
<path d="M80.6322 307.279C80.6565 306.968 81.2148 307 81.239 307.319C81.5707 311.008 81.8701 314.674 89.5156 314.004C89.9767 313.964 89.9686 314.745 89.5236 314.881C87.0156 315.622 85.3975 317.184 85.8182 324.204C85.8182 324.315 85.6726 324.347 85.6402 324.244C84.7988 321.702 82.3798 313.478 76.9673 323.622C76.8945 323.758 76.6841 323.638 76.7407 323.495C77.5983 321.439 78.7876 317.016 73.5936 316.076C73.2861 316.02 73.2538 315.614 73.5531 315.518C75.8346 314.793 80.1387 314.004 80.6403 307.279H80.6322Z" fill="#141414"/>
<path d="M172.609 333.78C184.73 333.655 194.447 323.219 194.311 310.47C194.176 297.722 184.239 287.488 172.118 287.613C159.996 287.738 150.28 298.175 150.415 310.923C150.551 323.672 160.487 333.905 172.609 333.78Z" fill="#FFC501"/>
<path d="M167.208 305.845C166.949 305.702 166.747 306.14 166.99 306.308C168.826 307.567 171.342 309.415 171.35 310.164C171.359 310.969 168.705 313.455 167.022 314.937C166.804 315.137 167.03 315.479 167.305 315.36C170.088 314.14 174.918 308.897 180.428 311.304C180.663 311.407 180.743 310.953 180.525 310.826C179.109 310.045 176.706 308.069 179.32 304.467C179.481 304.244 179.222 303.949 178.98 304.092C176.722 305.423 174.368 309.853 167.208 305.845Z" fill="#141414"/>
<path d="M132.786 349.465C147.946 349.308 160.103 336.696 159.939 321.293C159.776 305.891 147.353 293.532 132.193 293.689C117.034 293.845 104.877 306.458 105.041 321.86C105.204 337.262 117.627 349.621 132.786 349.465Z" fill="#FFC501"/>
<path d="M131.991 310.554C130.737 312.124 129.79 313.861 128.132 319.558C128.099 319.678 128.043 319.789 127.921 319.829L122.598 321.391C122.306 321.479 122.315 321.893 122.606 321.965L127.695 322.244C127.865 322.283 128.132 323.487 128.075 323.646L125.947 330.555C125.85 330.873 126.271 331.088 126.473 330.826C127.962 328.889 128.746 324.897 131.829 324.483C134.28 324.156 135.89 328.491 137.476 329.742C137.727 329.941 138.075 329.67 137.937 329.383C136.853 327.152 133.73 322.188 139.936 317.231C140.186 317.032 139.863 316.634 139.571 316.777C136.716 318.172 130.769 321.463 132.517 310.809C132.565 310.506 132.177 310.323 131.983 310.57V310.554H131.991Z" fill="#141414"/>
<path d="M43.2057 211.044C43.2299 213.06 42.8821 214.989 42.2186 216.782C40.3093 221.993 35.7867 225.985 30.1962 227.204L26.2643 194.829C26.2643 194.829 26.3452 194.821 26.3856 194.821C30.6898 194.773 34.6298 196.343 37.6071 198.948C40.997 201.921 43.1571 206.231 43.2057 211.044Z" fill="#FFEDB3"/>
<path d="M53.2698 220.91C62.461 220.91 69.9119 213.571 69.9119 204.519C69.9119 195.466 62.461 188.128 53.2698 188.128C44.0787 188.128 36.6278 195.466 36.6278 204.519C36.6278 213.571 44.0787 220.91 53.2698 220.91Z" fill="#FFEDB3"/>
<path d="M82.2667 225.953C91.4578 225.953 98.9087 218.615 98.9087 209.562C98.9087 200.51 91.4578 193.171 82.2667 193.171C73.0755 193.171 65.6246 200.51 65.6246 209.562C65.6246 218.615 73.0755 225.953 82.2667 225.953Z" fill="#FFEDB3"/>
<path d="M114.758 224.2C125.133 224.2 133.544 215.916 133.544 205.698C133.544 195.479 125.133 187.195 114.758 187.195C104.382 187.195 95.9716 195.479 95.9716 205.698C95.9716 215.916 104.382 224.2 114.758 224.2Z" fill="#FFEDB3"/>
<path d="M143.625 226.424C151.627 226.424 158.114 220.034 158.114 212.152C158.114 204.27 151.627 197.881 143.625 197.881C135.622 197.881 129.135 204.27 129.135 212.152C129.135 220.034 135.622 226.424 143.625 226.424Z" fill="#FFEDB3"/>
<path d="M166.326 217.993C174.329 217.993 180.816 211.604 180.816 203.722C180.816 195.84 174.329 189.45 166.326 189.45C158.323 189.45 151.836 195.84 151.836 203.722C151.836 211.604 158.323 217.993 166.326 217.993Z" fill="#FFEDB3"/>
<path d="M194.611 221.85C205.938 221.85 215.12 212.806 215.12 201.65C215.12 190.494 205.938 181.45 194.611 181.45C183.284 181.45 174.101 190.494 174.101 201.65C174.101 212.806 183.284 221.85 194.611 221.85Z" fill="#FFEDB3"/>
<path d="M220.265 199.188L216.349 225.699C211.907 224.982 208.194 222.129 206.301 218.248C205.467 216.543 204.998 214.631 204.974 212.615C204.909 206.383 209.165 201.1 214.998 199.546C216.09 199.251 217.247 199.084 218.436 199.076C219.059 199.068 219.674 199.108 220.265 199.188Z" fill="#FFEDB3"/>
<path d="M190.047 376.349L467.841 371.456C472.25 371.377 475.753 367.767 475.632 363.424L475.146 346.555C475.09 344.682 473.52 343.2 471.619 343.232L185.322 347.631C183.405 347.663 181.868 349.216 181.9 351.105L182.191 368.731C182.264 372.954 185.759 376.349 190.047 376.349Z" fill="#EEB36A"/>
<path d="M192.378 348.587L462.72 344.285C469.912 344.173 475.64 338.34 475.527 331.256L475.301 317.606L178.794 322.332L179.15 336.093C179.336 343.129 185.234 348.699 192.378 348.587Z" fill="#FFB3CE"/>
<path d="M293.087 319.008C293.087 319.008 302.367 341.041 314.794 338.22C314.794 338.22 326.209 353.161 338.288 339.75C338.288 339.75 361.799 344.228 365.011 323.423L368.223 302.617" fill="#3D7465"/>
<path d="M184.578 314.004C184.578 314.004 160.436 332.929 201.552 336.977C201.552 336.977 214.108 349.949 226.098 342.276C226.098 342.276 254.763 347.495 255.523 331.431" fill="#ED5E3B"/>
<path d="M430.495 315.677C430.495 315.677 451.02 338.363 409.808 335.479C409.808 335.479 395.204 346.164 384.703 336.594C384.703 336.594 354.906 339.535 356.241 317.398" fill="#ED5E3B"/>
<path d="M472.873 293.764C472.873 293.764 490.85 311.565 469.702 328.323C457.509 337.981 430.859 331.845 432.874 315.876" fill="#ED5E3B"/>
<path d="M341.071 318.928L261.122 357.471C256.704 359.232 251.656 357.256 249.682 352.977L223.186 322.777C223.186 322.777 199.772 318.92 216.123 317.629L441.255 313.693C441.255 313.693 443.893 318.506 434.201 318.291L411.119 347.208C409.169 349.615 405.455 349.623 403.505 347.216L380.294 318.649L341.08 318.928H341.071Z" fill="#FFC501"/>
<path d="M190.687 321.104L463.392 314.769C469.095 314.633 473.586 309.948 473.392 304.33L472.502 280.138L179.878 287.867L180.922 312.083C181.132 317.215 185.477 321.231 190.695 321.112H190.687V321.104Z" fill="#EEB36A"/>
<path d="M183.907 281.381L365.635 210.916C371.937 208.47 379.073 209.33 384.591 213.211L471.304 274.122C475.001 281.979 469.298 290.983 460.512 291.174L188.575 296.975C179.854 297.158 176.48 285.883 183.899 281.373H183.907V281.381Z" fill="#FFEDB3"/>
<path d="M345.303 270.616C346.291 270.616 347.091 270.141 347.091 269.556C347.091 268.971 346.291 268.496 345.303 268.496C344.316 268.496 343.515 268.971 343.515 269.556C343.515 270.141 344.316 270.616 345.303 270.616Z" fill="#FFF8E6"/>
<path d="M437.42 282.298C438.408 282.298 439.208 281.823 439.208 281.238C439.208 280.653 438.408 280.178 437.42 280.178C436.433 280.178 435.632 280.653 435.632 281.238C435.632 281.823 436.433 282.298 437.42 282.298Z" fill="#E0C886"/>
<path d="M377.495 265.819C378.482 265.819 379.283 265.344 379.283 264.759C379.283 264.174 378.482 263.699 377.495 263.699C376.508 263.699 375.707 264.174 375.707 264.759C375.707 265.344 376.508 265.819 377.495 265.819Z" fill="#E0C886"/>
<path d="M403.716 283.454C404.704 283.454 405.504 282.979 405.504 282.394C405.504 281.808 404.704 281.334 403.716 281.334C402.729 281.334 401.928 281.808 401.928 282.394C401.928 282.979 402.729 283.454 403.716 283.454Z" fill="#FFF8E6"/>
<path d="M406.426 265.915C407.414 265.915 408.214 265.44 408.214 264.855C408.214 264.269 407.414 263.795 406.426 263.795C405.439 263.795 404.638 264.269 404.638 264.855C404.638 265.44 405.439 265.915 406.426 265.915Z" fill="#E0C886"/>
<path d="M430.228 263.707C431.216 263.707 432.016 263.233 432.016 262.648C432.016 262.062 431.216 261.588 430.228 261.588C429.241 261.588 428.44 262.062 428.44 262.648C428.44 263.233 429.241 263.707 430.228 263.707Z" fill="#FFF8E6"/>
<path d="M368.676 280.967C369.664 280.967 370.464 280.493 370.464 279.907C370.464 279.322 369.664 278.847 368.676 278.847C367.689 278.847 366.888 279.322 366.888 279.907C366.888 280.493 367.689 280.967 368.676 280.967Z" fill="#E0C886"/>
<path d="M308.192 257.763C309.18 257.763 309.98 257.288 309.98 256.703C309.98 256.118 309.18 255.643 308.192 255.643C307.205 255.643 306.404 256.118 306.404 256.703C306.404 257.288 307.205 257.763 308.192 257.763Z" fill="#FFF8E6"/>
<path d="M330.465 259.723C331.453 259.723 332.253 259.249 332.253 258.663C332.253 258.078 331.453 257.604 330.465 257.604C329.478 257.604 328.677 258.078 328.677 258.663C328.677 259.249 329.478 259.723 330.465 259.723Z" fill="#E0C886"/>
<path d="M407.761 241.746C408.749 241.746 409.549 241.272 409.549 240.686C409.549 240.101 408.749 239.626 407.761 239.626C406.774 239.626 405.974 240.101 405.974 240.686C405.974 241.272 406.774 241.746 407.761 241.746Z" fill="#E0C886"/>
<path d="M336.759 238.917C337.747 238.917 338.547 238.443 338.547 237.858C338.547 237.272 337.747 236.798 336.759 236.798C335.772 236.798 334.971 237.272 334.971 237.858C334.971 238.443 335.772 238.917 336.759 238.917Z" fill="#FFF8E6"/>
<path d="M355.626 249.985C356.614 249.985 357.414 249.511 357.414 248.926C357.414 248.34 356.614 247.866 355.626 247.866C354.639 247.866 353.838 248.34 353.838 248.926C353.838 249.511 354.639 249.985 355.626 249.985Z" fill="#E0C886"/>
<path d="M355.634 219.618C356.622 219.618 357.422 219.143 357.422 218.558C357.422 217.973 356.622 217.498 355.634 217.498C354.647 217.498 353.846 217.973 353.846 218.558C353.846 219.143 354.647 219.618 355.634 219.618Z" fill="#E0C886"/>
<path d="M320.141 289.819C321.129 289.819 321.929 289.345 321.929 288.76C321.929 288.174 321.129 287.7 320.141 287.7C319.154 287.7 318.353 288.174 318.353 288.76C318.353 289.345 319.154 289.819 320.141 289.819Z" fill="#E0C886"/>
<path d="M303.046 277.867C304.034 277.867 304.834 277.392 304.834 276.807C304.834 276.222 304.034 275.747 303.046 275.747C302.059 275.747 301.258 276.222 301.258 276.807C301.258 277.392 302.059 277.867 303.046 277.867Z" fill="#E0C886"/>
<path d="M248.226 271.229C249.213 271.229 250.014 270.754 250.014 270.169C250.014 269.584 249.213 269.109 248.226 269.109C247.238 269.109 246.438 269.584 246.438 270.169C246.438 270.754 247.238 271.229 248.226 271.229Z" fill="#FFF8E6"/>
<path d="M238.347 289.644C239.335 289.644 240.135 289.17 240.135 288.584C240.135 287.999 239.335 287.524 238.347 287.524C237.36 287.524 236.559 287.999 236.559 288.584C236.559 289.17 237.36 289.644 238.347 289.644Z" fill="#FFF8E6"/>
<path d="M307.099 243.962C308.087 243.962 308.887 243.487 308.887 242.902C308.887 242.317 308.087 241.842 307.099 241.842C306.112 241.842 305.311 242.317 305.311 242.902C305.311 243.487 306.112 243.962 307.099 243.962Z" fill="#E0C886"/>
<path d="M267.546 257.508C268.533 257.508 269.334 257.033 269.334 256.448C269.334 255.863 268.533 255.388 267.546 255.388C266.558 255.388 265.758 255.863 265.758 256.448C265.758 257.033 266.558 257.508 267.546 257.508Z" fill="#E0C886"/>
<path d="M373.15 231.842C374.138 231.842 374.938 231.367 374.938 230.782C374.938 230.196 374.138 229.722 373.15 229.722C372.163 229.722 371.362 230.196 371.362 230.782C371.362 231.367 372.163 231.842 373.15 231.842Z" fill="#E0C886"/>
<path d="M280.143 288.665C281.13 288.665 281.931 288.19 281.931 287.605C281.931 287.02 281.13 286.545 280.143 286.545C279.155 286.545 278.355 287.02 278.355 287.605C278.355 288.19 279.155 288.665 280.143 288.665Z" fill="#E0C886"/>
<path d="M276.097 272.56C277.085 272.56 277.885 272.086 277.885 271.5C277.885 270.915 277.085 270.44 276.097 270.44C275.11 270.44 274.309 270.915 274.309 271.5C274.309 272.086 275.11 272.56 276.097 272.56Z" fill="#E0C886"/>
<path d="M206.56 287.74C207.547 287.74 208.348 287.266 208.348 286.681C208.348 286.095 207.547 285.621 206.56 285.621C205.572 285.621 204.772 286.095 204.772 286.681C204.772 287.266 205.572 287.74 206.56 287.74Z" fill="#E0C886"/>
</svg>
