<svg width="880" height="328" viewBox="0 0 880 328" fill="none" xmlns="http://www.w3.org/2000/svg">
<path d="M865.916 271.06C786 288.117 599.861 326.53 443.59 327.94C273.898 329.47 93.515 299.495 12.1852 278.849C-0.12852 275.73 -3.36272 261.132 3.65955 252.634C88.5203 273.71 257.955 309.623 424.957 307.164C666.77 303.624 795.278 259.023 875.441 241.456C884.263 251.144 879.872 268.091 865.916 271.06Z" fill="#0B513F"/>
<path d="M875.44 241.456C795.278 259.023 666.77 303.624 424.956 307.164C257.955 309.623 88.5202 273.71 3.65948 252.634C5.26175 250.684 7.408 249.064 10.1081 247.965C41.105 235.387 153.58 202.843 180.67 183.256C194.398 173.328 208.532 164.13 224.99 167.929C281.484 180.987 408.795 198.374 461.245 196.534C557.143 193.165 625.823 180.467 677.481 169.209C692.456 165.94 704.087 175.918 716.411 185.116C721.089 188.606 745.855 195.444 774.794 203.773H774.804C813.239 218.57 853.345 231.638 870.357 237.497C870.782 237.747 871.197 237.996 871.593 238.246C873.077 239.176 874.362 240.266 875.44 241.456Z" fill="#08664B"/>
<path d="M744.658 219.77C740.771 249.224 700.784 269.521 630.037 269.521C559.29 269.521 494.695 258.393 497.276 219.77C501.064 163.3 752.056 163.67 744.658 219.77Z" fill="#3B5850"/>
<path d="M742.927 207.492C739.485 244.885 701.783 262.272 634.547 262.272C567.311 262.272 497.78 256.183 498.641 210.102C499.64 156.321 527.027 93.5829 620.374 92.713C687.6 92.0831 747.853 153.932 742.927 207.492Z" fill="#FFEDB3"/>
<path d="M227.215 245.325C227.215 245.325 215.495 249.844 228.333 257.253C241.171 264.672 336.535 294.326 409.28 263.432C482.025 232.537 483.41 209.082 466.131 199.783C446.834 189.395 382.991 216.47 382.991 216.47L227.205 245.325H227.215Z" fill="#3B5850"/>
<path d="M402.752 245.325C402.752 256.333 363.457 268.631 314.984 268.631C266.51 268.631 227.215 256.323 227.215 245.325C227.215 234.327 266.51 225.399 314.984 225.399C363.457 225.399 402.752 234.317 402.752 245.325Z" fill="#EAEAEA"/>
<path d="M487.257 155.872C489.492 156.621 485.358 187.016 402.01 244.575L227.215 245.325C227.215 245.325 127.548 182.697 137.498 153.952L487.257 155.872Z" fill="#EAEAEA"/>
<path d="M210.945 100.372L150.643 135.435C146.568 137.805 143.037 141.074 140.505 145.084C113.889 187.246 257.826 198.914 306.211 199.474C472.085 201.393 487.771 173.118 492.212 139.804L440.86 100.782L210.945 100.382V100.372Z" fill="#FFEDB3"/>
<path d="M137.706 158.771C144.075 168.889 155.449 195.104 306.478 199.244C458.861 203.423 480.581 171.169 482.984 163.83C485.051 157.531 504.368 138.535 481.471 125.807C475.27 122.358 468.208 99.0819 462.511 94.8527C451.354 86.5742 453.807 69.8873 442.641 61.6088C433.067 54.5101 422.068 53.7502 415.016 44.092C408.499 35.1736 398.034 28.8448 387.61 25.3954C381.616 23.4158 361.331 36.6633 358.532 30.9444C356.999 27.815 357.543 23.4358 354.714 21.4361C353.062 20.2763 350.837 20.4163 348.997 19.5965C346.258 18.3867 344.883 15.3672 343.241 12.8377C337.198 3.54939 325.349 -0.509865 314.37 0.0500324C303.382 0.60993 295.114 -0.58985 288.843 2.12965C285.559 3.54939 275.916 13.6975 276.539 17.2569C277.014 20.0164 280.189 22.006 278.102 25.3754C277.429 26.4652 276.44 27.305 275.313 27.8949C260.269 35.7935 255.067 44.6319 243.614 57.2696C239.885 53.0403 235.889 48.8011 230.756 46.5315C225.623 44.2619 219.026 44.4419 215.03 48.4112C211.024 52.3805 211.469 60.439 216.583 62.7686C205.248 74.7564 189.374 72.4768 185.042 94.6327C184.033 99.7818 175.527 97.2523 169.177 103.851C166.289 107.68 168.436 113.049 169.761 117.669C172.253 126.397 160.86 130.166 161.344 139.245C158.496 138.805 155.529 139.155 152.858 140.244C152.858 140.244 134.076 146.813 137.716 158.771H137.706Z" fill="#FFC501"/>
<path d="M307.912 68.7775L304.144 86.1143L311.255 82.7349L314.598 65.818L307.912 68.7775Z" fill="#0C513F"/>
<path d="M456.488 147.873L452.729 165.22L459.84 161.83L463.183 144.913L456.488 147.873Z" fill="#02C27F"/>
<path d="M334.072 37.5431L332.816 45.1617L343.696 40.5025L344.952 33.7338L334.072 37.5431Z" fill="#02C27F"/>
<path d="M296.835 34.1637L289.308 44.3118L281.356 45.5816L287.636 35.0035L296.835 34.1637Z" fill="#0C513F"/>
<path d="M227.799 95.0626C226.543 95.0626 221.103 109.02 221.103 109.02L224.446 113.249L230.301 100.142L227.789 95.0626H227.799Z" fill="#02C27F"/>
<path d="M365.692 113.049C364.436 113.049 358.997 127.007 358.997 127.007L362.34 131.236L368.195 118.128L365.683 113.049H365.692Z" fill="#0C513F"/>
<path d="M386.166 156.092C386.621 157.272 401.466 157.302 401.466 157.302L404.147 152.612L389.934 151.882L386.176 156.092H386.166Z" fill="#02C27F"/>
<path d="M435.154 174.848C434.155 174.088 421.505 181.937 421.505 181.937L421.663 187.356L434.145 180.437L435.154 174.858V174.848Z" fill="#0C513F"/>
<path d="M412.465 62.7985C412.237 61.5487 397.669 58.6992 397.669 58.6992L394.167 62.7985L407.994 66.2178L412.475 62.7985H412.465Z" fill="#0C513F"/>
<path d="M245.71 180.457C245.532 179.487 234.198 177.268 234.198 177.268L231.478 180.457L242.229 183.116L245.71 180.457Z" fill="#ED5E3B"/>
<path d="M278.428 172.049V183.047L283.868 179.657L283.453 169.089L278.428 172.049Z" fill="#0C513F"/>
<path d="M262.495 73.2466V84.2446L267.934 80.8552L267.509 70.2871L262.495 73.2466Z" fill="#0C513F"/>
<path d="M190.897 108.81L199.146 115.969L200.155 109.6L191.946 103.031L190.897 108.81Z" fill="#0C513F"/>
<path d="M249.558 140.324L248.717 151.322L254.157 147.093V137.365L249.558 140.324Z" fill="#0C513F"/>
<path d="M258.716 100.132L247.827 100.852L252.733 105.701L262.267 104.321L258.716 100.132Z" fill="#ED5E3B"/>
<path d="M198.74 178.168L209.65 178.308L205.13 173.088L195.526 173.718L198.74 178.168Z" fill="#0C513F"/>
<path d="M309.445 39.9736L320.354 40.1136L315.824 34.9036L306.221 35.5236L309.445 39.9736Z" fill="#ED5E3B"/>
<path d="M295.381 114.209L286.173 123.087L294.54 125.627L303.323 117.169L295.381 114.209Z" fill="#02C27F"/>
<path d="M443.986 100.482L434.778 109.36L443.145 111.899L451.928 103.441L443.986 100.482Z" fill="#02C27F"/>
<path d="M300.187 117.489L297.675 121.288L308.13 122.978L309.811 119.178L300.187 117.489Z" fill="#0C513F"/>
<path d="M356.732 181.967L353.804 178.477L349.314 188.186L352.479 190.855L356.732 181.967Z" fill="#0C513F"/>
<path d="M337.762 90.5134L334.082 93.1729L343.271 98.502L346.169 95.5425L337.762 90.5134Z" fill="#02C27F"/>
<path d="M206.91 139.654L204.398 143.454L214.862 145.153L216.533 141.344L206.91 139.654Z" fill="#0C513F"/>
<path d="M355.248 144.464L352.736 148.273L363.2 149.963L364.872 146.153L355.248 144.464Z" fill="#ED5E3B"/>
<path d="M218.798 63.1284L216.286 66.9377L226.75 68.6274L228.422 64.8181L218.798 63.1284Z" fill="#0C513F"/>
<path d="M423.414 123.088L420.901 126.887L431.366 128.587L433.037 124.777L423.414 123.088Z" fill="#0C513F"/>
<path d="M373.822 80.6852L368.798 86.6041L378.422 88.7237L382.19 84.0746L373.822 80.6852Z" fill="#0C513F"/>
<path d="M405.126 103.711L400.359 97.5721L396.422 106.7L400.21 111.34L405.126 103.711Z" fill="#0C513F"/>
<path d="M431.445 76.376L427.103 82.8248L436.894 83.8546L440.129 78.8155L431.445 76.376Z" fill="#ED5E3B"/>
<path d="M314.331 8.72839L309.307 14.6573L318.93 16.7669L322.698 12.1178L314.331 8.72839Z" fill="#0C513F"/>
<path d="M449.079 147.873L444.055 153.792L453.679 155.911L457.447 151.262L449.079 147.873Z" fill="#0C513F"/>
<path d="M376.335 35.0035L372.992 44.3118L380.103 54.8899L383.031 47.2713L376.335 35.0035Z" fill="#0C513F"/>
<path d="M157.358 157.451L161.542 161.25L176.18 157.451L170.325 152.372L157.358 157.451Z" fill="#02C27F"/>
<path d="M307.101 167.999L307.516 175.188L319.652 166.31L318.396 158.271L307.101 167.999Z" fill="#0C513F"/>
<path d="M305.627 165.7L311.898 180.507L320.265 183.886L312.313 168.659L305.627 165.7Z" fill="#02C27F"/>
</svg>
