<svg width="340" height="400" viewBox="0 0 340 400" fill="none" xmlns="http://www.w3.org/2000/svg">
<g clip-path="url(#clip0_197_1935)">
<path d="M70.0253 12.6428L288.798 58.7585C291.321 59.29 293.63 60.5861 295.43 62.4798C297.23 64.3734 298.437 66.7779 298.895 69.3834C304.988 103.628 308.387 246.301 318.635 305.135C320.318 314.895 336.676 350.611 336.676 350.611C337.017 351.315 337.175 352.098 337.137 352.883C337.099 353.668 336.865 354.43 336.458 355.095C336.05 355.761 335.484 356.308 334.811 356.683C334.14 357.058 333.385 357.25 332.62 357.238L293.78 354.972C291.055 354.911 288.347 355.428 285.825 356.491C283.304 357.554 281.022 359.139 279.122 361.149L249.15 392.799C246.664 394.758 243.767 396.092 240.69 396.692C237.612 397.294 234.441 397.145 231.43 396.259L8.83615 328.981C7.71526 328.651 6.67506 328.081 5.78421 327.307C4.89334 326.535 4.17205 325.575 3.66793 324.495C3.16381 323.414 2.88832 322.236 2.85962 321.038C2.83092 319.839 3.04966 318.647 3.50143 317.542L22.1308 271.773C26.5063 260.975 22.7535 247.392 24.7392 186.758C27.1289 113.838 62.5366 17.9553 62.5366 17.9553C62.6621 17.0876 62.9597 16.2557 63.4109 15.5113C63.8621 14.7668 64.4572 14.1257 65.1594 13.6276C65.8616 13.1295 66.6559 12.785 67.4929 12.6156C68.33 12.4462 69.1919 12.4555 70.0253 12.6428Z" fill="#B5865C" stroke="black" stroke-width="4.54865" stroke-miterlimit="10"/>
<path d="M334.018 355.433C333.6 355.927 333.083 356.322 332.502 356.591C331.921 356.86 331.29 356.996 330.652 356.99L293.798 354.983C291.073 354.923 288.366 355.441 285.844 356.504C283.322 357.567 281.04 359.151 279.14 361.161L249.151 392.81C246.964 394.54 245.398 392.585 242.824 393.26L278.585 329.597V328.974L334.018 355.433Z" fill="#421E0B" stroke="black" stroke-width="4.54865" stroke-miterlimit="10"/>
<path d="M318.061 301.537C318.313 312.128 336.572 350.612 336.572 350.612C337.448 352.342 336.017 354.073 334.89 355.423L278.548 329L291.825 72.6724L293.508 60.9055C294.919 61.8921 296.125 63.1575 297.054 64.6282C297.985 66.0988 298.622 67.745 298.927 69.471C304.969 103.629 316.496 235.937 318.061 301.537Z" fill="#5B2A0E" stroke="black" stroke-width="4.54865" stroke-miterlimit="10"/>
<path d="M53.6179 279.379L207.853 321.272" stroke="#5B2A0E" stroke-width="4.54865" stroke-miterlimit="10" stroke-linecap="round"/>
<path d="M291.809 72.6821L278.615 329.078V329.702L242.03 394.54L240.734 394.817C239.842 376.734 247.365 347.179 250.68 334.529C251.447 331.492 251.765 328.354 251.623 325.22C251.404 319.595 252.716 311.272 254.887 310.078C257.748 308.469 260.088 303.814 260.558 300.492L291.809 72.6821Z" fill="#825C43" stroke="black" stroke-width="4.54865" stroke-miterlimit="10"/>
<g style="mix-blend-mode:multiply">
<path d="M70.9719 17.763L280.059 59.2814C284.161 60.0958 287.78 62.5525 290.12 66.1107C292.461 69.6691 293.331 74.0377 292.538 78.2554L288.352 100.547C286.971 107.9 282.806 114.389 276.771 118.585C270.738 122.781 263.331 124.34 256.178 122.92L70.0915 85.969C62.9396 84.5489 56.6294 80.2655 52.5488 74.0612C48.4682 67.857 46.9517 60.2401 48.3329 52.8862L52.5161 30.6119C52.9064 28.5217 53.6935 26.5311 54.8325 24.7537C55.9715 22.9765 57.44 21.4475 59.154 20.2542C60.8681 19.0609 62.7941 18.2266 64.8218 17.7992C66.8496 17.3717 68.9395 17.3595 70.9719 17.763Z" fill="#CC966A"/>
</g>
<path d="M70.3188 3.1301L288.428 46.4399C292.613 47.2709 296.306 49.7773 298.693 53.4079C301.081 57.0384 301.969 61.4956 301.161 65.7989L297.137 87.2238C295.729 94.7218 291.481 101.338 285.33 105.616C279.177 109.894 271.625 111.484 264.332 110.036L69.6698 71.3819C62.3777 69.934 55.9436 65.5666 51.783 59.2408C47.6225 52.9149 46.0762 45.1486 47.4845 37.6504L51.5208 16.1577C52.3438 11.8726 54.7831 8.09676 58.3056 5.65554C61.8281 3.21434 66.1471 2.30636 70.3188 3.1301Z" fill="#CC966A" stroke="black" stroke-width="4.54865" stroke-miterlimit="10"/>
<path d="M159.747 129.351C175.801 129.351 188.815 115.985 188.815 99.5002C188.815 83.0141 175.801 69.6497 159.747 69.6497C143.692 69.6497 130.678 83.0141 130.678 99.5002C130.678 115.985 143.692 129.351 159.747 129.351Z" fill="#0C513F" stroke="black" stroke-width="4.54865" stroke-miterlimit="10"/>
</g>
<defs>
<clipPath id="clip0_197_1935">
<rect width="340" height="400" fill="white"/>
</clipPath>
</defs>
</svg>
