<svg width="16" height="19" viewBox="0 0 16 19" fill="none" xmlns="http://www.w3.org/2000/svg">
<path d="M13.3871 17.7811C12.4071 18.7311 11.3371 18.5811 10.3071 18.1311C9.21708 17.6711 8.21708 17.6511 7.06708 18.1311C5.62708 18.7511 4.86708 18.5711 4.00708 17.7811C-0.872922 12.7511 -0.152922 5.0911 5.38708 4.8111C6.73708 4.8811 7.67708 5.5511 8.46708 5.6111C9.64708 5.3711 10.7771 4.6811 12.0371 4.7711C13.5471 4.8911 14.6871 5.4911 15.4371 6.5711C12.3171 8.4411 13.0571 12.5511 15.9171 13.7011C15.3471 15.2011 14.6071 16.6911 13.3771 17.7911L13.3871 17.7811ZM8.36708 4.7511C8.21708 2.5211 10.0271 0.681099 12.1071 0.501099C12.3971 3.0811 9.76708 5.0011 8.36708 4.7511Z" fill="white"/>
</svg>
