<svg width="365" height="226" viewBox="0 0 365 226" fill="none" xmlns="http://www.w3.org/2000/svg">
<g clip-path="url(#clip0_319_3168)">
<path d="M265.267 85.2621C228.76 88.0398 262.093 110.261 192.253 122.563C122.414 134.864 165.534 133.806 149 139.229H490.261C481.928 134.791 477.032 121.342 473.198 116.934C469.278 112.427 460.721 114.7 458.919 104.706C455.353 84.9382 441.85 89.6889 440.659 85.2621C436.999 71.6566 408.914 91.1414 405.343 85.2621C401.771 79.3828 397.803 45.9772 385.502 58.6754C373.201 71.3737 362.884 32.0887 350.979 34.0729C339.074 36.0571 345.82 40.8188 334.71 47.1678C323.599 53.5168 323.202 75.7385 301.774 85.2621C280.346 94.7857 301.774 82.4844 265.267 85.2621Z" fill="#FFF8E5"/>
<path d="M279.853 94.3649C248.421 96.7565 277.12 115.889 216.989 126.48C156.858 137.072 193.984 136.16 179.749 140.83H473.57C466.395 137.009 462.18 125.429 458.879 121.634C455.503 117.754 448.136 119.711 446.584 111.106C443.515 94.0861 431.889 98.1764 430.863 94.3649C427.712 82.6508 403.531 99.427 400.456 94.3649C397.382 89.3029 393.965 60.5412 383.374 71.4742C372.783 82.4073 363.9 48.5834 353.65 50.2918C343.4 52.0001 349.208 56.0999 339.642 61.5663C330.076 67.0327 329.734 86.1653 311.285 94.3649C292.836 102.565 311.285 91.9734 279.853 94.3649Z" fill="white"/>
</g>
<defs>
<clipPath id="clip0_319_3168">
<rect width="490" height="226" fill="white"/>
</clipPath>
</defs>
</svg>
