<svg width="20" height="19" viewBox="0 0 20 19" fill="none" xmlns="http://www.w3.org/2000/svg">
<path d="M17.965 6.6139C17.988 6.45469 18 6.29547 18 6.13717C18 3.96031 15.857 2.21351 13.479 2.50906C12.786 1.38083 11.466 0.646973 10 0.646973C8.534 0.646973 7.214 1.38083 6.521 2.50906C4.138 2.21351 2 3.96031 2 6.13717C2 6.29547 2.012 6.45469 2.035 6.6139C0.802 7.24893 0 8.45678 0 9.7973C0 11.1378 0.802 12.3457 2.035 12.9807C2.01193 13.1387 2.00024 13.298 2 13.4574C2 15.6343 4.138 17.3765 6.521 17.0855C7.214 18.2138 8.534 18.9476 10 18.9476C11.466 18.9476 12.786 18.2138 13.479 17.0855C15.857 17.3765 18 15.6343 18 13.4574C18 13.2991 17.988 13.1399 17.965 12.9807C19.198 12.3457 20 11.1378 20 9.7973C20 8.45678 19.198 7.24893 17.965 6.6139Z" fill="black"/>
</svg>
