<svg width="122" height="122" viewBox="0 0 122 122" fill="none" xmlns="http://www.w3.org/2000/svg">
<circle cx="61" cy="61" r="58" fill="#0C513F" stroke="white" stroke-width="6"/>
<path d="M61 71.5395L69.3 76.5595C70.82 77.4795 72.68 76.1195 72.28 74.3995L70.08 64.9595L77.42 58.5995C78.76 57.4395 78.04 55.2395 76.28 55.0995L66.62 54.2795L62.84 45.3595C62.16 43.7395 59.84 43.7395 59.16 45.3595L55.38 54.2595L45.72 55.0795C43.96 55.2195 43.24 57.4195 44.58 58.5795L51.92 64.9395L49.72 74.3795C49.32 76.0995 51.18 77.4595 52.7 76.5395L61 71.5395Z" fill="#FCC302"/>
<path d="M43.8233 97.8838C44.282 98.1118 44.6713 98.4068 44.9912 98.7685C45.3081 99.1361 45.5425 99.5459 45.6944 99.998C45.8404 100.447 45.8966 100.917 45.8629 101.407C45.8263 101.903 45.6883 102.392 45.4487 102.874C45.2062 103.362 44.8997 103.767 44.5292 104.09C44.1588 104.413 43.7504 104.651 43.3042 104.806C42.8521 104.958 42.3882 105.017 41.9125 104.983C41.4311 104.947 40.958 104.813 40.4935 104.582C40.029 104.351 39.6411 104.053 39.33 103.688C39.0101 103.327 38.7772 102.921 38.6312 102.472C38.4764 102.026 38.4159 101.558 38.4496 101.067C38.4774 100.574 38.6126 100.084 38.8551 99.5961C39.0947 99.1142 39.4041 98.7103 39.7832 98.3847C40.1537 98.0619 40.5649 97.8246 41.017 97.6728C41.4633 97.518 41.9286 97.4561 42.413 97.4868C42.8886 97.5205 43.3588 97.6529 43.8233 97.8838ZM43.4293 98.6764C43.0692 98.4974 42.7094 98.3982 42.3498 98.3787C41.9872 98.3651 41.6408 98.421 41.3105 98.5464C40.9715 98.6748 40.6674 98.864 40.3983 99.1141C40.1204 99.367 39.8935 99.6706 39.7174 100.025C39.5413 100.379 39.4377 100.74 39.4067 101.109C39.3698 101.474 39.404 101.828 39.5092 102.17C39.6057 102.515 39.7702 102.825 40.0029 103.1C40.2326 103.38 40.5275 103.61 40.8875 103.789C41.2417 103.965 41.6001 104.06 41.9627 104.074C42.3223 104.093 42.6716 104.039 43.0107 103.911C43.341 103.785 43.6436 103.599 43.9185 103.352C44.1935 103.105 44.419 102.804 44.5951 102.45C44.7712 102.095 44.8762 101.731 44.9101 101.357C44.9412 100.989 44.9084 100.632 44.8119 100.287C44.7068 99.9452 44.5393 99.6338 44.3095 99.353C44.0769 99.078 43.7835 98.8525 43.4293 98.6764Z" fill="white"/>
<path d="M34.6718 91.8782L31.6426 98.9624L30.8957 98.2657L33.6194 92.0938L33.7688 92.2332L27.8014 95.3797L27.0545 94.6831L33.9036 91.1617L34.6718 91.8782Z" fill="white"/>
<path d="M28.5888 85.1934L22.4487 89.0421L19.9431 85.0448L20.6849 84.5799L22.6842 87.7695L24.6292 86.5503L22.7333 83.5255L23.475 83.0606L25.371 86.0853L27.3408 84.8506L25.3415 81.661L26.0833 81.1961L28.5888 85.1934Z" fill="white"/>
<path d="M23.769 76.2541L16.866 78.4594L16.0875 76.0226C15.9415 75.5655 15.8997 75.1363 15.9621 74.7351C16.0246 74.334 16.1858 73.9863 16.4458 73.6922C16.7039 73.3919 17.0491 73.1727 17.4815 73.0346C17.9695 72.8786 18.4229 72.87 18.8415 73.0085C19.2602 73.1471 19.6108 73.4027 19.8932 73.7753L22.1793 71.2784L22.5168 72.3347L20.0628 74.9772L20.2224 74.2624L20.8382 76.1897L23.4789 75.346L23.769 76.2541ZM20.0043 76.4561L19.5069 74.8995C19.4201 74.6277 19.2916 74.4066 19.1215 74.2363C18.9513 74.0661 18.7497 73.9569 18.5165 73.9088C18.2813 73.8546 18.034 73.869 17.7746 73.9519C17.509 74.0367 17.2992 74.1684 17.1452 74.347C16.983 74.5213 16.882 74.7272 16.8421 74.9646C16.8022 75.202 16.8257 75.4566 16.9125 75.7283L17.4099 77.285L20.0043 76.4561Z" fill="white"/>
<path d="M21.3251 67.1141L13.9601 64.8744L13.9049 63.7474L21.0159 60.799L21.0658 61.8192L19.3947 62.495L19.5459 65.5846L21.2751 66.094L21.3251 67.1141ZM18.6568 65.3262L18.535 62.839L14.629 64.4132L14.6156 64.1411L18.6568 65.3262Z" fill="white"/>
<path d="M21.5191 55.458L14.4194 54.0059L14.6105 53.0719L20.8525 54.3486L21.4898 51.2324L22.3475 51.4078L21.5191 55.458Z" fill="white"/>
<path d="M23.9967 46.4175L17.4192 43.376L17.8193 42.5107L23.6022 45.1849L24.9372 42.2979L25.7318 42.6653L23.9967 46.4175Z" fill="white"/>
<path d="M32.4187 33.3525L27.5714 27.9656L29.8346 25.9291C30.1575 25.6385 30.4867 25.4469 30.8222 25.3544C31.1625 25.2576 31.4908 25.2588 31.807 25.3581C32.1236 25.4483 32.4121 25.638 32.6724 25.9272C32.9109 26.1923 33.0579 26.4962 33.1133 26.8389C33.1692 27.1725 33.1188 27.5188 32.9621 27.8779L32.7141 27.6169C33.0236 27.4954 33.3181 27.4398 33.5977 27.4499C33.8777 27.4509 34.1409 27.5107 34.3872 27.6293C34.6291 27.7431 34.8434 27.9036 35.0299 28.1109C35.4767 28.6074 35.6689 29.141 35.6067 29.7117C35.5445 30.2824 35.2386 30.8149 34.6891 31.3094L32.4187 33.3525ZM32.5417 32.0641L34.1324 30.6327C34.4458 30.3507 34.6205 30.0408 34.6567 29.7029C34.6929 29.365 34.5808 29.0515 34.3206 28.7623C34.0603 28.473 33.7603 28.3286 33.4205 28.3291C33.0763 28.3247 32.7476 28.4635 32.4342 28.7455L30.8435 30.1769L32.5417 32.0641ZM30.2709 29.5406L31.8111 28.1547C32.0714 27.9205 32.2138 27.6571 32.2384 27.3645C32.2587 27.0671 32.1626 26.8003 31.95 26.5641C31.7288 26.3183 31.4801 26.2018 31.2039 26.2148C30.9277 26.2278 30.6595 26.3514 30.3992 26.5857L28.859 27.9715L30.2709 29.5406Z" fill="white"/>
<path d="M41.0341 26.5949L37.7366 20.142L41.9375 17.9953L42.3358 18.7748L38.9838 20.4878L40.0284 22.5319L43.2072 20.9075L43.6055 21.6871L40.4267 23.3115L41.4846 25.3816L44.8366 23.6687L45.235 24.4482L41.0341 26.5949Z" fill="white"/>
<path d="M52.8148 22.1399C52.3657 22.2411 51.9359 22.2516 51.5256 22.1713C51.1139 22.0846 50.7455 21.925 50.4206 21.6925C50.0956 21.46 49.8355 21.1763 49.6404 20.8414L50.372 20.3274C50.6455 20.7444 50.9777 21.0384 51.3686 21.2096C51.7644 21.3729 52.19 21.4033 52.6455 21.3006C52.9239 21.2378 53.1574 21.1386 53.3462 21.003C53.535 20.8674 53.6685 20.7077 53.7467 20.5238C53.8298 20.3323 53.8471 20.1289 53.7986 19.9139C53.7316 19.6165 53.5934 19.4017 53.3841 19.2694C53.1797 19.1294 52.9062 19.0515 52.5636 19.0356L51.1738 18.9302C50.6257 18.8876 50.1772 18.7261 49.8282 18.4458C49.4791 18.1656 49.2547 17.804 49.1549 17.3612C49.0679 16.9753 49.0833 16.6162 49.2011 16.2838C49.3239 15.9437 49.5312 15.6544 49.8231 15.4157C50.1198 15.1693 50.4801 14.9984 50.904 14.9028C51.3278 14.8073 51.7276 14.7969 52.1035 14.8717C52.4856 14.9451 52.8261 15.0843 53.125 15.2895C53.4224 15.4884 53.6652 15.7394 53.8532 16.0427L53.131 16.5545C52.8893 16.1902 52.5939 15.9411 52.2446 15.8071C51.8939 15.6668 51.5129 15.643 51.1017 15.7357C50.8487 15.7927 50.6341 15.8877 50.458 16.0204C50.2867 16.1455 50.1659 16.3023 50.0954 16.4911C50.0299 16.672 50.022 16.8732 50.072 17.0946C50.1304 17.354 50.2647 17.5663 50.4748 17.7317C50.6849 17.897 50.9698 17.9957 51.3293 18.0276L52.5946 18.1113C53.1897 18.1566 53.6653 18.3053 54.0213 18.5574C54.3773 18.8095 54.608 19.1697 54.7136 19.6378C54.8006 20.0237 54.7764 20.3881 54.641 20.731C54.5119 21.0726 54.2895 21.3687 53.9738 21.6193C53.6629 21.8623 53.2766 22.0358 52.8148 22.1399Z" fill="white"/>
<path d="M61.6702 21.0381L61.793 14.668L59.8285 14.6302L59.8454 13.7549L64.708 13.8487L64.6911 14.7239L62.7558 14.6866L62.633 21.0567L61.6702 21.0381Z" fill="white"/>
<path d="M75.7866 23.5793L78.4477 16.8389L79.3343 17.1889L76.6733 23.9293L75.7866 23.5793Z" fill="white"/>
<path d="M82.126 26.4782L86.2044 20.4881L86.8637 20.937L87.0095 28.1203L86.6901 27.9499L90.0075 23.0774L90.8035 23.6194L86.7252 29.6095L86.0658 29.1606L85.958 21.9561L86.2533 22.11L82.914 27.0147L82.126 26.4782Z" fill="white"/>
<path d="M94.7647 38.018L100.947 34.2375L102.185 36.2623C102.568 36.8875 102.774 37.5102 102.803 38.1305C102.833 38.7509 102.693 39.3304 102.384 39.869C102.081 40.4043 101.616 40.8631 100.991 41.2454C100.371 41.6243 99.7514 41.8286 99.1311 41.8582C98.5108 41.8879 97.9285 41.7499 97.3843 41.4442C96.8457 41.1351 96.3852 40.668 96.0029 40.0428L94.7647 38.018ZM96.0089 38.3745L96.7548 39.5944C97.0356 40.0536 97.3743 40.39 97.7709 40.6035C98.1709 40.8226 98.601 40.9168 99.0612 40.8862C99.5269 40.8523 99.9977 40.6899 100.473 40.3989C100.955 40.1046 101.312 39.7568 101.546 39.3556C101.783 38.9599 101.892 38.5358 101.874 38.0833C101.864 37.633 101.721 37.181 101.443 36.7273L100.698 35.5074L96.0089 38.3745Z" fill="white"/>
<path d="M99.8341 47.7228L106.781 45.6609L108.124 50.1835L107.284 50.4326L106.213 46.8238L104.013 47.477L105.028 50.8993L104.189 51.1484L103.173 47.7261L100.945 48.3876L102.016 51.9964L101.176 52.2455L99.8341 47.7228Z" fill="white"/>
<path d="M102.06 57.6425L109.298 57.2985L109.344 58.2507L102.98 58.5531L103.131 61.7303L102.256 61.7718L102.06 57.6425Z" fill="white"/>
<path d="M101.841 67.049L109.001 68.1676L108.854 69.1094L101.694 67.9909L101.841 67.049Z" fill="white"/>
<path d="M99.6991 75.6517L107.4 75.8845L107.024 76.8342L100.284 76.5526L100.359 76.3627L105.468 80.7687L105.092 81.7185L99.3126 76.6286L99.6991 75.6517Z" fill="white"/>
<path d="M95.6968 83.7565L101.522 88.0669L98.7161 91.8593L98.0123 91.3386L100.251 88.3125L98.4061 86.9471L96.2827 89.8167L95.579 89.296L97.7024 86.4263L95.8336 85.0435L93.5945 88.0696L92.8907 87.5489L95.6968 83.7565Z" fill="white"/>
<path d="M89.1367 91.5082L93.7107 97.1289L91.7265 98.7437C91.3543 99.0465 90.9701 99.2422 90.5738 99.3306C90.1776 99.419 89.795 99.3958 89.4263 99.2612C89.0525 99.1306 88.7223 98.8893 88.4358 98.5372C88.1124 98.1398 87.9388 97.721 87.9149 97.2806C87.8909 96.8403 88.0009 96.4206 88.2446 96.0215L85.0853 94.8052L85.9453 94.1053L89.3016 95.4248L88.5779 95.5372L90.1471 94.2601L88.3973 92.1099L89.1367 91.5082ZM90.6997 94.9391L89.4322 95.9706C89.2109 96.1507 89.0521 96.351 88.9557 96.5716C88.8593 96.7922 88.8313 97.0198 88.8717 97.2544C88.9071 97.4931 89.0108 97.7181 89.1827 97.9294C89.3587 98.1456 89.5579 98.2929 89.7804 98.371C90.0019 98.4583 90.2305 98.4771 90.466 98.4276C90.7016 98.378 90.93 98.2632 91.1513 98.0831L92.4188 97.0516L90.6997 94.9391Z" fill="white"/>
<path d="M79.2141 98.1488L80.6041 101.16L84.5295 103.677L83.5492 104.129L80.2597 102.016L80.6129 101.853L80.096 105.723L79.1157 106.176L79.7298 101.564L78.3397 98.5524L79.2141 98.1488Z" fill="white"/>
</svg>
