<svg width="97" height="110" viewBox="0 0 97 110" fill="none" xmlns="http://www.w3.org/2000/svg">
<path d="M19.7749 3.47714L81.5554 16.159C82.2679 16.3051 82.9201 16.6615 83.4284 17.1823C83.9367 17.703 84.2775 18.3643 84.4068 19.0808C86.1273 28.4981 87.0872 67.7332 89.9813 83.9126C90.4566 86.5964 95.076 96.4184 95.076 96.4184C95.1723 96.6121 95.2169 96.8272 95.2062 97.0432C95.1954 97.2592 95.1293 97.4687 95.0144 97.6516C94.8993 97.8347 94.7393 97.9851 94.5494 98.0881C94.3598 98.1913 94.1465 98.244 93.9306 98.2408L82.9623 97.6177C82.1928 97.601 81.428 97.743 80.7158 98.0353C80.0039 98.3277 79.3595 98.7637 78.8229 99.3163L70.3588 108.02C69.6569 108.559 68.8387 108.926 67.9698 109.091C67.1008 109.256 66.2052 109.215 65.3548 108.972L2.49528 90.4701C2.17875 90.3795 1.885 90.2227 1.63342 90.0099C1.38185 89.7974 1.17816 89.5336 1.03579 89.2364C0.893432 88.9392 0.815635 88.6151 0.807529 88.2857C0.799426 87.956 0.861198 87.6284 0.988774 87.3245L6.24965 74.7379C7.48525 71.7685 6.42549 68.033 6.98624 51.3588C7.66109 31.3057 17.6601 4.93807 17.6601 4.93807C17.6955 4.69946 17.7796 4.47069 17.907 4.26597C18.0344 4.06124 18.2024 3.88492 18.4007 3.74794C18.599 3.61097 18.8233 3.51625 19.0597 3.46966C19.2961 3.42308 19.5395 3.42564 19.7749 3.47714Z" fill="#B5865C" stroke="black" stroke-width="1.22335" stroke-miterlimit="10"/>
<path d="M94.3254 97.7439C94.2073 97.8797 94.0613 97.9884 93.8972 98.0623C93.7331 98.1363 93.5548 98.1737 93.3749 98.1721L82.9674 97.6202C82.1979 97.6038 81.4333 97.7461 80.7211 98.0384C80.0089 98.3308 79.3645 98.7664 78.828 99.3191L70.3593 108.023C69.7416 108.498 69.2994 107.961 68.5724 108.146L78.6712 90.6391V90.4678L94.3254 97.7439Z" fill="#421E0B" stroke="black" stroke-width="1.22335" stroke-miterlimit="10"/>
<path d="M89.819 82.9228C89.8903 85.8352 95.0466 96.4184 95.0466 96.4184C95.2938 96.8941 94.8898 97.3702 94.5714 97.7413L78.6606 90.4749L82.4101 19.9849L82.8853 16.749C83.2839 17.0203 83.6244 17.3683 83.8869 17.7727C84.1496 18.1772 84.3295 18.6299 84.4156 19.1045C86.1218 28.4981 89.3772 64.8828 89.819 82.9228Z" fill="#5B2A0E" stroke="black" stroke-width="1.22335" stroke-miterlimit="10"/>
<path d="M15.1415 76.8291L58.697 88.3498" stroke="#5B2A0E" stroke-width="1.22335" stroke-miterlimit="10" stroke-linecap="round"/>
<path d="M82.4058 19.9873L78.6798 90.4961V90.6677L68.3484 108.498L67.9824 108.574C67.7304 103.601 69.8548 95.4738 70.791 91.9952C71.0075 91.1601 71.0974 90.2971 71.0573 89.4351C70.9954 87.8884 71.366 85.5996 71.979 85.2713C72.7869 84.8286 73.4477 83.5486 73.5806 82.635L82.4058 19.9873Z" fill="#825C43" stroke="black" stroke-width="1.22335" stroke-miterlimit="10"/>
<g style="mix-blend-mode:multiply">
<path d="M20.0418 4.88451L79.0872 16.302C80.2456 16.526 81.2676 17.2016 81.9284 18.1801C82.5895 19.1587 82.835 20.36 82.6113 21.5199L81.4292 27.65C81.039 29.6723 79.8629 31.4567 78.1588 32.6105C76.455 33.7643 74.3632 34.1933 72.3434 33.8028L19.7932 23.6411C17.7736 23.2506 15.9916 22.0727 14.8392 20.3665C13.6869 18.6604 13.2586 16.5657 13.6487 14.5434L14.83 8.41795C14.9402 7.84313 15.1625 7.29571 15.4841 6.80695C15.8058 6.31822 16.2205 5.89774 16.7045 5.56957C17.1886 5.24143 17.7325 5.01199 18.3051 4.89446C18.8777 4.7769 19.4679 4.77354 20.0418 4.88451Z" fill="#CC966A"/>
</g>
<path d="M19.8577 0.860862L81.4508 12.7711C82.6329 12.9996 83.6756 13.6888 84.3498 14.6873C85.0241 15.6856 85.2747 16.9114 85.0467 18.0948L83.9104 23.9866C83.5126 26.0486 82.3131 27.868 80.5759 29.0444C78.8385 30.221 76.7058 30.6581 74.6464 30.26L19.6745 19.6301C17.6152 19.2319 15.7983 18.0309 14.6233 16.2913C13.4484 14.5517 13.0117 12.416 13.4094 10.354L14.5493 4.44346C14.7817 3.26506 15.4705 2.22669 16.4653 1.55536C17.46 0.884029 18.6797 0.634335 19.8577 0.860862Z" fill="#CC966A" stroke="black" stroke-width="1.22335" stroke-miterlimit="10"/>
<path d="M45.1118 35.5711C49.6455 35.5711 53.3207 31.8956 53.3207 27.3622C53.3207 22.8285 49.6455 19.1533 45.1118 19.1533C40.5781 19.1533 36.903 22.8285 36.903 27.3622C36.903 31.8956 40.5781 35.5711 45.1118 35.5711Z" fill="#0C513F" stroke="black" stroke-width="1.22335" stroke-miterlimit="10"/>
</svg>
