<svg width="22" height="22" viewBox="0 0 22 22" fill="none" xmlns="http://www.w3.org/2000/svg">
<g clip-path="url(#clip0_378_2975)">
<path d="M15.8828 14.3622C18.4891 12.9312 20.4648 11.8407 20.6351 11.7559C21.1799 11.4662 21.7425 10.6994 20.6351 10.1038C20.2776 9.91651 18.3526 8.86003 15.8828 7.49756L12.459 10.9553L15.8828 14.3621V14.3622Z" fill="#FFD900"/>
<path d="M12.4591 10.9553L1.55725 21.9427C1.81314 21.9766 2.10203 21.9088 2.44263 21.7215C3.15771 21.3301 10.7382 17.1903 15.8829 14.363L12.4591 10.9553Z" fill="#F43249"/>
<path d="M12.4592 10.9553L15.883 7.5146C15.883 7.5146 3.20951 0.598165 2.44273 0.18988C2.15384 0.0187778 1.8301 -0.032047 1.54041 0.0187778L12.4592 10.9553Z" fill="#00EE76"/>
<path d="M12.459 10.9554L1.54027 0.0187988C1.09714 0.121251 0.722656 0.512755 0.722656 1.31343V20.6481C0.722656 21.381 1.01243 21.9088 1.55721 21.9597L12.459 10.9554Z" fill="#00D3FF"/>
</g>
<defs>
<clipPath id="clip0_378_2975">
<rect x="0.722656" width="20.5547" height="22" rx="3.57474" fill="white"/>
</clipPath>
</defs>
</svg>
