<svg width="627" height="624" viewBox="0 0 627 624" fill="none" xmlns="http://www.w3.org/2000/svg">
<rect y="-1" width="627" height="627" fill="#FFF3CC"/>
<path d="M1.2373 169.362L44.5498 113.675L83.5311 55.7185M122.512 -2.23779L83.5311 55.7185M83.5311 55.7185H145.2M145.2 55.7185L195.518 181.513M145.2 55.7185L254.1 -2.23779H370.425L380.737 23.7497M145.2 55.7185L457.05 225.05M197.587 186.687L292.05 327.35M197.587 186.687H280.087L457.05 225.05M197.587 186.687L195.518 181.513M292.05 327.35L227.7 367.775M292.05 327.35L370.425 295.175L469.012 434.187M292.05 327.35L354.337 383.862L227.7 367.775M227.7 367.775L66.8248 419.75V546.387L197.587 616.925L211.612 530.3H326.287M227.7 367.775L326.287 530.3M326.287 530.3L445.087 616.925M326.287 530.3L469.012 434.187M445.087 616.925L469.012 434.187M445.087 616.925L533.362 530.3V470.075M469.012 434.187L533.362 470.075M469.012 434.187L457.05 225.05M533.362 470.075L575.437 383.862L457.05 225.05M457.05 225.05H622.05M457.05 225.05L503.25 113.675M195.518 181.513L280.087 55.7185L380.737 23.7497M380.737 23.7497L326.287 96.3497L503.25 113.675M380.737 23.7497L420.75 55.7185L503.25 -2.23779V113.675M503.25 113.675L585.75 74.0747M585.75 74.0747L547.387 -2.23779M585.75 74.0747H622.05" stroke="white" stroke-width="2.475"/>
<path d="M0 -1V68.3H47.025L77.55 -1H0Z" fill="#02C27F"/>
<path d="M627 -1V54.275H597.484L578.325 -1H627Z" fill="#02C27F"/>
<path d="M0 626V574.85H33.5178L55.275 626H0Z" fill="#02C27F"/>
<path d="M626.175 432.125L554.661 476.113L570.69 527.27L513.15 626H626.175V432.125Z" fill="#02C27F"/>
<path d="M73.4249 552.575L93.6374 621.05" stroke="#C9C9C9" stroke-width="8.25"/>
<path d="M126.638 199.475H69.3003V241.962L126.638 256.812V199.475Z" fill="#C9C9C9" stroke="#C9C9C9" stroke-width="6.6"/>
<path d="M127.462 297.65H68.4749V350.037H127.462V297.65Z" fill="#C9C9C9" stroke="#C9C9C9" stroke-width="6.6"/>
<path d="M69.7126 289.813V250.213L126.638 267.538V289.813H69.7126Z" fill="#C9C9C9" stroke="#C9C9C9" stroke-width="6.6"/>
<path d="M66.4122 244.85V200.3H131.175V263.413M66.4122 244.85L131.175 263.413M66.4122 244.85V294.35M131.175 263.413V293.113M131.175 293.113V343.85H66.4122V294.35M131.175 293.113L66.4122 294.35" stroke="white" stroke-width="2.475"/>
<path d="M440.963 -2.6499L457.05 217.213L622.463 336.425" stroke="#C9C9C9" stroke-width="8.25"/>
<path d="M0.824829 350.451H172.425M172.425 350.451L247.087 -0.586914M172.425 350.451L233.062 370.663L202.537 623.113" stroke="#C9C9C9" stroke-width="8.25"/>
<path d="M272.478 193.472L271.244 192.05H269.363H65.5876H61.4626V196.175V422.225V426.998L66.1849 426.307L348.233 385.036L330.885 501.643L330.473 504.41L332.892 505.816L471.064 586.156L475.398 588.676L477.036 583.938L500.961 514.736L501.394 513.483L501.016 512.212L477.091 431.774L476.547 429.944L474.799 429.175L357.673 377.643L358.027 375.265L368.318 306.095L368.597 304.217L367.353 302.784L272.478 193.472Z" stroke="#FCD981" stroke-width="8.25"/>
<rect x="114.262" y="193.287" width="96.525" height="37.125" rx="8.6625" fill="#99C8FF"/>
<circle cx="135.4" cy="211.85" r="4.95" fill="#FF884D" stroke="black" stroke-width="1.65"/>
<path d="M154.612 220.35V213.816L149.642 205.599H152.711L156.513 212.014H155.424L159.206 205.599H162.275L157.325 213.796V220.35H154.612ZM164.786 220.587C164.034 220.587 163.38 220.462 162.826 220.211C162.272 219.96 161.843 219.604 161.539 219.142C161.235 218.667 161.084 218.119 161.084 217.498C161.084 216.904 161.216 216.376 161.48 215.914C161.744 215.439 162.153 215.043 162.707 214.726C163.262 214.41 163.961 214.185 164.806 214.053L168.33 213.479V215.459L165.301 215.974C164.786 216.066 164.403 216.231 164.153 216.469C163.902 216.706 163.776 217.017 163.776 217.399C163.776 217.769 163.915 218.066 164.192 218.29C164.483 218.502 164.839 218.607 165.261 218.607C165.803 218.607 166.278 218.495 166.687 218.271C167.109 218.033 167.433 217.71 167.657 217.3C167.895 216.891 168.014 216.442 168.014 215.954V213.182C168.014 212.72 167.829 212.337 167.459 212.034C167.103 211.717 166.628 211.558 166.034 211.558C165.479 211.558 164.984 211.71 164.549 212.014C164.126 212.304 163.816 212.694 163.618 213.182L161.499 212.152C161.711 211.585 162.041 211.096 162.489 210.687C162.951 210.265 163.493 209.935 164.113 209.697C164.733 209.46 165.407 209.341 166.133 209.341C167.017 209.341 167.796 209.506 168.469 209.836C169.142 210.153 169.664 210.601 170.033 211.182C170.416 211.75 170.607 212.416 170.607 213.182V220.35H168.152V218.508L168.707 218.469C168.429 218.931 168.099 219.32 167.717 219.637C167.334 219.94 166.898 220.178 166.41 220.35C165.921 220.508 165.38 220.587 164.786 220.587ZM178.093 220.587C177.315 220.587 176.595 220.435 175.935 220.132C175.288 219.815 174.774 219.366 174.391 218.785L174.648 218.271V220.35H172.213V205.361H174.807V211.717L174.411 211.182C174.78 210.601 175.282 210.153 175.915 209.836C176.549 209.506 177.282 209.341 178.113 209.341C179.13 209.341 180.047 209.592 180.865 210.093C181.684 210.595 182.331 211.268 182.806 212.113C183.294 212.958 183.538 213.908 183.538 214.964C183.538 216.007 183.301 216.957 182.826 217.815C182.35 218.673 181.704 219.353 180.885 219.855C180.067 220.343 179.136 220.587 178.093 220.587ZM177.796 218.211C178.39 218.211 178.918 218.073 179.38 217.795C179.842 217.518 180.199 217.135 180.45 216.647C180.714 216.159 180.846 215.598 180.846 214.964C180.846 214.33 180.714 213.776 180.45 213.301C180.199 212.812 179.842 212.43 179.38 212.152C178.918 211.862 178.39 211.717 177.796 211.717C177.229 211.717 176.714 211.855 176.252 212.133C175.803 212.41 175.447 212.799 175.183 213.301C174.932 213.789 174.807 214.344 174.807 214.964C174.807 215.598 174.932 216.159 175.183 216.647C175.447 217.135 175.803 217.518 176.252 217.795C176.714 218.073 177.229 218.211 177.796 218.211ZM187.991 220.587C187.239 220.587 186.585 220.462 186.031 220.211C185.476 219.96 185.047 219.604 184.744 219.142C184.44 218.667 184.288 218.119 184.288 217.498C184.288 216.904 184.42 216.376 184.684 215.914C184.948 215.439 185.358 215.043 185.912 214.726C186.466 214.41 187.166 214.185 188.011 214.053L191.535 213.479V215.459L188.506 215.974C187.991 216.066 187.608 216.231 187.357 216.469C187.107 216.706 186.981 217.017 186.981 217.399C186.981 217.769 187.12 218.066 187.397 218.29C187.687 218.502 188.044 218.607 188.466 218.607C189.007 218.607 189.483 218.495 189.892 218.271C190.314 218.033 190.638 217.71 190.862 217.3C191.1 216.891 191.218 216.442 191.218 215.954V213.182C191.218 212.72 191.034 212.337 190.664 212.034C190.308 211.717 189.832 211.558 189.238 211.558C188.684 211.558 188.189 211.71 187.753 212.014C187.331 212.304 187.021 212.694 186.823 213.182L184.704 212.152C184.915 211.585 185.245 211.096 185.694 210.687C186.156 210.265 186.697 209.935 187.318 209.697C187.938 209.46 188.611 209.341 189.337 209.341C190.222 209.341 191.001 209.506 191.674 209.836C192.347 210.153 192.868 210.601 193.238 211.182C193.621 211.75 193.812 212.416 193.812 213.182V220.35H191.357V218.508L191.911 218.469C191.634 218.931 191.304 219.32 190.921 219.637C190.539 219.94 190.103 220.178 189.615 220.35C189.126 220.508 188.585 220.587 187.991 220.587Z" fill="black"/>
<rect x="114.262" y="193.287" width="96.525" height="37.125" rx="8.6625" stroke="black" stroke-width="2.475"/>
<path d="M164.76 253.505L164.759 253.505C164.056 252.802 163.186 252.44 162.195 252.44C161.203 252.44 160.333 252.803 159.631 253.505C158.928 254.208 158.565 255.078 158.565 256.07C158.565 257.062 158.928 257.932 159.631 258.634C160.333 259.337 161.203 259.7 162.195 259.7C163.187 259.7 164.057 259.337 164.76 258.634C165.462 257.931 165.825 257.062 165.825 256.07C165.825 255.078 165.462 254.209 164.76 253.505ZM154.446 263.514L154.446 263.514C152.642 260.849 151.8 258.468 151.8 256.351C151.8 253.039 152.856 250.478 154.918 248.577L154.918 248.577C157.027 246.632 159.441 245.675 162.195 245.675C164.948 245.675 167.363 246.632 169.471 248.577L169.471 248.577C171.533 250.478 172.59 253.039 172.59 256.351C172.59 258.468 171.747 260.849 169.945 263.514C168.23 266.048 165.655 268.815 162.195 271.813C158.734 268.815 156.16 266.048 154.446 263.514Z" fill="#99C8FF" stroke="black" stroke-width="1.65"/>
<rect x="483.863" y="55.5129" width="96.525" height="37.125" rx="8.6625" fill="#FFB3CE"/>
<circle cx="504.001" cy="74.0753" r="4.95" fill="#02C27F" stroke="black" stroke-width="1.65"/>
<path d="M519.451 82.5752V67.8242H522.144V80.1992H528.46V82.5752H519.451ZM534.301 82.8128C533.192 82.8128 532.222 82.562 531.39 82.0604C530.559 81.5588 529.912 80.879 529.45 80.021C528.988 79.163 528.757 78.2126 528.757 77.1698C528.757 76.0874 528.988 75.1304 529.45 74.2988C529.925 73.454 530.565 72.7874 531.37 72.299C532.189 71.8106 533.1 71.5664 534.103 71.5664C534.948 71.5664 535.687 71.705 536.32 71.9822C536.967 72.2594 537.515 72.6422 537.964 73.1306C538.413 73.619 538.756 74.18 538.993 74.8136C539.231 75.434 539.35 76.1072 539.35 76.8332C539.35 77.018 539.337 77.2094 539.31 77.4074C539.297 77.6054 539.264 77.777 539.211 77.9222H530.895V75.9422H537.746L536.518 76.8728C536.637 76.2656 536.604 75.7244 536.419 75.2492C536.248 74.774 535.957 74.3978 535.548 74.1206C535.152 73.8434 534.67 73.7048 534.103 73.7048C533.562 73.7048 533.08 73.8434 532.657 74.1206C532.235 74.3846 531.912 74.7806 531.687 75.3086C531.476 75.8234 531.397 76.4504 531.45 77.1896C531.397 77.8496 531.483 78.437 531.707 78.9518C531.945 79.4534 532.288 79.8428 532.737 80.12C533.199 80.3972 533.727 80.5358 534.321 80.5358C534.915 80.5358 535.416 80.4104 535.825 80.1596C536.248 79.9088 536.578 79.5722 536.815 79.1498L538.914 80.1794C538.703 80.6942 538.373 81.1496 537.924 81.5456C537.475 81.9416 536.941 82.2518 536.32 82.4762C535.713 82.7006 535.04 82.8128 534.301 82.8128ZM540.524 82.5752V67.5866H543.118V77.4074L542.128 77.1104L547.197 71.804H550.424L546.444 76.1402L550.503 82.5752H547.533L544.009 76.9916L545.553 76.6748L542.306 80.1596L543.118 78.5756V82.5752H540.524ZM551.16 82.5752V67.5866H553.753V77.4074L552.763 77.1104L557.832 71.804H561.06L557.08 76.1402L561.139 82.5752H558.169L554.644 76.9916L556.189 76.6748L552.942 80.1596L553.753 78.5756V82.5752H551.16ZM561.795 82.5752V71.804H564.389V82.5752H561.795ZM561.795 70.5962V67.8242H564.389V70.5962H561.795Z" fill="black"/>
<rect x="483.863" y="55.5129" width="96.525" height="37.125" rx="8.6625" stroke="black" stroke-width="2.475"/>
<path d="M534.361 115.731L534.36 115.73C533.657 115.028 532.787 114.665 531.795 114.665C530.804 114.665 529.934 115.028 529.232 115.73C528.529 116.433 528.165 117.303 528.165 118.295C528.165 119.287 528.529 120.157 529.232 120.859C529.934 121.562 530.804 121.925 531.795 121.925C532.788 121.925 533.657 121.562 534.361 120.859C535.063 120.156 535.425 119.287 535.425 118.295C535.425 117.304 535.063 116.434 534.361 115.731ZM524.047 125.739L524.047 125.739C522.243 123.074 521.4 120.693 521.4 118.576C521.4 115.264 522.457 112.704 524.519 110.802L524.519 110.802C526.628 108.857 529.042 107.9 531.795 107.9C534.549 107.9 536.963 108.857 539.072 110.802L539.072 110.802C541.134 112.704 542.19 115.264 542.19 118.576C542.19 120.693 541.348 123.074 539.545 125.739C537.831 128.273 535.256 131.04 531.795 134.038C528.335 131.04 525.761 128.273 524.047 125.739Z" fill="#FFB3CE" stroke="black" stroke-width="1.65"/>
<rect x="374.962" y="420.162" width="120.925" height="37.125" rx="8.6625" fill="#02C27F"/>
<circle cx="399.299" cy="438.724" r="4.95" fill="#FF884D" stroke="black" stroke-width="1.65"/>
<path d="M422.017 447.462C420.934 447.462 419.924 447.27 418.987 446.888C418.05 446.505 417.232 445.97 416.532 445.284C415.832 444.597 415.285 443.792 414.889 442.868C414.506 441.931 414.314 440.921 414.314 439.839C414.314 438.743 414.506 437.733 414.889 436.809C415.271 435.885 415.813 435.08 416.512 434.394C417.212 433.707 418.03 433.179 418.967 432.81C419.905 432.427 420.921 432.236 422.017 432.236C423.112 432.236 424.129 432.427 425.066 432.81C426.003 433.193 426.821 433.727 427.521 434.414C428.221 435.087 428.762 435.885 429.145 436.809C429.541 437.733 429.739 438.743 429.739 439.839C429.739 440.921 429.541 441.931 429.145 442.868C428.749 443.792 428.201 444.597 427.501 445.284C426.802 445.97 425.983 446.505 425.046 446.888C424.122 447.27 423.112 447.462 422.017 447.462ZM422.017 445.007C422.743 445.007 423.409 444.881 424.016 444.63C424.624 444.366 425.152 444.003 425.6 443.541C426.062 443.079 426.412 442.532 426.65 441.898C426.901 441.264 427.026 440.578 427.026 439.839C427.026 439.1 426.901 438.42 426.65 437.799C426.412 437.166 426.062 436.618 425.6 436.156C425.152 435.681 424.624 435.318 424.016 435.067C423.409 434.816 422.743 434.691 422.017 434.691C421.304 434.691 420.644 434.816 420.037 435.067C419.429 435.318 418.895 435.681 418.433 436.156C417.984 436.618 417.634 437.166 417.383 437.799C417.133 438.42 417.007 439.1 417.007 439.839C417.007 440.578 417.133 441.264 417.383 441.898C417.634 442.532 417.984 443.079 418.433 443.541C418.895 444.003 419.429 444.366 420.037 444.63C420.644 444.881 421.304 445.007 422.017 445.007ZM436.35 451.58C435.545 451.58 434.799 451.448 434.113 451.184C433.427 450.92 432.833 450.551 432.331 450.075C431.843 449.613 431.486 449.066 431.262 448.432L433.677 447.521C433.836 448.023 434.146 448.425 434.608 448.729C435.083 449.046 435.664 449.204 436.35 449.204C436.878 449.204 437.34 449.105 437.736 448.907C438.146 448.709 438.462 448.419 438.687 448.036C438.911 447.666 439.023 447.218 439.023 446.69V444.234L439.518 444.828C439.149 445.475 438.654 445.964 438.033 446.294C437.413 446.624 436.707 446.789 435.915 446.789C434.912 446.789 434.014 446.558 433.222 446.096C432.43 445.634 431.81 445 431.361 444.195C430.912 443.39 430.688 442.485 430.688 441.482C430.688 440.466 430.912 439.562 431.361 438.77C431.81 437.978 432.423 437.357 433.202 436.908C433.981 436.446 434.865 436.215 435.855 436.215C436.661 436.215 437.367 436.387 437.974 436.73C438.594 437.06 439.109 437.542 439.518 438.176L439.162 438.829V436.453H441.617V446.69C441.617 447.627 441.386 448.465 440.924 449.204C440.475 449.943 439.855 450.524 439.063 450.947C438.284 451.369 437.38 451.58 436.35 451.58ZM436.232 444.393C436.786 444.393 437.268 444.274 437.677 444.036C438.099 443.786 438.429 443.442 438.667 443.007C438.905 442.571 439.023 442.07 439.023 441.502C439.023 440.948 438.898 440.453 438.647 440.017C438.41 439.568 438.08 439.218 437.657 438.968C437.248 438.717 436.773 438.591 436.232 438.591C435.69 438.591 435.202 438.717 434.766 438.968C434.331 439.218 433.988 439.568 433.737 440.017C433.499 440.453 433.38 440.948 433.38 441.502C433.38 442.056 433.499 442.551 433.737 442.987C433.988 443.423 434.324 443.766 434.747 444.017C435.182 444.267 435.677 444.393 436.232 444.393ZM447.089 447.462C446.257 447.462 445.531 447.277 444.911 446.907C444.304 446.538 443.835 446.023 443.505 445.363C443.188 444.703 443.03 443.931 443.03 443.046V436.453H445.624V442.829C445.624 443.277 445.709 443.673 445.881 444.017C446.066 444.347 446.323 444.611 446.653 444.809C446.996 444.993 447.379 445.086 447.802 445.086C448.224 445.086 448.6 444.993 448.93 444.809C449.26 444.611 449.518 444.34 449.702 443.997C449.887 443.654 449.98 443.244 449.98 442.769V436.453H452.573V447.224H450.118V445.106L450.336 445.482C450.085 446.142 449.669 446.637 449.089 446.967C448.521 447.297 447.854 447.462 447.089 447.462ZM459.202 447.462C458.159 447.462 457.228 447.218 456.41 446.729C455.592 446.228 454.945 445.548 454.47 444.69C453.994 443.832 453.757 442.881 453.757 441.839C453.757 440.783 453.994 439.832 454.47 438.987C454.945 438.143 455.592 437.469 456.41 436.968C457.242 436.466 458.166 436.215 459.182 436.215C460 436.215 460.726 436.38 461.36 436.71C462.007 437.027 462.515 437.476 462.885 438.057L462.489 438.591V432.236H465.082V447.224H462.627V445.145L462.904 445.66C462.535 446.241 462.02 446.69 461.36 447.006C460.7 447.31 459.981 447.462 459.202 447.462ZM459.479 445.086C460.073 445.086 460.594 444.947 461.043 444.67C461.492 444.393 461.842 444.01 462.093 443.522C462.357 443.033 462.489 442.472 462.489 441.839C462.489 441.218 462.357 440.664 462.093 440.175C461.842 439.674 461.492 439.284 461.043 439.007C460.594 438.73 460.073 438.591 459.479 438.591C458.898 438.591 458.377 438.737 457.915 439.027C457.453 439.304 457.09 439.687 456.826 440.175C456.575 440.651 456.45 441.205 456.45 441.839C456.45 442.472 456.575 443.033 456.826 443.522C457.09 444.01 457.453 444.393 457.915 444.67C458.377 444.947 458.898 445.086 459.479 445.086ZM470.545 447.462C469.713 447.462 468.987 447.277 468.367 446.907C467.76 446.538 467.291 446.023 466.961 445.363C466.644 444.703 466.486 443.931 466.486 443.046V436.453H469.08V442.829C469.08 443.277 469.165 443.673 469.337 444.017C469.522 444.347 469.779 444.611 470.109 444.809C470.452 444.993 470.835 445.086 471.258 445.086C471.68 445.086 472.056 444.993 472.386 444.809C472.716 444.611 472.974 444.34 473.158 443.997C473.343 443.654 473.436 443.244 473.436 442.769V436.453H476.029V447.224H473.574V445.106L473.792 445.482C473.541 446.142 473.125 446.637 472.545 446.967C471.977 447.297 471.31 447.462 470.545 447.462Z" fill="black"/>
<rect x="374.962" y="420.162" width="120.925" height="37.125" rx="8.6625" stroke="black" stroke-width="2.475"/>
<path d="M437.01 479.555L437.009 479.554C436.306 478.852 435.436 478.49 434.444 478.49C433.453 478.49 432.583 478.852 431.881 479.555C431.178 480.258 430.814 481.128 430.814 482.12C430.814 483.112 431.177 483.981 431.881 484.684C432.583 485.387 433.452 485.75 434.444 485.75C435.436 485.75 436.306 485.387 437.009 484.684C437.712 483.981 438.074 483.112 438.074 482.12C438.074 481.128 437.712 480.259 437.01 479.555ZM426.696 489.564L426.696 489.563C424.892 486.899 424.049 484.517 424.049 482.4C424.049 479.088 425.106 476.528 427.168 474.627L427.168 474.627C429.276 472.682 431.691 471.725 434.444 471.725C437.198 471.725 439.612 472.682 441.721 474.627L441.721 474.627C443.783 476.528 444.839 479.088 444.839 482.4C444.839 484.517 443.997 486.899 442.194 489.563C440.48 492.098 437.905 494.864 434.444 497.863C430.984 494.865 428.41 492.098 426.696 489.564Z" fill="#02C27F" stroke="black" stroke-width="1.65"/>
<rect x="317.703" y="271.328" width="96.5587" height="27.1035" rx="6.32416" fill="#FFC501"/>
<circle cx="335.471" cy="284.88" r="3.6138" fill="#02C27F" stroke="black" stroke-width="1.2046"/>
<path d="M350.596 291.053C349.911 291.053 349.275 290.928 348.687 290.678C348.109 290.427 347.608 290.08 347.184 289.637C346.77 289.184 346.466 288.659 346.273 288.061L347.907 287.353C348.167 287.97 348.543 288.456 349.034 288.813C349.526 289.16 350.08 289.333 350.697 289.333C351.044 289.333 351.342 289.28 351.593 289.174C351.853 289.059 352.051 288.904 352.186 288.712C352.33 288.519 352.402 288.288 352.402 288.018C352.402 287.7 352.306 287.44 352.113 287.237C351.93 287.025 351.651 286.861 351.275 286.746L349.208 286.081C348.369 285.821 347.738 285.43 347.314 284.91C346.89 284.389 346.678 283.778 346.678 283.074C346.678 282.457 346.828 281.913 347.126 281.441C347.435 280.968 347.859 280.602 348.398 280.342C348.948 280.072 349.574 279.937 350.278 279.937C350.923 279.937 351.516 280.053 352.056 280.284C352.595 280.506 353.058 280.819 353.443 281.224C353.838 281.619 354.132 282.086 354.325 282.626L352.706 283.349C352.494 282.809 352.176 282.395 351.752 282.106C351.328 281.807 350.836 281.657 350.278 281.657C349.95 281.657 349.661 281.715 349.41 281.831C349.16 281.937 348.962 282.091 348.818 282.293C348.683 282.486 348.615 282.718 348.615 282.987C348.615 283.286 348.712 283.551 348.904 283.782C349.097 284.004 349.391 284.177 349.786 284.303L351.766 284.924C352.624 285.204 353.265 285.589 353.689 286.081C354.123 286.572 354.339 287.179 354.339 287.902C354.339 288.519 354.18 289.063 353.862 289.536C353.544 290.008 353.106 290.379 352.547 290.649C351.988 290.918 351.338 291.053 350.596 291.053ZM358.177 291.053C357.57 291.053 357.04 290.918 356.587 290.649C356.143 290.379 355.801 290.003 355.56 289.521C355.329 289.039 355.213 288.475 355.213 287.83V283.016H357.107V287.671C357.107 287.998 357.17 288.288 357.295 288.538C357.43 288.779 357.618 288.972 357.859 289.116C358.109 289.251 358.389 289.319 358.697 289.319C359.006 289.319 359.28 289.251 359.521 289.116C359.762 288.972 359.95 288.774 360.085 288.524C360.22 288.273 360.287 287.974 360.287 287.627V283.016H362.181V290.88H360.388V289.333L360.547 289.608C360.364 290.09 360.061 290.451 359.637 290.692C359.222 290.933 358.736 291.053 358.177 291.053ZM363.363 290.88V283.016H365.141V284.765L364.996 284.505C365.179 283.917 365.464 283.508 365.849 283.276C366.244 283.045 366.717 282.93 367.266 282.93H367.728V284.606H367.049C366.509 284.606 366.076 284.775 365.748 285.112C365.42 285.44 365.257 285.902 365.257 286.5V290.88H363.363ZM370.996 291.053C370.388 291.053 369.858 290.918 369.406 290.649C368.962 290.379 368.62 290.003 368.379 289.521C368.148 289.039 368.032 288.475 368.032 287.83V283.016H369.926V287.671C369.926 287.998 369.989 288.288 370.114 288.538C370.249 288.779 370.437 288.972 370.678 289.116C370.928 289.251 371.208 289.319 371.516 289.319C371.824 289.319 372.099 289.251 372.34 289.116C372.581 288.972 372.769 288.774 372.904 288.524C373.039 288.273 373.106 287.974 373.106 287.627V283.016H375V290.88H373.207V289.333L373.366 289.608C373.183 290.09 372.88 290.451 372.456 290.692C372.041 290.933 371.555 291.053 370.996 291.053ZM376.182 290.88V279.937H378.075V290.88H376.182ZM382.975 291.053C382.166 291.053 381.457 290.87 380.85 290.504C380.243 290.138 379.771 289.642 379.434 289.015C379.096 288.389 378.928 287.695 378.928 286.934C378.928 286.143 379.096 285.445 379.434 284.838C379.78 284.221 380.248 283.734 380.836 283.378C381.433 283.021 382.098 282.843 382.83 282.843C383.447 282.843 383.987 282.944 384.449 283.146C384.922 283.349 385.322 283.628 385.649 283.985C385.977 284.341 386.227 284.751 386.401 285.213C386.574 285.666 386.661 286.158 386.661 286.688C386.661 286.823 386.651 286.963 386.632 287.107C386.623 287.252 386.598 287.377 386.56 287.483H380.489V286.037H385.49L384.594 286.717C384.681 286.273 384.657 285.878 384.522 285.531C384.396 285.185 384.184 284.91 383.886 284.708C383.597 284.505 383.245 284.404 382.83 284.404C382.435 284.404 382.084 284.505 381.775 284.708C381.467 284.9 381.231 285.189 381.067 285.575C380.913 285.951 380.855 286.408 380.893 286.948C380.855 287.43 380.918 287.859 381.081 288.235C381.255 288.601 381.505 288.885 381.833 289.087C382.17 289.29 382.556 289.391 382.989 289.391C383.423 289.391 383.789 289.299 384.088 289.116C384.396 288.933 384.637 288.688 384.811 288.379L386.343 289.131C386.189 289.507 385.948 289.839 385.62 290.128C385.293 290.417 384.902 290.644 384.449 290.808C384.006 290.971 383.515 291.053 382.975 291.053ZM387.518 290.88V283.016H389.296V284.765L389.152 284.505C389.335 283.917 389.619 283.508 390.005 283.276C390.4 283.045 390.872 282.93 391.421 282.93H391.884V284.606H391.204C390.665 284.606 390.231 284.775 389.903 285.112C389.576 285.44 389.412 285.902 389.412 286.5V290.88H387.518ZM396.076 291.053C395.267 291.053 394.558 290.87 393.951 290.504C393.344 290.138 392.872 289.642 392.535 289.015C392.197 288.389 392.029 287.695 392.029 286.934C392.029 286.143 392.197 285.445 392.535 284.838C392.882 284.221 393.349 283.734 393.937 283.378C394.534 283.021 395.199 282.843 395.932 282.843C396.548 282.843 397.088 282.944 397.551 283.146C398.023 283.349 398.423 283.628 398.75 283.985C399.078 284.341 399.329 284.751 399.502 285.213C399.676 285.666 399.762 286.158 399.762 286.688C399.762 286.823 399.753 286.963 399.733 287.107C399.724 287.252 399.7 287.377 399.661 287.483H393.59V286.037H398.591L397.695 286.717C397.782 286.273 397.758 285.878 397.623 285.531C397.498 285.185 397.286 284.91 396.987 284.708C396.698 284.505 396.346 284.404 395.932 284.404C395.537 284.404 395.185 284.505 394.876 284.708C394.568 284.9 394.332 285.189 394.168 285.575C394.014 285.951 393.956 286.408 393.995 286.948C393.956 287.43 394.019 287.859 394.183 288.235C394.356 288.601 394.607 288.885 394.934 289.087C395.272 289.29 395.657 289.391 396.091 289.391C396.524 289.391 396.891 289.299 397.189 289.116C397.498 288.933 397.739 288.688 397.912 288.379L399.444 289.131C399.29 289.507 399.049 289.839 398.722 290.128C398.394 290.417 398.004 290.644 397.551 290.808C397.107 290.971 396.616 291.053 396.076 291.053Z" fill="black"/>
<rect x="317.703" y="271.328" width="96.5587" height="27.1035" rx="6.32416" stroke="black" stroke-width="1.8069"/>
<path d="M371.003 322.597C369.751 324.447 367.872 326.467 365.345 328.656C362.819 326.467 360.939 324.447 359.688 322.597L359.688 322.597C358.371 320.652 357.756 318.913 357.756 317.368C357.756 314.95 358.527 313.081 360.033 311.693L360.033 311.693C361.572 310.273 363.335 309.574 365.345 309.574C367.356 309.574 369.118 310.273 370.657 311.693L370.657 311.693C372.163 313.081 372.934 314.95 372.934 317.368C372.934 318.913 372.319 320.652 371.003 322.597ZM371.003 322.597L371.502 322.935L371.003 322.597ZM367.218 315.291L367.217 315.29C366.704 314.777 366.069 314.513 365.345 314.513C364.621 314.513 363.986 314.777 363.473 315.29C362.96 315.804 362.695 316.439 362.695 317.163C362.695 317.887 362.96 318.522 363.474 319.035C363.986 319.548 364.621 319.813 365.345 319.813C366.069 319.813 366.704 319.548 367.218 319.035C367.731 318.522 367.995 317.887 367.995 317.163C367.995 316.439 367.731 315.804 367.218 315.291Z" fill="#FFC501" stroke="black" stroke-width="1.2046"/>
<rect x="31.7624" y="440.787" width="96.525" height="37.125" rx="8.6625" fill="#FF884D"/>
<circle cx="54.3999" cy="459.35" r="4.95" fill="#02C27F" stroke="black" stroke-width="1.65"/>
<path d="M69.8505 467.85V453.099H72.5433V467.85H69.8505ZM74.3708 467.85V452.861H76.9646V462.682L75.9746 462.385L81.0434 457.078H84.2708L80.291 461.415L84.35 467.85H81.38L77.8556 462.266L79.4 461.949L76.1528 465.434L76.9646 463.85V467.85H74.3708ZM89.9214 468.087C88.8126 468.087 87.8424 467.836 87.0108 467.335C86.1792 466.833 85.5324 466.153 85.0704 465.295C84.6084 464.437 84.3774 463.487 84.3774 462.444C84.3774 461.362 84.6084 460.405 85.0704 459.573C85.5456 458.728 86.1858 458.062 86.991 457.573C87.8094 457.085 88.7202 456.841 89.7234 456.841C90.5682 456.841 91.3074 456.979 91.941 457.257C92.5878 457.534 93.1356 457.917 93.5844 458.405C94.0332 458.893 94.3764 459.454 94.614 460.088C94.8516 460.708 94.9704 461.382 94.9704 462.108C94.9704 462.292 94.9572 462.484 94.9308 462.682C94.9176 462.88 94.8846 463.051 94.8318 463.197H86.5158V461.217H93.3666L92.139 462.147C92.2578 461.54 92.2248 460.999 92.04 460.524C91.8684 460.048 91.578 459.672 91.1688 459.395C90.7728 459.118 90.291 458.979 89.7234 458.979C89.1822 458.979 88.7004 459.118 88.278 459.395C87.8556 459.659 87.5322 460.055 87.3078 460.583C87.0966 461.098 87.0174 461.725 87.0702 462.464C87.0174 463.124 87.1032 463.711 87.3276 464.226C87.5652 464.728 87.9084 465.117 88.3572 465.394C88.8192 465.672 89.3472 465.81 89.9412 465.81C90.5352 465.81 91.0368 465.685 91.446 465.434C91.8684 465.183 92.1984 464.847 92.436 464.424L94.5348 465.454C94.3236 465.969 93.9936 466.424 93.5448 466.82C93.096 467.216 92.5614 467.526 91.941 467.751C91.3338 467.975 90.6606 468.087 89.9214 468.087ZM94.6596 472.225C94.488 472.225 94.3098 472.219 94.125 472.206C93.9402 472.192 93.7884 472.173 93.6696 472.146V469.889C93.9072 469.929 94.1448 469.948 94.3824 469.948C94.9368 469.948 95.3658 469.816 95.6694 469.552C95.9862 469.302 96.1446 468.912 96.1446 468.384V457.078H98.7384V468.384C98.7384 469.203 98.5734 469.896 98.2434 470.463C97.9134 471.044 97.4382 471.48 96.8178 471.77C96.2106 472.074 95.4912 472.225 94.6596 472.225ZM96.1446 455.871V453.099H98.7384V455.871H96.1446ZM103.608 468.087C102.856 468.087 102.202 467.962 101.648 467.711C101.094 467.46 100.665 467.104 100.361 466.642C100.057 466.167 99.9057 465.619 99.9057 464.998C99.9057 464.404 100.038 463.876 100.302 463.414C100.566 462.939 100.975 462.543 101.529 462.226C102.084 461.91 102.783 461.685 103.628 461.553L107.152 460.979V462.959L104.123 463.474C103.608 463.566 103.225 463.731 102.975 463.969C102.724 464.206 102.598 464.517 102.598 464.899C102.598 465.269 102.737 465.566 103.014 465.79C103.305 466.002 103.661 466.107 104.083 466.107C104.625 466.107 105.1 465.995 105.509 465.771C105.931 465.533 106.255 465.21 106.479 464.8C106.717 464.391 106.836 463.942 106.836 463.454V460.682C106.836 460.22 106.651 459.837 106.281 459.534C105.925 459.217 105.45 459.058 104.856 459.058C104.301 459.058 103.806 459.21 103.371 459.514C102.948 459.804 102.638 460.194 102.44 460.682L100.321 459.652C100.533 459.085 100.863 458.596 101.311 458.187C101.773 457.765 102.315 457.435 102.935 457.197C103.555 456.96 104.229 456.841 104.955 456.841C105.839 456.841 106.618 457.006 107.291 457.336C107.964 457.653 108.486 458.101 108.855 458.682C109.238 459.25 109.429 459.916 109.429 460.682V467.85H106.974V466.008L107.529 465.969C107.251 466.431 106.921 466.82 106.539 467.137C106.156 467.44 105.72 467.678 105.232 467.85C104.743 468.008 104.202 468.087 103.608 468.087Z" fill="black"/>
<rect x="31.7624" y="440.787" width="96.525" height="37.125" rx="8.6625" stroke="black" stroke-width="2.475"/>
<path d="M82.2602 501.005L82.2592 501.004C81.556 500.302 80.6863 499.94 79.6946 499.94C78.7029 499.94 77.8334 500.302 77.1309 501.005C76.4278 501.708 76.0646 502.577 76.0646 503.57C76.0646 504.562 76.4277 505.431 77.1309 506.133C77.8332 506.837 78.7027 507.2 79.6946 507.2C80.6867 507.2 81.5566 506.836 82.2597 506.133C82.9622 505.431 83.3246 504.561 83.3246 503.57C83.3246 502.578 82.9622 501.708 82.2602 501.005ZM71.9462 511.013L71.946 511.013C70.1425 508.349 69.2996 505.967 69.2996 503.85C69.2996 500.538 70.3562 497.978 72.4181 496.077L72.4182 496.077C74.5267 494.132 76.9408 493.175 79.6946 493.175C82.4484 493.175 84.8625 494.132 86.971 496.077L86.9711 496.077C89.033 497.978 90.0896 500.538 90.0896 503.85C90.0896 505.967 89.2471 508.349 87.4446 511.013C85.7298 513.547 83.1554 516.314 79.6946 519.312C76.2339 516.314 73.66 513.547 71.9462 511.013Z" fill="#FF884D" stroke="black" stroke-width="1.65"/>
<rect x="96" y="543" width="410" height="52" rx="26" fill="#FFF4D4"/>
<path d="M126 569C126.367 569 126.681 568.869 126.942 568.608C127.203 568.347 127.333 568.033 127.333 567.667C127.333 567.3 127.203 566.986 126.942 566.725C126.681 566.464 126.367 566.333 126 566.333C125.633 566.333 125.32 566.464 125.059 566.725C124.797 566.986 124.667 567.3 124.667 567.667C124.667 568.033 124.797 568.347 125.059 568.608C125.32 568.869 125.633 569 126 569ZM126 575.417C125.911 575.417 125.822 575.4 125.733 575.367C125.644 575.333 125.567 575.289 125.5 575.233C123.878 573.8 122.667 572.47 121.867 571.242C121.067 570.014 120.667 568.867 120.667 567.8C120.667 566.133 121.203 564.806 122.275 563.817C123.347 562.828 124.589 562.333 126 562.333C127.411 562.333 128.653 562.828 129.725 563.817C130.797 564.806 131.333 566.133 131.333 567.8C131.333 568.867 130.933 570.014 130.133 571.242C129.333 572.47 128.122 573.8 126.5 575.233C126.433 575.289 126.356 575.333 126.267 575.367C126.178 575.4 126.089 575.417 126 575.417Z" fill="#02C27F"/>
<path d="M143.136 574.144C142.504 574.144 141.924 574.032 141.396 573.808C140.868 573.576 140.408 573.256 140.016 572.848C139.632 572.432 139.332 571.944 139.116 571.384C138.9 570.824 138.792 570.208 138.792 569.536C138.792 568.864 138.9 568.248 139.116 567.688C139.332 567.128 139.632 566.64 140.016 566.224C140.408 565.808 140.868 565.488 141.396 565.264C141.924 565.032 142.504 564.916 143.136 564.916C143.744 564.916 144.288 565.024 144.768 565.24C145.256 565.456 145.664 565.736 145.992 566.08C146.328 566.416 146.568 566.772 146.712 567.148L145.812 567.544C145.588 567.024 145.244 566.608 144.78 566.296C144.324 565.976 143.776 565.816 143.136 565.816C142.48 565.816 141.896 565.972 141.384 566.284C140.872 566.596 140.472 567.032 140.184 567.592C139.896 568.144 139.752 568.792 139.752 569.536C139.752 570.272 139.896 570.92 140.184 571.48C140.472 572.04 140.872 572.476 141.384 572.788C141.896 573.092 142.48 573.244 143.136 573.244C143.776 573.244 144.324 573.088 144.78 572.776C145.244 572.464 145.588 572.048 145.812 571.528L146.712 571.924C146.568 572.292 146.328 572.648 145.992 572.992C145.664 573.328 145.256 573.604 144.768 573.82C144.288 574.036 143.744 574.144 143.136 574.144ZM148.539 574V564.916H149.439V574H148.539ZM151.521 574V567.568H152.421V574H151.521ZM151.521 566.38V565.06H152.421V566.38H151.521ZM157.443 574.144C156.811 574.144 156.255 573.996 155.775 573.7C155.295 573.404 154.919 573.004 154.647 572.5C154.375 571.988 154.239 571.412 154.239 570.772C154.239 570.132 154.375 569.56 154.647 569.056C154.919 568.552 155.295 568.156 155.775 567.868C156.255 567.572 156.811 567.424 157.443 567.424C157.843 567.424 158.219 567.496 158.571 567.64C158.923 567.784 159.235 567.98 159.507 568.228C159.779 568.468 159.983 568.748 160.119 569.068L159.303 569.488C159.143 569.144 158.899 568.864 158.571 568.648C158.243 568.432 157.867 568.324 157.443 568.324C157.019 568.324 156.635 568.432 156.291 568.648C155.955 568.856 155.687 569.148 155.487 569.524C155.295 569.892 155.199 570.312 155.199 570.784C155.199 571.248 155.295 571.668 155.487 572.044C155.687 572.412 155.955 572.704 156.291 572.92C156.635 573.136 157.019 573.244 157.443 573.244C157.867 573.244 158.239 573.136 158.559 572.92C158.887 572.704 159.135 572.416 159.303 572.056L160.119 572.5C159.983 572.812 159.779 573.092 159.507 573.34C159.235 573.588 158.923 573.784 158.571 573.928C158.219 574.072 157.843 574.144 157.443 574.144ZM161.939 574V564.916H162.839V571.276L162.455 571.216L166.067 567.568H167.231L164.711 570.148L167.459 574H166.379L163.799 570.436L164.375 570.484L162.539 572.38L162.839 571.636V574H161.939ZM174.044 574.144C173.436 574.144 172.884 574 172.388 573.712C171.892 573.416 171.496 573.016 171.2 572.512C170.912 572 170.768 571.42 170.768 570.772C170.768 570.132 170.912 569.56 171.2 569.056C171.488 568.552 171.876 568.156 172.364 567.868C172.86 567.572 173.42 567.424 174.044 567.424C174.668 567.424 175.224 567.568 175.712 567.856C176.208 568.144 176.596 568.54 176.876 569.044C177.164 569.548 177.308 570.124 177.308 570.772C177.308 571.428 177.16 572.012 176.864 572.524C176.568 573.028 176.172 573.424 175.676 573.712C175.188 574 174.644 574.144 174.044 574.144ZM174.044 573.244C174.476 573.244 174.864 573.136 175.208 572.92C175.56 572.704 175.836 572.408 176.036 572.032C176.244 571.656 176.348 571.236 176.348 570.772C176.348 570.308 176.244 569.892 176.036 569.524C175.836 569.156 175.56 568.864 175.208 568.648C174.864 568.432 174.476 568.324 174.044 568.324C173.612 568.324 173.22 568.432 172.868 568.648C172.524 568.864 172.248 569.156 172.04 569.524C171.832 569.892 171.728 570.308 171.728 570.772C171.728 571.236 171.832 571.656 172.04 572.032C172.248 572.408 172.524 572.704 172.868 572.92C173.22 573.136 173.612 573.244 174.044 573.244ZM179.135 574V567.568H180.035V568.816L179.831 568.768C179.991 568.352 180.251 568.024 180.611 567.784C180.979 567.544 181.403 567.424 181.883 567.424C182.339 567.424 182.747 567.528 183.107 567.736C183.475 567.944 183.763 568.232 183.971 568.6C184.187 568.96 184.295 569.368 184.295 569.824V574H183.395V570.172C183.395 569.78 183.323 569.448 183.179 569.176C183.043 568.904 182.847 568.696 182.591 568.552C182.343 568.4 182.055 568.324 181.727 568.324C181.399 568.324 181.107 568.4 180.851 568.552C180.595 568.696 180.395 568.908 180.251 569.188C180.107 569.46 180.035 569.788 180.035 570.172V574H179.135ZM190.393 574.144C189.985 574.144 189.621 574.068 189.301 573.916C188.981 573.756 188.729 573.54 188.545 573.268C188.361 572.996 188.269 572.684 188.269 572.332C188.269 571.996 188.341 571.692 188.485 571.42C188.629 571.14 188.853 570.904 189.157 570.712C189.461 570.52 189.849 570.384 190.321 570.304L192.841 569.884V570.7L190.537 571.084C190.073 571.164 189.737 571.312 189.529 571.528C189.329 571.744 189.229 572 189.229 572.296C189.229 572.584 189.341 572.828 189.565 573.028C189.797 573.228 190.093 573.328 190.453 573.328C190.893 573.328 191.277 573.236 191.605 573.052C191.933 572.86 192.189 572.604 192.373 572.284C192.557 571.964 192.649 571.608 192.649 571.216V569.584C192.649 569.2 192.509 568.888 192.229 568.648C191.949 568.408 191.585 568.288 191.137 568.288C190.745 568.288 190.401 568.388 190.105 568.588C189.809 568.78 189.589 569.032 189.445 569.344L188.629 568.9C188.749 568.628 188.937 568.38 189.193 568.156C189.457 567.932 189.757 567.756 190.093 567.628C190.429 567.492 190.777 567.424 191.137 567.424C191.609 567.424 192.025 567.516 192.385 567.7C192.753 567.884 193.037 568.14 193.237 568.468C193.445 568.788 193.549 569.16 193.549 569.584V574H192.649V572.716L192.781 572.848C192.669 573.088 192.493 573.308 192.253 573.508C192.021 573.7 191.745 573.856 191.425 573.976C191.113 574.088 190.769 574.144 190.393 574.144ZM195.64 574V567.568H196.54V568.816L196.336 568.768C196.496 568.352 196.756 568.024 197.116 567.784C197.484 567.544 197.908 567.424 198.388 567.424C198.844 567.424 199.252 567.528 199.612 567.736C199.98 567.944 200.268 568.232 200.476 568.6C200.692 568.96 200.8 569.368 200.8 569.824V574H199.9V570.172C199.9 569.78 199.828 569.448 199.684 569.176C199.548 568.904 199.352 568.696 199.096 568.552C198.848 568.4 198.56 568.324 198.232 568.324C197.904 568.324 197.612 568.4 197.356 568.552C197.1 568.696 196.9 568.908 196.756 569.188C196.612 569.46 196.54 569.788 196.54 570.172V574H195.64ZM202.774 576.64C202.646 576.64 202.514 576.628 202.378 576.604C202.25 576.588 202.122 576.556 201.994 576.508V575.668C202.074 575.676 202.174 575.688 202.294 575.704C202.422 575.728 202.55 575.74 202.678 575.74C203.07 575.74 203.37 575.656 203.578 575.488C203.786 575.328 203.99 575.016 204.19 574.552L204.598 573.592L204.574 574.384L201.85 567.568H202.822L205.054 573.196H204.802L207.022 567.568H208.018L205.078 574.816C204.95 575.128 204.786 575.424 204.586 575.704C204.394 575.984 204.15 576.208 203.854 576.376C203.558 576.552 203.198 576.64 202.774 576.64ZM211.595 574V564.916H212.495V574H211.595ZM214.577 574V567.568H215.477V574H214.577ZM214.577 566.38V565.06H215.477V566.38H214.577ZM219.275 574L216.767 567.568H217.775L219.887 573.208H219.563L221.687 567.568H222.707L220.175 574H219.275ZM226.809 574.144C226.209 574.144 225.665 574 225.177 573.712C224.697 573.416 224.317 573.012 224.037 572.5C223.757 571.988 223.617 571.408 223.617 570.76C223.617 570.112 223.753 569.54 224.025 569.044C224.297 568.54 224.665 568.144 225.129 567.856C225.601 567.568 226.129 567.424 226.713 567.424C227.177 567.424 227.589 567.512 227.949 567.688C228.317 567.856 228.629 568.088 228.885 568.384C229.141 568.672 229.337 569 229.473 569.368C229.609 569.728 229.677 570.1 229.677 570.484C229.677 570.564 229.673 570.656 229.665 570.76C229.657 570.856 229.645 570.956 229.629 571.06H224.193V570.22H229.113L228.681 570.58C228.753 570.14 228.701 569.748 228.525 569.404C228.357 569.052 228.113 568.776 227.793 568.576C227.473 568.368 227.113 568.264 226.713 568.264C226.313 568.264 225.941 568.368 225.597 568.576C225.261 568.784 224.997 569.076 224.805 569.452C224.613 569.82 224.537 570.26 224.577 570.772C224.537 571.284 224.617 571.732 224.817 572.116C225.025 572.492 225.305 572.784 225.657 572.992C226.017 573.2 226.401 573.304 226.809 573.304C227.281 573.304 227.677 573.192 227.997 572.968C228.317 572.744 228.577 572.464 228.777 572.128L229.545 572.536C229.417 572.824 229.221 573.092 228.957 573.34C228.693 573.58 228.377 573.776 228.009 573.928C227.649 574.072 227.249 574.144 226.809 574.144ZM233.783 574V564.916H234.683V574H233.783ZM239.777 574.144C239.169 574.144 238.617 574 238.121 573.712C237.625 573.416 237.229 573.016 236.933 572.512C236.645 572 236.501 571.42 236.501 570.772C236.501 570.132 236.645 569.56 236.933 569.056C237.221 568.552 237.609 568.156 238.097 567.868C238.593 567.572 239.153 567.424 239.777 567.424C240.401 567.424 240.957 567.568 241.445 567.856C241.941 568.144 242.329 568.54 242.609 569.044C242.897 569.548 243.041 570.124 243.041 570.772C243.041 571.428 242.893 572.012 242.597 572.524C242.301 573.028 241.905 573.424 241.409 573.712C240.921 574 240.377 574.144 239.777 574.144ZM239.777 573.244C240.209 573.244 240.597 573.136 240.941 572.92C241.293 572.704 241.569 572.408 241.769 572.032C241.977 571.656 242.081 571.236 242.081 570.772C242.081 570.308 241.977 569.892 241.769 569.524C241.569 569.156 241.293 568.864 240.941 568.648C240.597 568.432 240.209 568.324 239.777 568.324C239.345 568.324 238.953 568.432 238.601 568.648C238.257 568.864 237.981 569.156 237.773 569.524C237.565 569.892 237.461 570.308 237.461 570.772C237.461 571.236 237.565 571.656 237.773 572.032C237.981 572.408 238.257 572.704 238.601 572.92C238.953 573.136 239.345 573.244 239.777 573.244ZM247.809 574.144C247.177 574.144 246.621 573.996 246.141 573.7C245.661 573.404 245.285 573.004 245.013 572.5C244.741 571.988 244.605 571.412 244.605 570.772C244.605 570.132 244.741 569.56 245.013 569.056C245.285 568.552 245.661 568.156 246.141 567.868C246.621 567.572 247.177 567.424 247.809 567.424C248.209 567.424 248.585 567.496 248.937 567.64C249.289 567.784 249.601 567.98 249.873 568.228C250.145 568.468 250.349 568.748 250.485 569.068L249.669 569.488C249.509 569.144 249.265 568.864 248.937 568.648C248.609 568.432 248.233 568.324 247.809 568.324C247.385 568.324 247.001 568.432 246.657 568.648C246.321 568.856 246.053 569.148 245.853 569.524C245.661 569.892 245.565 570.312 245.565 570.784C245.565 571.248 245.661 571.668 245.853 572.044C246.053 572.412 246.321 572.704 246.657 572.92C247.001 573.136 247.385 573.244 247.809 573.244C248.233 573.244 248.605 573.136 248.925 572.92C249.253 572.704 249.501 572.416 249.669 572.056L250.485 572.5C250.349 572.812 250.145 573.092 249.873 573.34C249.601 573.588 249.289 573.784 248.937 573.928C248.585 574.072 248.209 574.144 247.809 574.144ZM254.047 574.144C253.639 574.144 253.275 574.068 252.955 573.916C252.635 573.756 252.383 573.54 252.199 573.268C252.015 572.996 251.923 572.684 251.923 572.332C251.923 571.996 251.995 571.692 252.139 571.42C252.283 571.14 252.507 570.904 252.811 570.712C253.115 570.52 253.503 570.384 253.975 570.304L256.495 569.884V570.7L254.191 571.084C253.727 571.164 253.391 571.312 253.183 571.528C252.983 571.744 252.883 572 252.883 572.296C252.883 572.584 252.995 572.828 253.219 573.028C253.451 573.228 253.747 573.328 254.107 573.328C254.547 573.328 254.931 573.236 255.259 573.052C255.587 572.86 255.843 572.604 256.027 572.284C256.211 571.964 256.303 571.608 256.303 571.216V569.584C256.303 569.2 256.163 568.888 255.883 568.648C255.603 568.408 255.239 568.288 254.791 568.288C254.399 568.288 254.055 568.388 253.759 568.588C253.463 568.78 253.243 569.032 253.099 569.344L252.283 568.9C252.403 568.628 252.591 568.38 252.847 568.156C253.111 567.932 253.411 567.756 253.747 567.628C254.083 567.492 254.431 567.424 254.791 567.424C255.263 567.424 255.679 567.516 256.039 567.7C256.407 567.884 256.691 568.14 256.891 568.468C257.099 568.788 257.203 569.16 257.203 569.584V574H256.303V572.716L256.435 572.848C256.323 573.088 256.147 573.308 255.907 573.508C255.675 573.7 255.399 573.856 255.079 573.976C254.767 574.088 254.423 574.144 254.047 574.144ZM261.637 574.072C261.061 574.072 260.617 573.904 260.305 573.568C259.993 573.232 259.837 572.752 259.837 572.128V568.468H258.649V567.568H258.949C259.221 567.568 259.437 567.48 259.597 567.304C259.757 567.12 259.837 566.892 259.837 566.62V566.08H260.737V567.568H262.153V568.468H260.737V572.128C260.737 572.344 260.769 572.536 260.833 572.704C260.897 572.864 261.005 572.992 261.157 573.088C261.317 573.184 261.529 573.232 261.793 573.232C261.857 573.232 261.933 573.228 262.021 573.22C262.109 573.212 262.185 573.204 262.249 573.196V574C262.153 574.024 262.045 574.04 261.925 574.048C261.805 574.064 261.709 574.072 261.637 574.072ZM264.069 574V567.568H264.969V574H264.069ZM264.069 566.38V565.06H264.969V566.38H264.069ZM270.063 574.144C269.455 574.144 268.903 574 268.407 573.712C267.911 573.416 267.515 573.016 267.219 572.512C266.931 572 266.787 571.42 266.787 570.772C266.787 570.132 266.931 569.56 267.219 569.056C267.507 568.552 267.895 568.156 268.383 567.868C268.879 567.572 269.439 567.424 270.063 567.424C270.687 567.424 271.243 567.568 271.731 567.856C272.227 568.144 272.615 568.54 272.895 569.044C273.183 569.548 273.327 570.124 273.327 570.772C273.327 571.428 273.179 572.012 272.883 572.524C272.587 573.028 272.191 573.424 271.695 573.712C271.207 574 270.663 574.144 270.063 574.144ZM270.063 573.244C270.495 573.244 270.883 573.136 271.227 572.92C271.579 572.704 271.855 572.408 272.055 572.032C272.263 571.656 272.367 571.236 272.367 570.772C272.367 570.308 272.263 569.892 272.055 569.524C271.855 569.156 271.579 568.864 271.227 568.648C270.883 568.432 270.495 568.324 270.063 568.324C269.631 568.324 269.239 568.432 268.887 568.648C268.543 568.864 268.267 569.156 268.059 569.524C267.851 569.892 267.747 570.308 267.747 570.772C267.747 571.236 267.851 571.656 268.059 572.032C268.267 572.408 268.543 572.704 268.887 572.92C269.239 573.136 269.631 573.244 270.063 573.244ZM275.154 574V567.568H276.054V568.816L275.85 568.768C276.01 568.352 276.27 568.024 276.63 567.784C276.998 567.544 277.422 567.424 277.902 567.424C278.358 567.424 278.766 567.528 279.126 567.736C279.494 567.944 279.782 568.232 279.99 568.6C280.206 568.96 280.314 569.368 280.314 569.824V574H279.414V570.172C279.414 569.78 279.342 569.448 279.198 569.176C279.062 568.904 278.866 568.696 278.61 568.552C278.362 568.4 278.074 568.324 277.746 568.324C277.418 568.324 277.126 568.4 276.87 568.552C276.614 568.696 276.414 568.908 276.27 569.188C276.126 569.46 276.054 569.788 276.054 570.172V574H275.154ZM287.012 574.072C286.436 574.072 285.992 573.904 285.68 573.568C285.368 573.232 285.212 572.752 285.212 572.128V568.468H284.024V567.568H284.324C284.596 567.568 284.812 567.48 284.972 567.304C285.132 567.12 285.212 566.892 285.212 566.62V566.08H286.112V567.568H287.528V568.468H286.112V572.128C286.112 572.344 286.144 572.536 286.208 572.704C286.272 572.864 286.38 572.992 286.532 573.088C286.692 573.184 286.904 573.232 287.168 573.232C287.232 573.232 287.308 573.228 287.396 573.22C287.484 573.212 287.56 573.204 287.624 573.196V574C287.528 574.024 287.42 574.04 287.3 574.048C287.18 574.064 287.084 574.072 287.012 574.072ZM292.222 574.144C291.614 574.144 291.062 574 290.566 573.712C290.07 573.416 289.674 573.016 289.378 572.512C289.09 572 288.946 571.42 288.946 570.772C288.946 570.132 289.09 569.56 289.378 569.056C289.666 568.552 290.054 568.156 290.542 567.868C291.038 567.572 291.598 567.424 292.222 567.424C292.846 567.424 293.402 567.568 293.89 567.856C294.386 568.144 294.774 568.54 295.054 569.044C295.342 569.548 295.486 570.124 295.486 570.772C295.486 571.428 295.338 572.012 295.042 572.524C294.746 573.028 294.35 573.424 293.854 573.712C293.366 574 292.822 574.144 292.222 574.144ZM292.222 573.244C292.654 573.244 293.042 573.136 293.386 572.92C293.738 572.704 294.014 572.408 294.214 572.032C294.422 571.656 294.526 571.236 294.526 570.772C294.526 570.308 294.422 569.892 294.214 569.524C294.014 569.156 293.738 568.864 293.386 568.648C293.042 568.432 292.654 568.324 292.222 568.324C291.79 568.324 291.398 568.432 291.046 568.648C290.702 568.864 290.426 569.156 290.218 569.524C290.01 569.892 289.906 570.308 289.906 570.772C289.906 571.236 290.01 571.656 290.218 572.032C290.426 572.408 290.702 572.704 291.046 572.92C291.398 573.136 291.79 573.244 292.222 573.244ZM302.605 574.144C301.997 574.144 301.445 574 300.949 573.712C300.453 573.416 300.057 573.016 299.761 572.512C299.473 572 299.329 571.42 299.329 570.772C299.329 570.132 299.473 569.56 299.761 569.056C300.049 568.552 300.437 568.156 300.925 567.868C301.421 567.572 301.981 567.424 302.605 567.424C303.229 567.424 303.785 567.568 304.273 567.856C304.769 568.144 305.157 568.54 305.437 569.044C305.725 569.548 305.869 570.124 305.869 570.772C305.869 571.428 305.721 572.012 305.425 572.524C305.129 573.028 304.733 573.424 304.237 573.712C303.749 574 303.205 574.144 302.605 574.144ZM302.605 573.244C303.037 573.244 303.425 573.136 303.769 572.92C304.121 572.704 304.397 572.408 304.597 572.032C304.805 571.656 304.909 571.236 304.909 570.772C304.909 570.308 304.805 569.892 304.597 569.524C304.397 569.156 304.121 568.864 303.769 568.648C303.425 568.432 303.037 568.324 302.605 568.324C302.173 568.324 301.781 568.432 301.429 568.648C301.085 568.864 300.809 569.156 300.601 569.524C300.393 569.892 300.289 570.308 300.289 570.772C300.289 571.236 300.393 571.656 300.601 572.032C300.809 572.408 301.085 572.704 301.429 572.92C301.781 573.136 302.173 573.244 302.605 573.244ZM307.696 574V567.568H308.596V568.624L308.476 568.468C308.628 568.164 308.856 567.924 309.16 567.748C309.472 567.572 309.848 567.484 310.288 567.484H310.696V568.384H310.132C309.668 568.384 309.296 568.528 309.016 568.816C308.736 569.104 308.596 569.512 308.596 570.04V574H307.696ZM314.895 574.144C314.295 574.144 313.755 574 313.275 573.712C312.795 573.416 312.415 573.016 312.135 572.512C311.863 572 311.727 571.424 311.727 570.784C311.727 570.136 311.863 569.56 312.135 569.056C312.415 568.552 312.791 568.156 313.263 567.868C313.743 567.572 314.287 567.424 314.895 567.424C315.447 567.424 315.939 567.544 316.371 567.784C316.803 568.024 317.143 568.348 317.391 568.756L317.247 569.008V564.916H318.147V574H317.247V572.56L317.391 572.692C317.167 573.156 316.831 573.516 316.383 573.772C315.943 574.02 315.447 574.144 314.895 574.144ZM314.943 573.244C315.375 573.244 315.763 573.136 316.107 572.92C316.459 572.704 316.735 572.412 316.935 572.044C317.143 571.668 317.247 571.248 317.247 570.784C317.247 570.32 317.143 569.904 316.935 569.536C316.735 569.16 316.459 568.864 316.107 568.648C315.763 568.432 315.375 568.324 314.943 568.324C314.519 568.324 314.135 568.432 313.791 568.648C313.447 568.864 313.175 569.156 312.975 569.524C312.783 569.892 312.687 570.312 312.687 570.784C312.687 571.248 312.783 571.668 312.975 572.044C313.175 572.412 313.443 572.704 313.779 572.92C314.123 573.136 314.511 573.244 314.943 573.244ZM323.163 574.144C322.563 574.144 322.019 574 321.531 573.712C321.051 573.416 320.671 573.012 320.391 572.5C320.111 571.988 319.971 571.408 319.971 570.76C319.971 570.112 320.107 569.54 320.379 569.044C320.651 568.54 321.019 568.144 321.483 567.856C321.955 567.568 322.483 567.424 323.067 567.424C323.531 567.424 323.943 567.512 324.303 567.688C324.671 567.856 324.983 568.088 325.239 568.384C325.495 568.672 325.691 569 325.827 569.368C325.963 569.728 326.031 570.1 326.031 570.484C326.031 570.564 326.027 570.656 326.019 570.76C326.011 570.856 325.999 570.956 325.983 571.06H320.547V570.22H325.467L325.035 570.58C325.107 570.14 325.055 569.748 324.879 569.404C324.711 569.052 324.467 568.776 324.147 568.576C323.827 568.368 323.467 568.264 323.067 568.264C322.667 568.264 322.295 568.368 321.951 568.576C321.615 568.784 321.351 569.076 321.159 569.452C320.967 569.82 320.891 570.26 320.931 570.772C320.891 571.284 320.971 571.732 321.171 572.116C321.379 572.492 321.659 572.784 322.011 572.992C322.371 573.2 322.755 573.304 323.163 573.304C323.635 573.304 324.031 573.192 324.351 572.968C324.671 572.744 324.931 572.464 325.131 572.128L325.899 572.536C325.771 572.824 325.575 573.092 325.311 573.34C325.047 573.58 324.731 573.776 324.363 573.928C324.003 574.072 323.603 574.144 323.163 574.144ZM327.857 574V567.568H328.757V568.624L328.637 568.468C328.789 568.164 329.017 567.924 329.321 567.748C329.633 567.572 330.009 567.484 330.449 567.484H330.857V568.384H330.293C329.829 568.384 329.457 568.528 329.177 568.816C328.897 569.104 328.757 569.512 328.757 570.04V574H327.857ZM335.091 574V568.468H333.807V567.568H335.091V566.992C335.091 566.544 335.191 566.168 335.391 565.864C335.591 565.552 335.855 565.316 336.183 565.156C336.511 564.996 336.863 564.916 337.239 564.916C337.319 564.916 337.411 564.924 337.515 564.94C337.619 564.948 337.703 564.96 337.767 564.976V565.792C337.711 565.776 337.635 565.768 337.539 565.768C337.443 565.76 337.375 565.756 337.335 565.756C336.951 565.756 336.631 565.848 336.375 566.032C336.119 566.216 335.991 566.536 335.991 566.992V567.568H337.563V568.468H335.991V574H335.091ZM339.265 574V567.568H340.165V568.624L340.045 568.468C340.197 568.164 340.425 567.924 340.729 567.748C341.041 567.572 341.417 567.484 341.857 567.484H342.265V568.384H341.701C341.237 568.384 340.865 568.528 340.585 568.816C340.305 569.104 340.165 569.512 340.165 570.04V574H339.265ZM346.572 574.144C345.964 574.144 345.412 574 344.916 573.712C344.42 573.416 344.024 573.016 343.728 572.512C343.44 572 343.296 571.42 343.296 570.772C343.296 570.132 343.44 569.56 343.728 569.056C344.016 568.552 344.404 568.156 344.892 567.868C345.388 567.572 345.948 567.424 346.572 567.424C347.196 567.424 347.752 567.568 348.24 567.856C348.736 568.144 349.124 568.54 349.404 569.044C349.692 569.548 349.836 570.124 349.836 570.772C349.836 571.428 349.688 572.012 349.392 572.524C349.096 573.028 348.7 573.424 348.204 573.712C347.716 574 347.172 574.144 346.572 574.144ZM346.572 573.244C347.004 573.244 347.392 573.136 347.736 572.92C348.088 572.704 348.364 572.408 348.564 572.032C348.772 571.656 348.876 571.236 348.876 570.772C348.876 570.308 348.772 569.892 348.564 569.524C348.364 569.156 348.088 568.864 347.736 568.648C347.392 568.432 347.004 568.324 346.572 568.324C346.14 568.324 345.748 568.432 345.396 568.648C345.052 568.864 344.776 569.156 344.568 569.524C344.36 569.892 344.256 570.308 344.256 570.772C344.256 571.236 344.36 571.656 344.568 572.032C344.776 572.408 345.052 572.704 345.396 572.92C345.748 573.136 346.14 573.244 346.572 573.244ZM351.663 574V567.568H352.563V568.792L352.419 568.612C352.595 568.236 352.855 567.944 353.199 567.736C353.551 567.528 353.935 567.424 354.351 567.424C354.847 567.424 355.295 567.564 355.695 567.844C356.095 568.124 356.379 568.488 356.547 568.936L356.295 568.948C356.455 568.452 356.731 568.076 357.123 567.82C357.523 567.556 357.963 567.424 358.443 567.424C358.875 567.424 359.271 567.528 359.631 567.736C359.999 567.944 360.291 568.232 360.507 568.6C360.731 568.96 360.843 569.368 360.843 569.824V574H359.943V570.172C359.943 569.78 359.871 569.448 359.727 569.176C359.591 568.904 359.403 568.696 359.163 568.552C358.923 568.4 358.647 568.324 358.335 568.324C358.031 568.324 357.755 568.4 357.507 568.552C357.259 568.696 357.063 568.908 356.919 569.188C356.775 569.46 356.703 569.788 356.703 570.172V574H355.803V570.172C355.803 569.78 355.731 569.448 355.587 569.176C355.451 568.904 355.263 568.696 355.023 568.552C354.783 568.4 354.507 568.324 354.195 568.324C353.883 568.324 353.603 568.4 353.355 568.552C353.115 568.696 352.923 568.908 352.779 569.188C352.635 569.46 352.563 569.788 352.563 570.172V574H351.663ZM365.08 574V567.568H365.98V568.624L365.86 568.468C366.012 568.164 366.24 567.924 366.544 567.748C366.856 567.572 367.232 567.484 367.672 567.484H368.08V568.384H367.516C367.052 568.384 366.68 568.528 366.4 568.816C366.12 569.104 365.98 569.512 365.98 570.04V574H365.08ZM372.303 574.144C371.703 574.144 371.159 574 370.671 573.712C370.191 573.416 369.811 573.012 369.531 572.5C369.251 571.988 369.111 571.408 369.111 570.76C369.111 570.112 369.247 569.54 369.519 569.044C369.791 568.54 370.159 568.144 370.623 567.856C371.095 567.568 371.623 567.424 372.207 567.424C372.671 567.424 373.083 567.512 373.443 567.688C373.811 567.856 374.123 568.088 374.379 568.384C374.635 568.672 374.831 569 374.967 569.368C375.103 569.728 375.171 570.1 375.171 570.484C375.171 570.564 375.167 570.656 375.159 570.76C375.151 570.856 375.139 570.956 375.123 571.06H369.687V570.22H374.607L374.175 570.58C374.247 570.14 374.195 569.748 374.019 569.404C373.851 569.052 373.607 568.776 373.287 568.576C372.967 568.368 372.607 568.264 372.207 568.264C371.807 568.264 371.435 568.368 371.091 568.576C370.755 568.784 370.491 569.076 370.299 569.452C370.107 569.82 370.031 570.26 370.071 570.772C370.031 571.284 370.111 571.732 370.311 572.116C370.519 572.492 370.799 572.784 371.151 572.992C371.511 573.2 371.895 573.304 372.303 573.304C372.775 573.304 373.171 573.192 373.491 572.968C373.811 572.744 374.071 572.464 374.271 572.128L375.039 572.536C374.911 572.824 374.715 573.092 374.451 573.34C374.187 573.58 373.871 573.776 373.503 573.928C373.143 574.072 372.743 574.144 372.303 574.144ZM379.23 574.144C378.614 574.144 378.074 573.988 377.61 573.676C377.146 573.364 376.81 572.94 376.602 572.404L377.358 572.044C377.542 572.436 377.798 572.748 378.126 572.98C378.462 573.212 378.83 573.328 379.23 573.328C379.614 573.328 379.938 573.236 380.202 573.052C380.466 572.86 380.598 572.612 380.598 572.308C380.598 572.084 380.534 571.908 380.406 571.78C380.278 571.644 380.13 571.54 379.962 571.468C379.794 571.396 379.646 571.344 379.518 571.312L378.594 571.048C378.002 570.88 377.574 570.644 377.31 570.34C377.046 570.036 376.914 569.684 376.914 569.284C376.914 568.908 377.01 568.58 377.202 568.3C377.394 568.02 377.654 567.804 377.982 567.652C378.31 567.5 378.674 567.424 379.074 567.424C379.618 567.424 380.11 567.568 380.55 567.856C380.998 568.136 381.314 568.528 381.498 569.032L380.73 569.392C380.57 569.032 380.338 568.752 380.034 568.552C379.738 568.344 379.406 568.24 379.038 568.24C378.678 568.24 378.39 568.332 378.174 568.516C377.958 568.7 377.85 568.932 377.85 569.212C377.85 569.428 377.906 569.6 378.018 569.728C378.13 569.856 378.258 569.952 378.402 570.016C378.554 570.08 378.686 570.128 378.798 570.16L379.866 570.472C380.386 570.624 380.79 570.86 381.078 571.18C381.374 571.5 381.522 571.876 381.522 572.308C381.522 572.66 381.422 572.976 381.222 573.256C381.03 573.536 380.762 573.756 380.418 573.916C380.074 574.068 379.678 574.144 379.23 574.144ZM385.803 574.072C385.227 574.072 384.783 573.904 384.471 573.568C384.159 573.232 384.003 572.752 384.003 572.128V568.468H382.815V567.568H383.115C383.387 567.568 383.603 567.48 383.763 567.304C383.923 567.12 384.003 566.892 384.003 566.62V566.08H384.903V567.568H386.319V568.468H384.903V572.128C384.903 572.344 384.935 572.536 384.999 572.704C385.063 572.864 385.171 572.992 385.323 573.088C385.483 573.184 385.695 573.232 385.959 573.232C386.023 573.232 386.099 573.228 386.187 573.22C386.275 573.212 386.351 573.204 386.415 573.196V574C386.319 574.024 386.211 574.04 386.091 574.048C385.971 574.064 385.875 574.072 385.803 574.072ZM389.979 574.144C389.571 574.144 389.207 574.068 388.887 573.916C388.567 573.756 388.315 573.54 388.131 573.268C387.947 572.996 387.855 572.684 387.855 572.332C387.855 571.996 387.927 571.692 388.071 571.42C388.215 571.14 388.439 570.904 388.743 570.712C389.047 570.52 389.435 570.384 389.907 570.304L392.427 569.884V570.7L390.123 571.084C389.659 571.164 389.323 571.312 389.115 571.528C388.915 571.744 388.815 572 388.815 572.296C388.815 572.584 388.927 572.828 389.151 573.028C389.383 573.228 389.679 573.328 390.039 573.328C390.479 573.328 390.863 573.236 391.191 573.052C391.519 572.86 391.775 572.604 391.959 572.284C392.143 571.964 392.235 571.608 392.235 571.216V569.584C392.235 569.2 392.095 568.888 391.815 568.648C391.535 568.408 391.171 568.288 390.723 568.288C390.331 568.288 389.987 568.388 389.691 568.588C389.395 568.78 389.175 569.032 389.031 569.344L388.215 568.9C388.335 568.628 388.523 568.38 388.779 568.156C389.043 567.932 389.343 567.756 389.679 567.628C390.015 567.492 390.363 567.424 390.723 567.424C391.195 567.424 391.611 567.516 391.971 567.7C392.339 567.884 392.623 568.14 392.823 568.468C393.031 568.788 393.135 569.16 393.135 569.584V574H392.235V572.716L392.367 572.848C392.255 573.088 392.079 573.308 391.839 573.508C391.607 573.7 391.331 573.856 391.011 573.976C390.699 574.088 390.355 574.144 389.979 574.144ZM397.506 574.144C397.058 574.144 396.65 574.04 396.282 573.832C395.914 573.616 395.622 573.32 395.406 572.944C395.198 572.56 395.094 572.12 395.094 571.624V567.568H395.994V571.516C395.994 571.86 396.062 572.164 396.198 572.428C396.342 572.684 396.538 572.884 396.786 573.028C397.042 573.172 397.334 573.244 397.662 573.244C397.99 573.244 398.282 573.172 398.538 573.028C398.794 572.876 398.994 572.664 399.138 572.392C399.282 572.112 399.354 571.78 399.354 571.396V567.568H400.254V574H399.354V572.752L399.558 572.8C399.406 573.216 399.146 573.544 398.778 573.784C398.41 574.024 397.986 574.144 397.506 574.144ZM402.345 574V567.568H403.245V568.624L403.125 568.468C403.277 568.164 403.505 567.924 403.809 567.748C404.121 567.572 404.497 567.484 404.937 567.484H405.345V568.384H404.781C404.317 568.384 403.945 568.528 403.665 568.816C403.385 569.104 403.245 569.512 403.245 570.04V574H402.345ZM408.499 574.144C408.091 574.144 407.727 574.068 407.407 573.916C407.087 573.756 406.835 573.54 406.651 573.268C406.467 572.996 406.375 572.684 406.375 572.332C406.375 571.996 406.447 571.692 406.591 571.42C406.735 571.14 406.959 570.904 407.263 570.712C407.567 570.52 407.955 570.384 408.427 570.304L410.947 569.884V570.7L408.643 571.084C408.179 571.164 407.843 571.312 407.635 571.528C407.435 571.744 407.335 572 407.335 572.296C407.335 572.584 407.447 572.828 407.671 573.028C407.903 573.228 408.199 573.328 408.559 573.328C408.999 573.328 409.383 573.236 409.711 573.052C410.039 572.86 410.295 572.604 410.479 572.284C410.663 571.964 410.755 571.608 410.755 571.216V569.584C410.755 569.2 410.615 568.888 410.335 568.648C410.055 568.408 409.691 568.288 409.243 568.288C408.851 568.288 408.507 568.388 408.211 568.588C407.915 568.78 407.695 569.032 407.551 569.344L406.735 568.9C406.855 568.628 407.043 568.38 407.299 568.156C407.563 567.932 407.863 567.756 408.199 567.628C408.535 567.492 408.883 567.424 409.243 567.424C409.715 567.424 410.131 567.516 410.491 567.7C410.859 567.884 411.143 568.14 411.343 568.468C411.551 568.788 411.655 569.16 411.655 569.584V574H410.755V572.716L410.887 572.848C410.775 573.088 410.599 573.308 410.359 573.508C410.127 573.7 409.851 573.856 409.531 573.976C409.219 574.088 408.875 574.144 408.499 574.144ZM413.747 574V567.568H414.647V568.816L414.443 568.768C414.603 568.352 414.863 568.024 415.223 567.784C415.591 567.544 416.015 567.424 416.495 567.424C416.951 567.424 417.359 567.528 417.719 567.736C418.087 567.944 418.375 568.232 418.583 568.6C418.799 568.96 418.907 569.368 418.907 569.824V574H418.007V570.172C418.007 569.78 417.935 569.448 417.791 569.176C417.655 568.904 417.459 568.696 417.203 568.552C416.955 568.4 416.667 568.324 416.339 568.324C416.011 568.324 415.719 568.4 415.463 568.552C415.207 568.696 415.007 568.908 414.863 569.188C414.719 569.46 414.647 569.788 414.647 570.172V574H413.747ZM423.325 574.072C422.749 574.072 422.305 573.904 421.993 573.568C421.681 573.232 421.525 572.752 421.525 572.128V568.468H420.337V567.568H420.637C420.909 567.568 421.125 567.48 421.285 567.304C421.445 567.12 421.525 566.892 421.525 566.62V566.08H422.425V567.568H423.841V568.468H422.425V572.128C422.425 572.344 422.457 572.536 422.521 572.704C422.585 572.864 422.693 572.992 422.845 573.088C423.005 573.184 423.217 573.232 423.481 573.232C423.545 573.232 423.621 573.228 423.709 573.22C423.797 573.212 423.873 573.204 423.937 573.196V574C423.841 574.024 423.733 574.04 423.613 574.048C423.493 574.064 423.397 574.072 423.325 574.072ZM427.99 574.144C427.374 574.144 426.834 573.988 426.37 573.676C425.906 573.364 425.57 572.94 425.362 572.404L426.118 572.044C426.302 572.436 426.558 572.748 426.886 572.98C427.222 573.212 427.59 573.328 427.99 573.328C428.374 573.328 428.698 573.236 428.962 573.052C429.226 572.86 429.358 572.612 429.358 572.308C429.358 572.084 429.294 571.908 429.166 571.78C429.038 571.644 428.89 571.54 428.722 571.468C428.554 571.396 428.406 571.344 428.278 571.312L427.354 571.048C426.762 570.88 426.334 570.644 426.07 570.34C425.806 570.036 425.674 569.684 425.674 569.284C425.674 568.908 425.77 568.58 425.962 568.3C426.154 568.02 426.414 567.804 426.742 567.652C427.07 567.5 427.434 567.424 427.834 567.424C428.378 567.424 428.87 567.568 429.31 567.856C429.758 568.136 430.074 568.528 430.258 569.032L429.49 569.392C429.33 569.032 429.098 568.752 428.794 568.552C428.498 568.344 428.166 568.24 427.798 568.24C427.438 568.24 427.15 568.332 426.934 568.516C426.718 568.7 426.61 568.932 426.61 569.212C426.61 569.428 426.666 569.6 426.778 569.728C426.89 569.856 427.018 569.952 427.162 570.016C427.314 570.08 427.446 570.128 427.558 570.16L428.626 570.472C429.146 570.624 429.55 570.86 429.838 571.18C430.134 571.5 430.282 571.876 430.282 572.308C430.282 572.66 430.182 572.976 429.982 573.256C429.79 573.536 429.522 573.756 429.178 573.916C428.834 574.068 428.438 574.144 427.99 574.144ZM434.382 574V567.568H435.282V568.816L435.078 568.768C435.238 568.352 435.498 568.024 435.858 567.784C436.226 567.544 436.65 567.424 437.13 567.424C437.586 567.424 437.994 567.528 438.354 567.736C438.722 567.944 439.01 568.232 439.218 568.6C439.434 568.96 439.542 569.368 439.542 569.824V574H438.642V570.172C438.642 569.78 438.57 569.448 438.426 569.176C438.29 568.904 438.094 568.696 437.838 568.552C437.59 568.4 437.302 568.324 436.974 568.324C436.646 568.324 436.354 568.4 436.098 568.552C435.842 568.696 435.642 568.908 435.498 569.188C435.354 569.46 435.282 569.788 435.282 570.172V574H434.382ZM444.429 574.144C443.829 574.144 443.285 574 442.797 573.712C442.317 573.416 441.937 573.012 441.657 572.5C441.377 571.988 441.237 571.408 441.237 570.76C441.237 570.112 441.373 569.54 441.645 569.044C441.917 568.54 442.285 568.144 442.749 567.856C443.221 567.568 443.749 567.424 444.333 567.424C444.797 567.424 445.209 567.512 445.569 567.688C445.937 567.856 446.249 568.088 446.505 568.384C446.761 568.672 446.957 569 447.093 569.368C447.229 569.728 447.297 570.1 447.297 570.484C447.297 570.564 447.293 570.656 447.285 570.76C447.277 570.856 447.265 570.956 447.249 571.06H441.813V570.22H446.733L446.301 570.58C446.373 570.14 446.321 569.748 446.145 569.404C445.977 569.052 445.733 568.776 445.413 568.576C445.093 568.368 444.733 568.264 444.333 568.264C443.933 568.264 443.561 568.368 443.217 568.576C442.881 568.784 442.617 569.076 442.425 569.452C442.233 569.82 442.157 570.26 442.197 570.772C442.157 571.284 442.237 571.732 442.437 572.116C442.645 572.492 442.925 572.784 443.277 572.992C443.637 573.2 444.021 573.304 444.429 573.304C444.901 573.304 445.297 573.192 445.617 572.968C445.937 572.744 446.197 572.464 446.397 572.128L447.165 572.536C447.037 572.824 446.841 573.092 446.577 573.34C446.313 573.58 445.997 573.776 445.629 573.928C445.269 574.072 444.869 574.144 444.429 574.144ZM450.867 574.144C450.459 574.144 450.095 574.068 449.775 573.916C449.455 573.756 449.203 573.54 449.019 573.268C448.835 572.996 448.743 572.684 448.743 572.332C448.743 571.996 448.815 571.692 448.959 571.42C449.103 571.14 449.327 570.904 449.631 570.712C449.935 570.52 450.323 570.384 450.795 570.304L453.315 569.884V570.7L451.011 571.084C450.547 571.164 450.211 571.312 450.003 571.528C449.803 571.744 449.703 572 449.703 572.296C449.703 572.584 449.815 572.828 450.039 573.028C450.271 573.228 450.567 573.328 450.927 573.328C451.367 573.328 451.751 573.236 452.079 573.052C452.407 572.86 452.663 572.604 452.847 572.284C453.031 571.964 453.123 571.608 453.123 571.216V569.584C453.123 569.2 452.983 568.888 452.703 568.648C452.423 568.408 452.059 568.288 451.611 568.288C451.219 568.288 450.875 568.388 450.579 568.588C450.283 568.78 450.063 569.032 449.919 569.344L449.103 568.9C449.223 568.628 449.411 568.38 449.667 568.156C449.931 567.932 450.231 567.756 450.567 567.628C450.903 567.492 451.251 567.424 451.611 567.424C452.083 567.424 452.499 567.516 452.859 567.7C453.227 567.884 453.511 568.14 453.711 568.468C453.919 568.788 454.023 569.16 454.023 569.584V574H453.123V572.716L453.255 572.848C453.143 573.088 452.967 573.308 452.727 573.508C452.495 573.7 452.219 573.856 451.899 573.976C451.587 574.088 451.243 574.144 450.867 574.144ZM456.114 574V567.568H457.014V568.624L456.894 568.468C457.046 568.164 457.274 567.924 457.578 567.748C457.89 567.572 458.266 567.484 458.706 567.484H459.114V568.384H458.55C458.086 568.384 457.714 568.528 457.434 568.816C457.154 569.104 457.014 569.512 457.014 570.04V574H456.114ZM462.82 576.64C462.692 576.64 462.56 576.628 462.424 576.604C462.296 576.588 462.168 576.556 462.04 576.508V575.668C462.12 575.676 462.22 575.688 462.34 575.704C462.468 575.728 462.596 575.74 462.724 575.74C463.116 575.74 463.416 575.656 463.624 575.488C463.832 575.328 464.036 575.016 464.236 574.552L464.644 573.592L464.62 574.384L461.896 567.568H462.868L465.1 573.196H464.848L467.068 567.568H468.064L465.124 574.816C464.996 575.128 464.832 575.424 464.632 575.704C464.44 575.984 464.196 576.208 463.9 576.376C463.604 576.552 463.244 576.64 462.82 576.64ZM472.256 574.144C471.648 574.144 471.096 574 470.6 573.712C470.104 573.416 469.708 573.016 469.412 572.512C469.124 572 468.98 571.42 468.98 570.772C468.98 570.132 469.124 569.56 469.412 569.056C469.7 568.552 470.088 568.156 470.576 567.868C471.072 567.572 471.632 567.424 472.256 567.424C472.88 567.424 473.436 567.568 473.924 567.856C474.42 568.144 474.808 568.54 475.088 569.044C475.376 569.548 475.52 570.124 475.52 570.772C475.52 571.428 475.372 572.012 475.076 572.524C474.78 573.028 474.384 573.424 473.888 573.712C473.4 574 472.856 574.144 472.256 574.144ZM472.256 573.244C472.688 573.244 473.076 573.136 473.42 572.92C473.772 572.704 474.048 572.408 474.248 572.032C474.456 571.656 474.56 571.236 474.56 570.772C474.56 570.308 474.456 569.892 474.248 569.524C474.048 569.156 473.772 568.864 473.42 568.648C473.076 568.432 472.688 568.324 472.256 568.324C471.824 568.324 471.432 568.432 471.08 568.648C470.736 568.864 470.46 569.156 470.252 569.524C470.044 569.892 469.94 570.308 469.94 570.772C469.94 571.236 470.044 571.656 470.252 572.032C470.46 572.408 470.736 572.704 471.08 572.92C471.432 573.136 471.824 573.244 472.256 573.244ZM479.627 574.144C479.179 574.144 478.771 574.04 478.403 573.832C478.035 573.616 477.743 573.32 477.527 572.944C477.319 572.56 477.215 572.12 477.215 571.624V567.568H478.115V571.516C478.115 571.86 478.183 572.164 478.319 572.428C478.463 572.684 478.659 572.884 478.907 573.028C479.163 573.172 479.455 573.244 479.783 573.244C480.111 573.244 480.403 573.172 480.659 573.028C480.915 572.876 481.115 572.664 481.259 572.392C481.403 572.112 481.475 571.78 481.475 571.396V567.568H482.375V574H481.475V572.752L481.679 572.8C481.527 573.216 481.267 573.544 480.899 573.784C480.531 574.024 480.107 574.144 479.627 574.144Z" fill="black"/>
<rect x="96" y="543" width="410" height="52" rx="26" stroke="white" stroke-width="4"/>
</svg>
