<svg width="27" height="28" viewBox="0 0 27 28" fill="none" xmlns="http://www.w3.org/2000/svg">
<path d="M24.12 9.36129C24.1507 9.12929 24.1667 8.89729 24.1667 8.66663C24.1667 5.49463 21.3093 2.94929 18.1387 3.37996C17.2147 1.73596 15.4547 0.666626 13.5 0.666626C11.5453 0.666626 9.78534 1.73596 8.86134 3.37996C5.684 2.94929 2.83334 5.49463 2.83334 8.66663C2.83334 8.89729 2.84934 9.12929 2.88 9.36129C1.236 10.2866 0.166672 12.0466 0.166672 14C0.166672 15.9533 1.236 17.7133 2.88 18.6386C2.84924 18.8689 2.83366 19.101 2.83334 19.3333C2.83334 22.5053 5.684 25.044 8.86134 24.62C9.78534 26.264 11.5453 27.3333 13.5 27.3333C15.4547 27.3333 17.2147 26.264 18.1387 24.62C21.3093 25.044 24.1667 22.5053 24.1667 19.3333C24.1667 19.1026 24.1507 18.8706 24.12 18.6386C25.764 17.7133 26.8333 15.9533 26.8333 14C26.8333 12.0466 25.764 10.2866 24.12 9.36129Z" fill="#FF884D"/>
</svg>
