<svg width="116" height="116" viewBox="0 0 116 116" fill="none" xmlns="http://www.w3.org/2000/svg">
<path d="M57.4864 106.267C84.4283 106.267 106.269 84.4263 106.269 57.4843C106.269 30.5424 84.4283 8.70166 57.4864 8.70166C30.5445 8.70166 8.70374 30.5424 8.70374 57.4843C8.70374 84.4263 30.5445 106.267 57.4864 106.267Z" fill="#0C513F" stroke="white" stroke-width="1.25924" stroke-miterlimit="10"/>
<path d="M30.8568 50.365C35.028 49.6409 39.4983 48.9547 43.3421 50.7176C47.293 52.5277 49.7736 56.6455 50.7779 60.8733C51.4704 63.801 51.354 67.3552 48.9929 69.2126C47.3119 70.538 44.976 70.6009 42.8447 70.3837C40.6631 70.1633 38.2926 69.5809 37.0145 67.7959C35.6734 65.9071 36.0039 63.2784 37.0334 61.2165C37.7183 59.8089 38.7179 58.5776 39.9548 57.6182C42.0986 55.9844 44.8217 55.3768 47.4441 54.7503C51.5365 53.7807 55.6007 52.6568 59.3469 50.768C63.0932 48.8791 66.5183 46.1749 68.6778 42.583C69.2299 41.7262 69.6234 40.7772 69.8395 39.7811C70.0676 38.5343 69.867 37.247 69.2703 36.1287C68.6735 35.0103 67.7159 34.1269 66.5532 33.6222C65.3904 33.1175 64.0911 33.0212 62.8667 33.349C61.6423 33.6767 60.5648 34.4093 59.8097 35.4273C57.8579 38.0655 58.5694 41.8368 60.0395 44.7709C61.5097 47.7048 63.6504 50.3492 64.491 53.5225C64.746 54.4858 64.8939 55.5247 65.514 56.3054C66.49 57.5331 68.3473 57.7032 69.83 57.1649C71.8606 56.4219 73.3527 54.5929 74.1083 52.5686C74.8638 50.5445 74.9552 48.3344 74.8544 46.1781C74.7985 43.9432 74.4026 41.7299 73.6802 39.6143C72.6225 36.7338 70.7272 34.1933 69.8584 31.2499C68.9895 28.3064 69.5436 24.5318 72.2604 23.1058C73.2709 22.5737 74.4388 22.4447 75.5785 22.4289C79.0193 22.388 82.6302 23.4646 84.9 26.0429C86.5527 27.9318 87.3555 30.4188 87.6136 32.9026C87.9819 36.4537 87.2641 40.2029 85.1392 43.0677C83.9052 44.7331 82.2084 46.115 81.4717 48.0511C80.9302 49.4615 80.9523 51.0513 80.3101 52.4175C79.2176 54.7408 76.4946 55.8238 73.9446 56.1291C71.3947 56.4345 68.7723 56.1827 66.2884 56.8217C63.8676 57.4513 61.7238 58.8837 59.3155 59.5574C57.2913 60.1208 55.1537 60.1272 53.054 60.0328C50.0759 59.8974 47.0348 59.5479 44.3589 58.2289C39.8887 56.0252 36.92 50.8184 37.8456 45.9199C38.3021 43.518 39.5833 41.3615 40.8898 39.2932C44.2299 34.0012 48.3287 28.5677 54.332 26.7985C59.4634 25.2842 64.9757 26.7733 69.9906 28.6433C72.3643 29.531 74.8072 30.573 76.4379 32.5153C77.1168 33.3855 77.7024 34.3246 78.1851 35.3172C81.2744 41.1935 84.1654 47.1665 86.858 53.236C88.133 56.1102 89.3293 59.5825 87.6356 62.2333C86.3166 64.3016 83.6439 65.0666 81.1915 65.1263C77.949 65.2019 74.2658 63.9081 73.1513 60.8607C72.5941 59.3276 72.7924 57.5993 72.2226 56.0724C71.6528 54.5457 69.6443 53.3115 68.426 54.3946C68.0396 54.7914 67.7724 55.2888 67.6548 55.8301C67.1328 57.4848 67.0847 59.2526 67.5162 60.9332C68.2025 63.3666 70.0693 65.3057 70.9633 67.6732C71.4606 69.0285 71.6303 70.4823 71.4586 71.9157C71.2867 73.3492 70.7784 74.7217 69.9749 75.9212C68.5267 78.0461 65.8982 79.532 63.386 78.9779C60.2756 78.2885 58.4812 74.643 59.0227 71.5043C59.5641 68.3658 61.8843 65.7969 64.5129 63.9994C65.2622 63.4862 66.0587 63.0045 66.6096 62.2868C67.1605 61.569 67.406 60.5207 66.9244 59.7494C66.6282 59.3379 66.2359 59.005 65.7816 58.7798C63.9661 57.7165 62.0312 56.8711 60.0175 56.2613C58.475 55.7954 55.3615 55.9245 51.1493 51.045C46.6697 45.857 43.1753 39.3593 43.446 32.509C43.5531 29.8301 44.3495 26.9936 46.4336 25.3031C48.5176 23.6126 52.1001 23.6787 53.5136 25.9579C53.8866 26.6193 54.1422 27.3405 54.2691 28.0891C55.303 32.8904 54.9759 37.8851 53.3247 42.5105C51.4579 47.7048 48.0013 52.1814 45.7693 57.2373C43.5373 62.293 42.7566 68.605 46.0652 73.0249" stroke="#E2BF88" stroke-width="2.51846" stroke-linecap="round" stroke-linejoin="round"/>
<path d="M89.0335 82.8037C91.0168 77.6313 95.3549 65.9079 84.727 53.8979C81.327 50.0573 76.734 46.9722 71.6089 46.755C66.7515 46.5567 62.0262 48.8358 58.4531 52.1318C54.8801 55.4279 52.3207 59.6715 50.1327 64.0127C49.3205 65.6182 48.5335 67.356 48.7381 69.1409C48.883 70.4002 49.4999 71.5303 50.1799 72.6039C53.5673 77.8863 58.6262 81.8466 63.6538 85.6023C66.9498 88.0641 70.526 90.5826 74.6342 90.8218C75.8274 90.891 77.0803 90.7463 78.0971 90.1041C79.114 89.4619 79.8065 88.2404 79.5641 87.0693C79.3653 86.3507 78.9682 85.7027 78.4182 85.1993C75.2387 81.9254 70.3245 80.9211 65.7693 81.1887C61.214 81.4562 56.7972 82.8068 52.2923 83.5434C51.3479 83.6945 50.3436 83.8048 49.5471 83.3073C48.5713 82.6777 48.2879 81.4185 48.0676 80.2915C46.9966 75.0908 44.9315 70.146 41.9855 65.7285C40.6822 63.7798 39.1522 61.8311 38.8374 59.5047C38.3274 55.834 44.6833 37.5909 57.4111 34.5625C60.7197 33.7754 68.4294 33.47 73.1987 34.6065C78.6165 35.8941 84.1446 40.0149 85.98 43.4212C91.5489 53.7343 79.9073 58.8814 77.3793 58.957C74.3677 59.047 71.3691 58.5255 68.5648 57.4238C65.4418 56.1929 62.6463 54.2757 59.7249 52.6229C54.9699 49.9343 49.8596 47.9292 44.5449 46.6668C41.7934 46.0152 30.4509 42.2752 26.8463 55.3712C24.2775 64.6927 31.2789 74.6029 32.9662 76.3029C37.575 80.9432 44.9037 74.0803 45.653 73.3185C47.2019 71.7445 46.9877 69.037 45.7505 67.208C44.5133 65.379 43.0999 62.7031 41.1606 61.6486C34.1499 57.8016 30.709 64.1198 30.3313 65.0421C28.9669 68.351 28.2097 71.8786 28.0962 75.4561C28.0301 78.6041 29.242 91.1964 45.7254 87.0819C47.5144 86.5826 49.2532 85.9186 50.9197 85.0986C52.8652 84.2077 54.8328 83.301 56.495 81.9505C57.7133 80.9683 58.7428 79.7689 59.9579 78.8024C61.2031 77.8821 62.5459 77.1019 63.9622 76.476C69.9782 73.6018 86.6064 65.3696 86.6914 78.3491C86.7229 83.0901 83.3356 87.3936 79.5264 90.2174C74.4894 93.9479 67.6109 94.8357 61.6169 93.0066C55.623 91.1775 50.5608 86.8269 47.3655 81.4311C46.8115 80.4867 46.2952 79.5045 45.4767 78.7804C44.6582 78.0563 43.4556 77.6502 42.4639 78.1035C42.1268 78.2801 41.8284 78.5223 41.5861 78.8159C41.344 79.1094 41.1629 79.4484 41.0537 79.8129C40.0022 82.8415 42.4639 85.936 45.0265 87.8658C47.8881 90.0191 51.4926 91.7253 54.9745 90.8785C58.5129 90.0159 60.9369 86.786 64.1354 85.0545C66.5373 83.7481 69.3392 83.2979 71.6908 81.9065C74.3037 80.3796 76.1579 77.8454 77.8012 75.2955C79.284 73.0005 80.6943 70.5576 81.0501 67.8503C81.453 64.7871 80.6912 61.6328 79.4257 58.8153C77.0016 53.4226 72.7705 52.1318 69.9814 51.751C66.0955 51.2155 62.1613 51.1247 58.2547 51.4802C54.1308 51.8549 49.6605 52.9693 47.2365 56.3345C44.06 60.7608 46.0308 67.3529 50.1547 70.9291C53.2258 73.5816 57.2144 74.9242 61.2644 74.669C63.2687 74.5207 65.2197 73.9531 66.9908 73.003C68.7619 72.0528 70.3138 70.7414 71.546 69.1536C72.399 68.1008 72.9768 66.8523 73.227 65.5207C73.4102 64.3091 73.2036 63.0706 72.6371 61.9841C72.0705 60.8976 71.1734 60.0193 70.0751 59.476C68.9768 58.9326 67.7343 58.7524 66.5269 58.9613C65.3195 59.1701 64.2097 59.7573 63.3578 60.638C62.0985 61.935 61.5319 63.7231 60.9841 65.4388C60.4364 67.1546 59.8287 68.9395 58.5349 70.1924C57.241 71.4453 55.0374 71.9553 53.6302 70.822C52.0908 69.5848 52.3364 66.1881 52.371 64.211C52.4403 59.64 46.6226 57.641 44.888 61.9697C43.1849 66.2164 40.9938 71.0424 43.1975 75.053C45.1083 78.5349 49.3771 79.8287 53.2241 80.814" stroke="#E2BF88" stroke-width="2.51846" stroke-linecap="round" stroke-linejoin="round"/>
<path d="M100.133 64.1583C96.1003 65.4428 91.7685 66.7366 87.7169 65.5183C83.5552 64.2591 80.533 60.5223 78.9621 56.4739C77.876 53.6721 77.5014 50.1336 79.5918 47.9741C81.0776 46.4315 83.3694 46.0505 85.5227 45.975C87.7263 45.8932 90.1441 46.145 91.6521 47.738C93.2261 49.4127 93.2733 52.0729 92.5366 54.2608C92.0487 55.7486 91.2259 57.1045 90.1315 58.2242C88.2427 60.1351 85.6172 61.111 83.1081 62.0901C79.2014 63.6106 75.3135 65.2822 71.8632 67.6622C68.4128 70.0421 65.3876 73.1965 63.7379 77.0529C63.31 77.9774 63.0509 78.9711 62.9729 79.9869C62.918 81.2529 63.2932 82.5003 64.0373 83.526C64.7814 84.5518 65.8507 85.2955 67.0712 85.6363C68.2917 85.9771 69.5916 85.8949 70.7595 85.403C71.9273 84.9112 72.8944 84.0386 73.5033 82.9273C75.0774 80.0468 73.8559 76.4107 71.9986 73.7033C70.1411 70.996 67.6573 68.6664 66.3887 65.6411C66.0046 64.7218 65.715 63.7145 64.994 63.025C63.8607 61.9421 61.9845 62.0334 60.6024 62.7669C58.6947 63.7806 57.4544 65.7985 56.9947 67.9045C56.5352 70.0106 56.7335 72.2143 57.127 74.3361C57.4911 76.5417 58.1874 78.6794 59.1922 80.6763C60.634 83.39 62.8565 85.644 64.1221 88.4427C65.3876 91.2413 65.3561 95.0537 62.8628 96.8386C61.9341 97.5028 60.7945 97.7831 59.6675 97.9625C56.2675 98.4725 52.5434 97.9026 49.9368 95.6581C48.048 94.0273 46.9083 91.66 46.3133 89.2328C45.4602 85.77 45.6586 81.9576 47.3711 78.8253C48.3627 77.0088 49.8549 75.4064 50.324 73.3886C50.664 71.9183 50.4247 70.3443 50.8718 68.9025C51.6368 66.4533 54.1898 65.0052 56.6706 64.3535C59.1512 63.7018 61.7862 63.5949 64.1598 62.6189C66.4737 61.6745 68.4003 59.9525 70.6921 58.9577C72.6219 58.1203 74.7374 57.8213 76.8308 57.6292C79.7995 57.3553 82.8595 57.2861 85.6896 58.2242C90.4117 59.7983 94.076 64.5456 93.8273 69.5259C93.7045 71.9687 92.7318 74.2794 91.7212 76.5052C89.1367 82.2063 85.8186 88.153 80.1143 90.725C75.2379 92.9287 69.5745 92.2078 64.3518 91.0399C61.8774 90.4889 59.3149 89.7806 57.4261 88.0869C56.6332 87.3191 55.925 86.4684 55.3137 85.5496C51.4479 80.1579 47.7657 74.6383 44.2671 68.9906C42.6112 66.3179 40.9521 63.0407 42.2617 60.1761C43.2881 57.944 45.8286 56.817 48.2431 56.4235C51.4447 55.9073 55.2791 56.6817 56.7901 59.5496C57.552 60.9913 57.5929 62.7323 58.3642 64.1678C59.1355 65.6033 61.2951 66.5477 62.3528 65.3074C62.6813 64.8615 62.8786 64.3327 62.9226 63.7806C63.2129 62.0709 63.0187 60.3141 62.3623 58.709C61.3455 56.3889 59.233 54.7267 58.0242 52.5041C57.3453 51.2296 56.9774 49.8125 56.9506 48.3687C56.9238 46.925 57.2389 45.4952 57.87 44.1964C59.0158 41.8951 61.4178 40.0629 63.9804 40.2676C67.1537 40.5226 69.4328 43.891 69.3321 47.0737C69.2314 50.2564 67.2795 53.118 64.9248 55.2587C64.2543 55.8695 63.5271 56.455 63.0832 57.2452C62.6393 58.0353 62.5354 59.1025 63.1146 59.8014C63.4634 60.1659 63.8956 60.4403 64.3739 60.601C66.3184 61.4071 68.3514 61.9798 70.4308 62.3073C72.0205 62.556 75.0868 61.9924 79.9286 66.2582C85.0757 70.785 89.4295 76.7413 90.0968 83.5725C90.3582 86.2422 89.9552 89.1635 88.1262 91.1279C86.2972 93.0923 82.7367 93.5111 81.0241 91.4428C80.5639 90.8377 80.2103 90.1585 79.979 89.4343C78.305 84.8177 77.9506 79.8259 78.9558 75.0192C80.0954 69.6171 82.9035 64.7093 84.4114 59.3984C85.9194 54.0876 85.8375 47.7222 81.9559 43.7966" stroke="#FFEDB3" stroke-width="2.51846" stroke-linecap="round" stroke-linejoin="round"/>
<path d="M80.0768 19.2474C74.8762 17.3396 63.0772 13.1779 51.2405 23.9853C47.4628 27.4482 44.428 32.079 44.2926 37.2073C44.1666 42.0647 46.5152 46.7554 49.8647 50.2812C53.2143 53.8071 57.4862 56.2972 61.8683 58.4316C63.4865 59.2154 65.2367 59.9773 67.0186 59.7443C68.2778 59.5838 69.3954 58.9479 70.4437 58.2553C75.6727 54.7925 79.5574 49.6705 83.2375 44.5863C85.6521 41.2557 88.1139 37.6417 88.2933 33.5303C88.3468 32.3371 88.18 31.0874 87.5253 30.0863C86.8704 29.0852 85.6363 28.4083 84.4684 28.6665C83.7533 28.8762 83.1118 29.2832 82.6173 29.8408C79.3906 33.0675 78.4587 37.9974 78.7924 42.5495C79.1262 47.1017 80.5459 51.4964 81.3518 55.9887C81.5155 56.9142 81.6414 57.931 81.1535 58.737C80.5553 59.7223 79.2867 60.0119 78.1628 60.2607C72.9748 61.4054 68.0573 63.5434 63.6816 66.5568C61.7518 67.8884 59.8252 69.4341 57.5051 69.7899C53.8407 70.3566 35.5064 64.2713 32.2889 51.5877C31.4516 48.2916 31.0297 40.5851 32.0938 35.8032C33.3027 30.3664 37.3416 24.7849 40.7132 22.896C50.9413 17.176 56.2616 28.7358 56.375 31.2637C56.5109 34.2716 56.0342 37.2758 54.974 40.094C53.7903 43.2421 51.9173 46.0754 50.3054 49.0062C47.6879 53.7965 45.76 58.9324 44.5791 64.2618C43.9683 67.0228 40.3953 78.4282 53.5417 81.8313C62.904 84.2585 72.7071 77.1092 74.3851 75.3966C78.9562 70.7185 71.9831 63.4937 71.2087 62.757C69.6126 61.2302 66.9084 61.4979 65.0983 62.757C63.2881 64.0163 60.6311 65.4739 59.608 67.4289C55.9027 74.5026 62.2555 77.8489 63.1937 78.2142C66.5231 79.5261 70.061 80.2298 73.639 80.2919C76.7871 80.3139 89.3794 78.9099 85.0005 62.4958C84.4748 60.715 83.7856 58.9867 82.9416 57.333C82.0192 55.4031 81.0842 53.4482 79.7148 51.8049C78.7137 50.6023 77.5112 49.6012 76.5195 48.3766C75.581 47.146 74.7808 45.8158 74.1333 44.41C71.1709 38.4287 62.69 21.9327 75.6696 21.6526C80.3917 21.5518 84.7612 24.8731 87.6322 28.6382C91.4414 33.6185 92.4299 40.4844 90.6891 46.5067C88.9482 52.5289 84.6573 57.6635 79.3118 60.9343C78.3831 61.5041 77.4009 62.0362 76.6895 62.8609C75.978 63.6858 75.5908 64.8978 76.0598 65.8831C76.241 66.2176 76.4873 66.5125 76.7841 66.7503C77.081 66.9882 77.4223 67.1643 77.7881 67.2683C80.8356 68.2725 83.8923 65.7667 85.7812 63.1758C87.8936 60.2826 89.5432 56.653 88.646 53.1837C87.733 49.6579 84.4779 47.2811 82.6866 44.111C81.3456 41.7279 80.8513 38.9356 79.4378 36.5965C77.8638 34.0057 75.3107 32.1892 72.745 30.5868C70.4312 29.1355 67.9662 27.7536 65.2526 27.4387C62.2083 27.083 59.0603 27.8952 56.2584 29.2016C50.9067 31.7202 49.6727 35.9543 49.3327 38.734C48.8574 42.6279 48.8257 46.5629 49.2382 50.4638C49.6726 54.5815 50.8563 59.036 54.2563 61.4002C58.7297 64.5137 65.306 62.4423 68.8067 58.2521C71.4099 55.1443 72.6925 51.1405 72.3798 47.0985C72.2018 45.0965 71.6054 43.1541 70.6293 41.3971C69.6532 39.6401 68.3191 38.1075 66.7132 36.8987C65.6481 36.0613 64.3907 35.5029 63.0552 35.2743C61.8412 35.1102 60.6066 35.3362 59.5294 35.9197C58.4524 36.5032 57.5886 37.414 57.0632 38.5205C56.5376 39.6269 56.3773 40.8719 56.6056 42.0755C56.8338 43.279 57.4388 44.3787 58.3331 45.216C59.6459 46.4468 61.4433 46.9946 63.1685 47.514C64.8937 48.0335 66.6849 48.619 67.9568 49.894C69.2286 51.1689 69.7701 53.3569 68.6651 54.7861C67.4499 56.3602 64.05 56.1524 62.0761 56.1524C57.5051 56.1524 55.5911 61.9984 59.9449 63.67C64.2168 65.307 69.0743 67.4257 73.0535 65.1622C76.5164 63.2009 77.7378 58.9132 78.6634 55.0537" stroke="#FFEDB3" stroke-width="2.51846" stroke-linecap="round" stroke-linejoin="round"/>
<path d="M40.8017 90.827C46.3391 90.9623 58.8402 91.1198 66.5939 77.0824C69.0746 72.5932 70.4472 67.2321 68.9266 62.3305C67.4879 57.6871 63.7575 54.0007 59.4572 51.7373C55.1569 49.4737 50.2962 48.4884 45.4734 47.8776C43.6884 47.651 41.787 47.4936 40.172 48.2838C39.045 48.8379 38.1793 49.8012 37.408 50.8023C33.5674 55.7636 31.5305 61.8551 29.6763 67.8522C28.4611 71.7842 27.287 75.9964 28.4391 79.9472C28.7728 81.0963 29.3269 82.2264 30.2713 82.9599C31.2158 83.6934 32.5977 83.9452 33.6209 83.3251C34.2328 82.8985 34.711 82.3068 34.9997 81.6189C37.0176 77.5263 36.3187 72.5618 34.5401 68.356C32.7614 64.1501 30.01 60.4449 27.8064 56.4499C27.3531 55.6251 26.906 54.7028 27.1106 53.7835C27.3593 52.6596 28.4675 51.9765 29.4528 51.3784C33.9945 48.6282 37.9615 45.0257 41.1353 40.7693C42.5394 38.8805 43.8679 36.8059 45.9488 35.7323C49.2385 34.0229 68.5551 33.9002 75.6761 44.8619C77.5272 47.7171 80.3982 54.8822 80.924 59.7523C81.5253 65.2898 79.4948 71.8787 76.9038 74.7465C69.0525 83.4479 60.3071 74.2051 59.3848 71.8503C58.2932 69.0439 57.7813 66.0454 57.8799 63.0357C57.9902 59.6799 58.8622 56.4027 59.4541 53.0972C60.395 47.7165 60.572 42.2298 59.9798 36.7995C59.665 33.9915 59.3942 22.0476 45.848 23.0393C36.2023 23.7445 29.2136 33.661 28.1747 35.8205C25.3414 41.72 34.2693 46.3225 35.239 46.7759C37.2412 47.7203 39.7218 46.5964 41.0283 44.8177C42.3347 43.0391 44.3873 40.8103 44.7305 38.6317C45.9709 30.7427 38.8781 29.6125 37.8708 29.5684C34.2965 29.3914 30.7197 29.8606 27.3121 30.9536C24.3151 31.9484 12.853 37.3095 22.2751 51.4539C23.345 52.9713 24.5527 54.3866 25.8828 55.6818C27.375 57.2149 28.8893 58.7669 30.712 59.8845C32.0469 60.6999 33.5202 61.2696 34.8392 62.1039C36.1233 62.9687 37.3087 63.9716 38.3745 65.0945C43.0966 69.8009 56.4255 82.7238 44.2236 87.1311C39.7691 88.7493 34.5779 86.9989 30.6427 84.3577C25.439 80.8633 22.2972 74.6773 22.0139 68.4158C21.7306 62.1543 24.1451 55.9116 28.1589 51.1013C28.8578 50.267 29.6133 49.4454 30.0226 48.438C30.4319 47.4307 30.413 46.1557 29.6543 45.3718C29.3756 45.1122 29.0473 44.9115 28.6892 44.7818C28.3312 44.6519 27.9506 44.5957 27.5703 44.6163C24.3623 44.6415 22.2751 47.9942 21.315 51.0573C20.2415 54.4761 19.8449 58.4427 21.8093 61.446C23.8051 64.4901 27.6521 65.6959 30.3658 68.1261C32.3994 69.9489 33.7625 72.4391 35.8529 74.1988C38.1698 76.1506 41.1763 77.0479 44.1229 77.7435C46.7799 78.3731 49.5533 78.8831 52.226 78.3102C55.2482 77.6806 57.9619 75.8893 60.1907 73.7518C64.4626 69.6593 64.258 65.252 63.6883 62.5005C62.8877 58.66 61.6519 54.9233 60.0049 51.3626C58.2703 47.6038 55.7204 43.7631 51.7444 42.6141C46.5092 41.103 40.9402 45.1735 38.9695 50.2545C37.4981 54.0354 37.5693 58.2427 39.1678 61.9717C39.9785 63.8111 41.1667 65.4598 42.6554 66.8107C44.144 68.1616 45.8999 69.1847 47.8093 69.8136C49.0865 70.266 50.4566 70.3914 51.7948 70.1787C52.998 69.9455 54.0959 69.3357 54.9297 68.4374C55.7635 67.539 56.2899 66.3987 56.4329 65.1815C56.5759 63.9642 56.3281 62.733 55.7252 61.6659C55.1223 60.5988 54.1957 59.7511 53.0792 59.2454C51.439 58.4993 49.5628 58.5591 47.7621 58.6158C45.9613 58.6724 44.0756 58.7008 42.4607 57.9012C40.8457 57.1016 39.6274 55.1939 40.2192 53.4939C40.8678 51.627 44.1512 50.7173 46.0243 50.0845C50.3529 48.6175 50.29 42.4661 45.6277 42.2804C41.0567 42.101 35.7741 41.6508 32.7205 45.0727C30.0824 48.0414 30.2902 52.4959 30.6522 56.4499" stroke="#FFEDB3" stroke-width="2.51846" stroke-linecap="round" stroke-linejoin="round"/>
<path d="M83.4513 52.6809C84.7692 52.6809 85.8375 51.6956 85.8375 50.4803C85.8375 49.2651 84.7692 48.2798 83.4513 48.2798C82.1334 48.2798 81.0651 49.2651 81.0651 50.4803C81.0651 51.6956 82.1334 52.6809 83.4513 52.6809Z" fill="#ED5E3B"/>
<path d="M46.1471 92.195C47.465 92.195 48.5334 91.2098 48.5334 89.9945C48.5334 88.7792 47.465 87.7939 46.1471 87.7939C44.8292 87.7939 43.7609 88.7792 43.7609 89.9945C43.7609 91.2098 44.8292 92.195 46.1471 92.195Z" fill="#ED5E3B"/>
<path d="M86.2223 83.3893C87.5402 83.3893 88.6085 82.4041 88.6085 81.1888C88.6085 79.9735 87.5402 78.9883 86.2223 78.9883C84.9044 78.9883 83.8361 79.9735 83.8361 81.1888C83.8361 82.4041 84.9044 83.3893 86.2223 83.3893Z" fill="#ED5E3B"/>
<path d="M20.2225 60.2677C21.5404 60.2677 22.6088 59.2824 22.6088 58.0672C22.6088 56.8519 21.5404 55.8667 20.2225 55.8667C18.9046 55.8667 17.8363 56.8519 17.8363 58.0672C17.8363 59.2824 18.9046 60.2677 20.2225 60.2677Z" fill="#ED5E3B"/>
<path d="M45.5143 49.2003C46.8321 49.2003 47.9006 48.2152 47.9006 46.9998C47.9006 45.7845 46.8321 44.7993 45.5143 44.7993C44.1964 44.7993 43.1281 45.7845 43.1281 46.9998C43.1281 48.2152 44.1964 49.2003 45.5143 49.2003Z" fill="#ED5E3B"/>
<path d="M87.9605 37.0138C89.2784 37.0138 90.3467 36.0286 90.3467 34.8133C90.3467 33.5981 89.2784 32.6128 87.9605 32.6128C86.6427 32.6128 85.5742 33.5981 85.5742 34.8133C85.5742 36.0286 86.6427 37.0138 87.9605 37.0138Z" fill="#ED5E3B"/>
<path d="M40.9382 25.9904C42.2561 25.9904 43.3245 25.0052 43.3245 23.79C43.3245 22.5746 42.2561 21.5894 40.9382 21.5894C39.6203 21.5894 38.552 22.5746 38.552 23.79C38.552 25.0052 39.6203 25.9904 40.9382 25.9904Z" fill="#ED5E3B"/>
<path d="M63.9632 66.2023C65.2811 66.2023 66.3494 65.2171 66.3494 64.0018C66.3494 62.7864 65.2811 61.8013 63.9632 61.8013C62.6454 61.8013 61.577 62.7864 61.577 64.0018C61.577 65.2171 62.6454 66.2023 63.9632 66.2023Z" fill="#ED5E3B"/>
<path d="M67.7634 97.2767C68.3642 97.028 68.3814 95.6908 67.8017 94.29C67.222 92.8891 66.265 91.955 65.6641 92.2036C65.0633 92.4523 65.0461 93.7895 65.6258 95.1903C66.2055 96.5912 67.1626 97.5253 67.7634 97.2767Z" fill="#FFC501"/>
<path d="M26.1018 41.9393C26.7026 41.6907 26.7198 40.3535 26.1401 38.9526C25.5604 37.5518 24.6033 36.6176 24.0025 36.8662C23.4017 37.1149 23.3845 38.4521 23.9642 39.853C24.544 41.2539 25.5009 42.188 26.1018 41.9393Z" fill="#FFC501"/>
<path d="M93.7463 46.1098C94.3472 45.8611 94.3643 44.5239 93.7846 43.123C93.2049 41.7222 92.248 40.788 91.6471 41.0367C91.0463 41.2853 91.0292 42.6225 91.6089 44.0234C92.1885 45.4243 93.1455 46.3584 93.7463 46.1098Z" fill="#FFC501"/>
<path d="M25.3027 72.0558C26.6157 71.2977 27.4165 70.2267 27.0914 69.6636C26.7662 69.1004 25.4383 69.2585 24.1253 70.0165C22.8124 70.7745 22.0115 71.8456 22.3367 72.4087C22.6618 72.9718 23.9897 72.8138 25.3027 72.0558Z" fill="#FFC501"/>
<path d="M60.0669 51.9777C61.3799 51.2196 62.1807 50.1486 61.8556 49.5854C61.5305 49.0223 60.2025 49.1804 58.8895 49.9384C57.5765 50.6964 56.7757 51.7675 57.1008 52.3305C57.426 52.8937 58.754 52.7357 60.0669 51.9777Z" fill="#FFC501"/>
<path d="M84.7621 72.0318C86.0751 71.2738 86.8759 70.2027 86.5508 69.6397C86.2257 69.0765 84.8977 69.2345 83.5848 69.9926C82.2718 70.7506 81.471 71.8216 81.7961 72.3848C82.1212 72.9479 83.4492 72.7899 84.7621 72.0318Z" fill="#FFC501"/>
<path d="M59.7298 18.6725C59.8422 18.032 58.7229 17.3003 57.2296 17.0381C55.7364 16.7758 54.4347 17.0825 54.3222 17.7229C54.2098 18.3634 55.3292 19.0951 56.8224 19.3574C58.3156 19.6196 59.6173 19.313 59.7298 18.6725Z" fill="#FFC501"/>
</svg>
