<svg width="188" height="422" viewBox="0 0 188 422" fill="none" xmlns="http://www.w3.org/2000/svg">
<path d="M156.429 2.66159V16.3164C152.502 16.8227 144.69 17.1716 135.694 17.1716C126.068 17.1716 117.797 16.7748 114.192 16.2138V2.66159C114.192 1.998 114.438 1.3823 114.849 0.923947C118.824 1.92275 126.328 2.60002 134.941 2.60002C143.992 2.60002 151.832 1.85434 155.615 0.766602C156.114 1.23864 156.422 1.92275 156.422 2.66843H156.429V2.66159Z" fill="#FFC501"/>
<path d="M159.261 31.9203C159.261 32.1939 158.146 32.6728 156.422 32.8917C152.495 33.3979 144.682 33.7468 135.686 33.7468C126.061 33.7468 117.79 33.3501 114.185 32.7891C112.94 32.5975 111.886 32.4881 111.838 32.0366C111.818 31.8108 111.934 31.4414 112.905 31.3046V15.9942C116.511 16.562 126.061 17.1709 135.679 17.1709C144.675 17.1709 153.637 16.432 157.564 15.9258V31.0241C159.404 31.2156 159.247 31.6535 159.247 31.9203H159.261Z" fill="#ED5E3B"/>
<path d="M156.429 32.8922V88.1409H114.199V32.7896C117.804 33.3574 126.075 33.7473 135.7 33.7473C144.696 33.7473 152.502 33.4053 156.436 32.8922H156.429Z" fill="#FF884D"/>
<path d="M187.679 162.845V402.818C187.679 407.476 181.152 422 136.466 422C88.4213 422 84.7819 407.469 84.7819 402.804V162.845C84.7819 151.27 89.5364 140.803 97.1985 133.299C101.611 128.284 113.467 114.123 114.219 105.585H156.394C157.058 113.617 168.763 126.642 174.195 132.286C182.486 139.853 187.686 150.744 187.686 162.852H187.679V162.845Z" fill="#FF884D"/>
<path d="M155.621 0.759362C151.838 1.8471 143.998 2.59278 134.947 2.59278C125.896 2.59278 118.823 1.91551 114.855 0.916707C115.341 0.348896 116.059 0 116.859 0H153.767C154.492 0 155.149 0.280485 155.621 0.759362Z" fill="#ED5E3B"/>
<path d="M103.52 188.397V285.8H103.164C98.8203 284.843 94.5583 283.618 90.4468 282.079V186.536C93.6142 187.09 98.0336 187.774 103.52 188.397Z" fill="#FFC501"/>
<path d="M90.4462 186.536V282.079C88.5102 281.361 86.6152 280.567 84.7544 279.705V185.421C84.7544 185.421 86.7452 185.893 90.4462 186.536Z" fill="#FEDC67"/>
<path d="M187.678 185.941V281.586C187.678 281.586 142.281 294.461 103.163 285.8H103.519V188.397C121.86 190.497 152.159 191.975 187.678 185.941Z" fill="#FEDC67"/>
<path d="M156.429 83.5776V105.579C156.429 105.579 149.834 108.452 136.624 108.452C120.657 108.452 114.192 105.579 114.192 105.579V83.5776C114.192 83.5776 123.469 85.931 135.509 85.931C146.092 85.931 156.429 83.5776 156.429 83.5776Z" fill="#ED5E3B"/>
<path d="M91.3213 413.777L94.3724 409.536C97.8477 406.553 99.8247 402.188 99.7769 397.611L98.3471 273.712C98.2786 267.535 96.0484 261.569 92.0396 256.863L84.4117 247.887L85.6295 408.092L91.3213 413.784V413.777Z" fill="#FFC501"/>
<path d="M92.4985 401.141C92.4985 401.141 91.0824 405.266 82.1069 408.796C75.3752 411.45 64.3953 413.776 46.5674 413.776C28.7395 413.776 17.91 411.505 11.0484 408.892C1.7308 405.335 0.116299 401.148 0.116299 401.148L0 274.245C0 262.342 7.18999 259.38 9.67331 253.791C14.0106 255.795 27.597 258.306 46.4374 258.306C63.9027 258.306 78.6795 256.5 83.5709 254.009C85.0759 259.072 92.389 264.059 92.389 274.225L92.5053 401.148H92.4985V401.141Z" fill="#FFC501"/>
<path d="M82.1074 408.796C81.738 415.124 65.9761 420.214 46.5816 420.214C27.1871 420.214 11.562 415.165 11.049 408.885C17.9106 411.498 28.9384 413.769 46.5679 413.769C64.1974 413.769 75.3758 411.45 82.1074 408.789V408.796Z" fill="#E5AA03"/>
<path d="M85.2812 252.211C85.2812 252.84 84.6791 253.442 83.564 254.01C78.6795 256.493 63.9027 258.306 46.4306 258.306C27.5833 258.306 11.8762 256.199 8.33247 253.401C7.83991 253.025 7.58679 252.621 7.58679 252.217C7.58679 251.492 8.39404 250.795 9.87856 250.158C15.543 252.416 29.6015 254.024 46.0406 254.024C62.4798 254.024 77.2087 252.347 82.5994 249.987C84.3234 250.685 85.2743 251.431 85.2743 252.217H85.2812V252.211Z" fill="#FFDC67"/>
<path d="M91.9305 269.977C91.9305 269.977 91.8826 270.004 91.8552 270.018C85.8761 273.056 67.8019 275.265 46.4372 275.265C25.0724 275.265 5.67108 272.885 0.410278 269.662C0.718128 268.021 1.19016 266.591 1.75797 265.311C4.04974 260.222 7.96969 257.622 9.66628 253.784C14.0035 255.789 27.59 258.299 46.4372 258.299C63.9025 258.299 78.6793 256.493 83.5707 254.003C84.549 257.301 87.9969 260.571 90.2749 265.257C90.9727 266.686 91.5611 268.246 91.9305 269.984V269.977Z" fill="#FFD134"/>
<path d="M82.606 249.974C80.8615 250.74 78.173 251.431 74.7593 252.012C67.6445 250.754 57.2392 249.953 45.6504 249.953C34.0616 249.953 24.0325 250.719 16.9315 251.944C13.9624 251.417 11.5544 250.808 9.88513 250.145C15.2759 247.791 29.6149 246.108 46.4371 246.108C63.2594 246.108 76.9416 247.716 82.606 249.974Z" fill="#FFD134"/>
<path d="M74.7592 252.012C67.6581 253.236 57.4239 254.009 46.0471 254.009C34.6704 254.009 24.0461 253.216 16.9314 251.95C24.0325 250.733 34.2736 249.959 45.6503 249.959C57.0271 249.959 67.6445 250.753 74.7592 252.019V252.012Z" fill="#FFC501"/>
<path d="M46.4243 337.211C46.4243 366.115 31.9622 389.539 14.1206 389.539C9.09926 389.539 4.34469 387.685 0.103211 384.374L0.0211182 290.117C4.28312 286.758 9.06505 284.87 14.1275 284.87C31.969 284.87 46.4311 308.301 46.4311 337.205H46.4243V337.211Z" fill="#ED5E3B"/>
<path opacity="0.8" d="M72.8649 304.387C67.3989 304.715 71.5378 293.79 72.8649 293.51C74.0006 293.27 77.9958 304.079 72.8649 304.387Z" fill="#CEC095"/>
<path opacity="0.8" d="M73.3097 303.424C67.8026 303.759 71.9757 292.745 73.3097 292.457C74.4522 292.211 78.4816 303.109 73.3097 303.424Z" fill="#FEF9E5"/>
<path opacity="0.8" d="M45.2803 392.385C39.8143 392.714 43.9532 381.788 45.2803 381.508C46.416 381.268 50.4112 392.077 45.2803 392.385Z" fill="#CEC095"/>
<path opacity="0.8" d="M45.7251 391.427C40.218 391.763 44.3911 380.748 45.7251 380.461C46.8676 380.215 50.897 391.113 45.7251 391.427Z" fill="#FEF9E5"/>
<path opacity="0.8" d="M72.8911 290.863C72.7201 291 72.4738 290.918 72.4259 290.706C72.1865 289.639 70.9141 287.402 73.028 283.092C73.028 283.092 72.6449 285.055 73.5274 287.265C74.3825 289.399 73.3837 290.48 72.8911 290.87V290.863Z" fill="#CEC095"/>
<path opacity="0.8" d="M72.8911 290.151C72.7201 290.288 72.4738 290.206 72.4259 289.994C72.1865 288.927 70.9141 286.69 73.028 282.38C73.028 282.38 72.6449 284.343 73.5274 286.553C74.3825 288.687 73.3837 289.768 72.8911 290.158V290.151Z" fill="#FEF9E5"/>
<path opacity="0.8" d="M45.124 377.731C44.953 377.868 44.7067 377.786 44.6588 377.574C44.4194 376.507 43.147 374.27 45.2609 369.96C45.2609 369.96 44.8778 371.923 45.7603 374.133C46.6154 376.267 45.6166 377.348 45.124 377.738V377.731Z" fill="#CEC095"/>
<path opacity="0.8" d="M45.124 377.021C44.953 377.157 44.7067 377.075 44.6588 376.863C44.4194 375.796 43.147 373.559 45.2609 369.249C45.2609 369.249 44.8778 371.212 45.7603 373.422C46.6154 375.556 45.6166 376.637 45.124 377.027V377.021Z" fill="#FEF9E5"/>
</svg>
